<svg xmlns="http://www.w3.org/2000/svg" viewBox="0 0 330.4 205.8">
  <path d="M330.2 10.4c1-9-2-10.4-11-10.4s-72 1.4-96 1.4-109 3-136 2-76-3-80-3-7 1-7 9c-1 32 2 51 2 90 0 46.2-2 45-2 95.3 0 6.3 1 9.7 5 9.7h26c21 0 96.2-3.1 139-2 39 1 134 3.1 150.9 3.4 6.7.1 8.1-1.4 7.9-8.4s1.2-37 .2-66-2.6-46.7-2-71c.6-25 2-41 3-50zm-31.6 170c-10 0-53.4-1-53.4-1s9.1-2.9 15-12c4.7-7.2 5-20.8 5-20.8l-19.7 1.4-1.3 1.4s-1 8-7 11-21 2-23-12 0-17 0-24 5-14 16-14 14.7 8 15 11c.3 2.9.6 4.3 1.7 4.4 4.5.5 16.5 1.2 16.5 1.2s2.4.9 1.9-3.1c-1.2-9.2-4.2-24.1-16.2-30-13.8-6.8-24.6-4.8-32.9-2.5-8.2 2.3-17 11-20 24s-2.4 32.8 0 42c4.1 15.7 17 22 17 22h-41s8-5 11-10 4.7-13.3 3.7-21.3-9.7-15.7-13.7-17.7-12-4-16-5-5.4-3.1-5.4-7.1 2.4-7.9 7.4-7.9 7.1 4.1 7.1 6.1 1.7 1.8 3.1 1.5c7.4-1.8 16.3-3.4 16.3-3.4l.6-1.2s-3.2-13.7-10.1-17.9c-7.1-4.3-16.1-8.7-31-2-10.6 4.8-14.9 16.9-15 23.9-.1 8.2 2.8 19.8 13.8 24.8s13.5 2.9 18.4 5.7c3.3 1.9 4.7 6.1 2.7 10.4s-9.4 3.2-11.7 1.3c-1.7-1.4-2.8-6.1-2.8-6.1l-1.1-1.1-18.8 1.6-.8 1.7s.5 10.6 4.3 15c4.9 5.7 11 8.8 11 8.8h-23v-15.6l-1.4-1.4H87.1l-.9-16.6 26-.4 2-2-1.6-17.1-1.2-.9-24.8-.4.6-15.7 30.8.6 1.8-.9 2.4-18.7-1.6-1.6-53.9.1-1.8 1.8.3 30.7-2 58H28c-3.8 0-3.8-3-3.8-7s2-49.1 2-68.1.6-23 .6-36-.6-28.9-.6-34.9.2-7.7 6.2-7.6c4.8.1 59.8 1.6 78.8 2.6s95.9-.7 109.9-.8c20.9-.1 68.5-2.6 76.6-2.8 5.1-.1 6.6 2 5.9 12.7-1.9 30.9-.3 66.7-.3 83.8s1 48.1 1 52.1-.5 7-5.7 7z" fill="#24b4d0"/>
</svg>
