<svg id="Layer_1" data-name="Layer 1" xmlns="http://www.w3.org/2000/svg" viewBox="0 0 425 74"><defs><style>.cls-1{fill:#73c8a9;}.cls-2{fill:#ff6a5a;}.cls-3{fill:#ffb350;}.cls-4{fill:#eff2f4;}</style></defs><title>Umbrella Logo</title><path class="cls-1" d="M.52,40H39.39L20,6.29A38.84,38.84,0,0,0,.52,40Z"/><path class="cls-2" d="M20,6.29,39.39,40V1.08A38.63,38.63,0,0,0,20,6.29Z"/><path class="cls-3" d="M39.39,1.08V40H78.25A38.86,38.86,0,0,0,39.39,1.08Z"/><path class="cls-4" d="M36.35,40V62.84a4,4,0,1,1-8,0,3,3,0,0,0-6.07,0,10.08,10.08,0,1,0,20.15,0V40Z"/><path class="cls-4" d="M98.54,43.25V12.71h14V43c0,4.86,3.14,8,7.72,8S128,47.86,128,43V12.71h14V43.25c0,12.26-9,20.53-21.74,20.53S98.54,55.51,98.54,43.25Z"/><path class="cls-4" d="M208.72,38.42v24.1H195.49V40.06c0-4-1.48-6-4.29-6-3.64,0-5.5,2.5-5.5,7.34V62.52H172.81V40.06c0-3.9-1.47-6-4.24-6-3.59,0-5.55,2.56-5.55,7.34V62.52H149.78V24.1h9.31L161,28.22A14.84,14.84,0,0,1,172.2,23a12.91,12.91,0,0,1,11,5.66A15,15,0,0,1,195,23C203.25,23,208.72,29.37,208.72,38.42Z"/><path class="cls-4" d="M239.22,22.9c11.84,0,20.19,8.5,20.19,20.44s-8.35,20.44-20.19,20.44a17.91,17.91,0,0,1-11.59-4.11l-1.24,2.85h-9.8V10.22h13.09V25.55a18,18,0,0,1,9.54-2.65Zm6.84,20.44a8.61,8.61,0,1,0-17.21,0,8.61,8.61,0,1,0,17.21,0Z"/><path class="cls-4" d="M290.49,23.91V36h-5.13c-4.69,0-6.65,2.06-6.65,7V62.52H265.47V24.1h8.87l2.06,4.26c2.71-3.13,6-4.45,10.59-4.45Z"/><path class="cls-4" d="M334.45,43a24.71,24.71,0,0,1-.27,3.5H305.65c.86,4.41,3.66,6.68,7.84,6.68a7.73,7.73,0,0,0,6.95-3.6h13.17c-2.71,8.77-10.48,14.25-20.12,14.25-12,0-20.87-8.76-20.87-20.5s8.81-20.44,20.87-20.44c12.38,0,21,8.83,21,20.1Zm-28.57-3.83h15.53a7.72,7.72,0,0,0-7.92-5.91C309.63,33.21,307,35.3,305.88,39.12Z"/><path class="cls-4" d="M340.47,10.22H353.7v52.3H340.47Z"/><path class="cls-4" d="M362,10.22h13.24v52.3H362Z"/><path class="cls-4" d="M424.48,24.06V62.48H414.25l-1.14-2.72a18.17,18.17,0,0,1-11.59,4c-11.75,0-20.15-8.57-20.15-20.51s8.4-20.37,20.15-20.37A18.2,18.2,0,0,1,413.26,27l1.36-3ZM411.89,43.3a8.6,8.6,0,1,0-17.2,0,8.6,8.6,0,1,0,17.2,0Z"/></svg>