<?xml version="1.0" encoding="UTF-8" standalone="no"?>
<!DOCTYPE svg PUBLIC "-//W3C//DTD SVG 1.1//EN" "http://www.w3.org/Graphics/SVG/1.1/DTD/svg11.dtd">
<svg width="100%" height="100%" viewBox="0 0 998 785" version="1.1" xmlns="http://www.w3.org/2000/svg" xmlns:xlink="http://www.w3.org/1999/xlink" xml:space="preserve" xmlns:serif="http://www.serif.com/" style="fill-rule:evenodd;clip-rule:evenodd;stroke-linejoin:round;stroke-miterlimit:2;">
    <g id="background" transform="matrix(0.72,0,0,0.72,0,0)">
        <g transform="matrix(1,0,0,1,76.3874,913.989)">
            <g id="group0">
                <g id="group1">
                    <path id="shape0" d="M2.313,26.311C71.813,-4.689 150.713,-0.689 223.613,14.711C300.713,31.011 374.913,59.411 452.713,72.611C495.813,79.911 539.813,82.511 583.213,75.711C585.113,75.411 584.313,72.511 582.413,72.811C501.813,85.311 421.213,65.311 344.113,43.511C270.313,22.611 195.613,-0.589 118.013,0.011C77.813,0.311 37.713,7.311 0.813,23.711C-0.987,24.511 0.513,27.111 2.313,26.311Z" style="fill:rgb(153,153,153);fill-rule:nonzero;"/>
                </g>
            </g>
        </g>
        <g transform="matrix(1,0,0,1,466.412,913.498)">
            <g id="group2">
                <g id="group3">
                    <path id="shape1" d="M1.488,52.602C95.688,54.502 186.888,28.402 278.988,12.902C305.888,8.402 332.988,4.802 360.288,3.002C362.188,2.902 362.188,-0.098 360.288,0.002C265.988,6.202 175.088,34.402 81.488,45.402C54.988,48.502 28.288,50.202 1.588,49.702C-0.512,49.602 -0.512,52.602 1.488,52.602Z" style="fill:rgb(153,153,153);fill-rule:nonzero;"/>
                </g>
            </g>
        </g>
        <g transform="matrix(1,0,0,1,906.335,923.165)">
            <g id="group4">
                <g id="group5">
                    <path id="shape2" d="M1.865,9.335C35.365,2.135 70.065,0.935 103.965,6.135C135.165,10.935 165.065,21.235 194.565,32.235C223.665,43.035 252.565,54.535 282.765,62.235C313.965,70.135 345.665,72.135 377.865,72.135C415.865,72.135 454.165,70.635 491.465,79.035C493.365,79.435 494.165,76.535 492.265,76.135C426.365,61.335 358.065,76.335 292.165,61.335C230.665,47.335 174.465,15.835 112.265,4.535C75.465,-2.165 37.665,-1.365 1.165,6.435C-0.835,6.835 -0.035,9.735 1.865,9.335Z" style="fill:rgb(153,153,153);fill-rule:nonzero;"/>
                </g>
            </g>
        </g>
        <g transform="matrix(1,0,0,1,338.773,492.767)">
            <g id="group6">
                <g id="group7">
                    <path id="shape3" d="M23.227,55.233C14.627,52.633 -2.274,45.533 4.027,33.533C8.527,24.933 21.927,24.233 30.227,24.533C58.227,25.333 86.227,27.733 114.227,25.433C140.527,23.233 165.627,15.733 191.227,9.733C217.227,3.533 244.727,-0.967 270.927,6.633C282.427,9.933 293.127,15.433 304.427,19.233C309.827,21.033 315.427,22.433 321.127,23.033C327.927,23.733 334.727,22.733 341.427,22.433C348.327,22.133 355.427,22.333 361.327,26.433C366.727,30.133 371.227,37.133 367.727,43.633C362.727,53.033 348.127,50.433 339.727,48.633C314.827,43.433 289.727,41.833 264.427,45.233C251.027,47.033 237.927,50.333 225.127,54.433C211.327,58.833 197.927,62.733 183.227,60.733C169.527,58.833 156.427,54.433 142.527,53.933C128.627,53.333 114.827,55.133 101.127,56.933C74.527,60.533 46.127,65.133 21.227,52.233C19.527,51.333 18.027,53.933 19.727,54.833C43.027,66.933 69.327,64.133 94.527,60.833C107.727,59.033 121.027,57.133 134.427,56.833C149.127,56.533 162.827,59.933 177.127,62.733C191.727,65.533 204.927,64.033 219.127,59.633C233.227,55.233 247.127,50.933 261.727,48.733C276.827,46.433 292.127,45.833 307.327,46.933C320.827,47.833 333.727,51.433 347.027,52.933C354.927,53.833 365.027,53.533 369.927,46.133C375.527,37.633 369.527,27.733 361.827,23.033C350.127,15.933 335.627,20.933 322.927,20.133C308.927,19.233 296.027,12.733 283.127,7.733C256.327,-2.667 228.927,-1.367 201.227,4.533C171.927,10.733 143.427,20.233 113.427,22.633C96.126,24.033 78.626,23.733 61.327,23.033C52.327,22.633 43.227,22.233 34.227,21.833C28.627,21.633 23.127,21.533 17.627,22.633C9.127,24.333 -0.573,29.333 0.027,39.433C0.727,50.533 13.527,55.633 22.526,58.333C24.227,58.733 25.026,55.833 23.227,55.233Z" style="fill:rgb(153,153,153);fill-rule:nonzero;"/>
                </g>
            </g>
        </g>
        <g transform="matrix(1,0,0,1,1071.5,125.95)">
            <g id="group8">
                <g id="group9">
                    <path id="shape4" d="M28.5,53.15C19.9,51.95 5.8,48.85 3.3,39.05C-0.3,25.45 19.1,21.15 28.5,19.45C56,14.75 84.2,19.05 111.9,19.05C166.8,18.95 220.9,8.55 275.5,4.65C302.8,2.65 330.3,2.35 357.5,5.85C363.7,6.65 370.2,7.25 376.2,9.05C378.7,9.75 381.5,10.95 383.4,12.75C388,17.25 383.5,21.35 379.3,23.55C368.5,29.25 356.2,31.55 344.1,32.05C319.9,33.15 295.8,28.15 271.6,29.05C260.3,29.45 249.2,31.35 238.5,35.25C226,39.85 214.4,46.35 201.8,50.65C187.2,55.65 171.8,58.15 156.3,58.15C140.6,58.15 125.1,55.75 109.6,53.95C78.2,50.35 46.7,50.45 15.4,54.65C13.5,54.95 13.5,57.95 15.4,57.65C46,53.55 77,53.25 107.7,56.75C122.9,58.45 138.1,60.85 153.5,61.15C167.7,61.45 182,59.65 195.7,55.75C209.7,51.75 222.5,44.85 236,39.45C249.1,34.25 262.6,31.95 276.6,31.95C302.4,31.75 328.3,37.55 354.1,34.15C360.4,33.35 366.5,31.95 372.5,29.75C377.1,28.05 383.3,25.95 386.6,22.05C392.8,14.55 383.8,7.95 377.1,6.05C363.9,2.15 349,1.45 335.3,0.65C320.4,-0.25 305.5,-0.15 290.6,0.55C230.3,3.45 170.7,16.05 110.2,15.85C93,15.85 75.8,14.25 58.6,14.15C44,14.05 27.3,14.35 13.6,20.05C5,23.65 -3.4,32.05 1.4,41.95C5.9,51.25 18.6,54.45 27.8,55.75C29.6,56.35 30.4,53.45 28.5,53.15Z" style="fill:rgb(204,204,204);fill-rule:nonzero;"/>
                </g>
            </g>
        </g>
        <g transform="matrix(1,0,0,1,130.652,296.926)">
            <g id="group10">
                <g id="group11">
                    <path id="shape5" d="M2.248,18.674C85.648,-17.526 177.048,16.274 253.948,52.574C293.148,71.074 331.748,90.874 372.648,105.474C412.748,119.774 454.448,129.674 496.748,135.374C581.648,146.874 668.548,141.774 752.048,123.074C839.548,103.474 922.448,67.874 1009.25,45.574C1099.55,22.374 1193.95,17.374 1286.05,32.274C1297.25,34.074 1308.35,36.174 1319.45,38.574C1321.35,38.974 1322.15,36.074 1320.25,35.674C1230.85,16.674 1137.95,15.774 1048.35,33.574C958.748,51.374 874.448,87.774 786.548,111.474C701.248,134.474 612.148,143.774 524.048,135.474C480.248,131.374 436.848,122.874 394.848,109.674C351.448,96.074 310.748,76.274 269.848,56.674C195.948,21.174 112.548,-14.826 28.948,6.274C19.248,8.674 9.948,11.974 0.748,15.974C-0.952,16.874 0.548,19.474 2.248,18.674Z" style="fill:rgb(204,204,204);fill-rule:nonzero;"/>
                </g>
            </g>
        </g>
        <g transform="matrix(1,0,0,1,474.416,240.315)">
            <g id="group12">
                <g id="group13">
                    <path id="shape6" d="M0.684,39.485C98.384,93.985 214.684,98.085 323.084,82.885C445.784,65.685 563.984,25.185 686.884,9.385C755.284,0.585 825.084,-0.515 892.784,14.485C894.684,14.885 895.484,11.985 893.584,11.585C773.884,-14.815 651.084,8.485 533.884,35.785C418.384,62.685 301.584,94.085 181.884,86.385C119.384,82.385 57.184,67.485 2.184,36.885C0.584,35.885 -0.916,38.485 0.684,39.485Z" style="fill:rgb(204,204,204);fill-rule:nonzero;"/>
                </g>
            </g>
        </g>
        <g transform="matrix(1,0,0,1,181.514,79.2218)">
            <g id="group14">
                <g id="group15">
                    <path id="shape7" d="M1.886,13.878C85.886,-6.122 175.486,1.778 254.686,36.278C293.586,53.178 330.086,75.178 368.286,93.478C406.786,111.878 446.986,124.578 489.386,130.278C537.886,136.778 586.986,135.678 635.586,132.478C637.486,132.378 637.486,129.378 635.586,129.478C591.686,132.378 547.386,133.578 503.586,128.978C459.186,124.278 416.786,112.678 376.286,93.978C337.786,76.078 301.386,54.078 262.686,36.678C224.686,19.278 184.386,7.778 142.886,2.878C95.586,-2.822 47.386,-0.022 1.086,10.978C-0.814,11.378 -0.014,14.278 1.886,13.878Z" style="fill:rgb(204,204,204);fill-rule:nonzero;"/>
                </g>
            </g>
        </g>
        <g transform="matrix(1,0,0,1,1008.68,651.732)">
            <g id="group16">
                <g id="group17">
                    <path id="shape8" d="M26.72,47.468C17.92,45.668 3.52,41.168 2.82,30.268C2.42,23.568 8.02,18.668 13.92,16.868C21.02,14.568 28.52,16.668 35.42,18.668C48.02,22.368 60.72,25.368 73.92,25.868C86.22,26.368 98.42,24.568 110.32,21.368C123.12,17.968 135.62,13.368 148.32,9.768C161.72,5.968 175.42,3.968 189.42,3.768C216.12,3.368 242.52,8.168 269.12,9.268C282.42,9.768 295.52,9.068 308.62,7.068C322.82,4.868 337.32,1.568 351.82,3.268C362.22,4.468 378.92,11.468 375.52,24.868C372.52,36.568 355.92,43.168 345.72,46.468C294.52,63.068 241.72,35.468 189.82,42.768C159.92,46.968 131.72,59.568 101.52,61.968C87.72,63.068 73.52,62.168 60.42,57.268C48.42,52.668 37.62,42.668 23.92,45.068C22.02,45.368 22.82,48.268 24.72,47.968C32.92,46.568 40.12,50.468 47.02,54.268C52.62,57.268 58.22,60.068 64.32,61.868C76.82,65.668 90.22,66.168 103.22,64.968C131.82,62.268 158.72,50.968 187.02,46.368C218.22,41.368 248.92,48.568 279.72,52.668C304.82,55.968 331.72,56.768 355.32,46.268C364.32,42.268 376.32,35.868 378.62,25.268C380.72,15.768 373.42,8.168 365.52,4.268C353.82,-1.432 339.72,-0.332 327.32,1.368C312.22,3.368 297.52,6.568 282.22,6.768C252.42,7.268 223.02,1.168 193.32,1.068C179.12,1.068 165.02,2.668 151.22,6.268C137.52,9.868 124.22,14.868 110.62,18.568C93.82,23.068 76.92,24.468 59.72,21.768C51.12,20.368 43.02,17.968 34.72,15.568C28.52,13.768 21.82,12.268 15.32,13.668C5.62,15.768 -3.18,24.968 1.12,35.268C5.02,44.668 16.92,48.768 26.12,50.668C27.72,50.768 28.52,47.868 26.72,47.468Z" style="fill:rgb(153,153,153);fill-rule:nonzero;"/>
                </g>
            </g>
        </g>
        <g transform="matrix(1,0,0,1,584.814,1026.87)">
            <g id="group18">
                <g id="group19">
                    <path id="shape9" d="M1.886,67.227C39.286,58.227 75.886,45.927 111.186,30.627C129.486,22.627 147.386,13.527 166.886,8.727C185.586,4.027 204.986,2.627 224.286,3.127C246.586,3.627 268.686,6.627 290.686,10.127C292.586,10.427 293.386,7.527 291.486,7.227C253.986,1.327 215.386,-3.473 177.686,3.327C158.286,6.827 140.486,14.227 122.686,22.327C103.986,30.827 85.086,38.527 65.686,45.327C44.486,52.727 22.986,59.127 1.086,64.327C-0.814,64.727 -0.014,67.627 1.886,67.227Z" style="fill:rgb(22,22,22);fill-rule:nonzero;"/>
                </g>
            </g>
        </g>
        <g transform="matrix(1,0,0,1,821.587,1010.79)">
            <g id="group20">
                <g id="group21">
                    <path id="shape10" d="M1.413,20.307C18.213,19.907 34.813,17.507 51.013,12.807C67.513,8.107 83.813,1.507 101.313,3.207C110.213,4.007 118.913,6.507 127.513,8.707C136.513,11.007 145.413,13.307 154.413,15.607C171.713,20.007 188.913,24.407 206.213,28.807C208.113,29.307 208.913,26.407 207.013,25.907C189.113,21.307 171.213,16.807 153.313,12.207C136.913,8.007 120.113,2.407 103.313,0.407C86.813,-1.493 71.213,3.607 55.613,8.407C37.913,13.807 19.913,16.907 1.513,17.407C-0.487,17.307 -0.487,20.307 1.413,20.307Z" style="fill:rgb(22,22,22);fill-rule:nonzero;"/>
                </g>
            </g>
        </g>
        <g transform="matrix(1,0,0,1,996.191,1032.64)">
            <g id="group22">
                <g id="group23">
                    <path id="shape11" d="M1.909,13.964C41.209,5.264 82.509,-2.236 122.409,6.964C142.209,11.564 160.809,20.364 179.309,28.464C198.709,37.064 218.209,45.564 237.609,54.164C239.409,54.964 240.909,52.364 239.109,51.564C208.709,38.164 178.609,23.664 147.609,11.764C117.609,0.264 86.409,-2.036 54.609,1.564C36.609,3.664 18.709,7.164 1.009,11.164C-0.791,11.464 0.009,14.364 1.909,13.964Z" style="fill:rgb(22,22,22);fill-rule:nonzero;"/>
                </g>
            </g>
        </g>
        <g id="group24">
        </g>
    </g>
    <g id="shape13" transform="matrix(0.72,0,0,0.72,255.024,470.16)">
        <circle cx="12.4" cy="12.4" r="12.4" style="fill:rgb(255,106,90);"/>
    </g>
    <g id="shape14" transform="matrix(0.72,0,0,0.72,283.392,498.24)">
        <circle cx="6.5" cy="6.5" r="6.5" style="fill:rgb(255,106,90);"/>
    </g>
    <g id="shape15" transform="matrix(0.72,0,0,0.72,779.184,28.44)">
        <circle cx="15.3" cy="15.3" r="15.3" style="fill:rgb(255,106,90);"/>
    </g>
    <g id="shape16" transform="matrix(0.72,0,0,0.72,809.568,50.4)">
        <circle cx="8.7" cy="8.7" r="8.7" style="fill:rgb(255,106,90);"/>
    </g>
    <g id="shape17" transform="matrix(0.72,0,0,0.72,801.216,39.456)">
        <circle cx="14.5" cy="14.5" r="14.5" style="fill:rgb(115,200,169);"/>
    </g>
    <g id="shape18" transform="matrix(0.72,0,0,0.72,772.56,569.376)">
        <circle cx="19.6" cy="19.6" r="19.6" style="fill:rgb(115,200,169);"/>
    </g>
    <g id="shape19" transform="matrix(0.72,0,0,0.72,265.32,39.456)">
        <circle cx="12.5" cy="12.5" r="12.5" style="fill:rgb(115,200,169);"/>
    </g>
    <g id="shape20" transform="matrix(0.72,0,0,0.72,405.72,650.88)">
        <circle cx="15.3" cy="15.3" r="15.3" style="fill:rgb(115,200,169);"/>
    </g>
    <g transform="matrix(0.72,0,0,0.72,493.416,437.17)">
        <g id="group26">
            <g id="group27">
                <path id="shape21" d="M3.901,39.619C1.801,38.719 4.201,35.019 5.301,34.519C6.601,33.919 9.201,34.719 10.601,35.119C12.801,35.819 14.701,37.019 16.901,37.619C19.301,38.319 22.201,38.519 24.501,37.419C32.501,33.319 23.001,19.519 34.701,19.519C41.101,19.519 46.501,29.019 51.801,21.919C53.701,19.419 54.501,16.219 55.501,13.219C56.301,10.619 57.001,7.919 58.801,5.819C60.901,3.419 67.301,1.019 68.001,6.219C68.201,8.119 71.301,8.119 71.001,6.219C70.501,2.619 67.901,0.219 64.201,0.019C59.801,-0.281 56.601,3.019 54.801,6.619C53.501,9.119 52.901,11.919 52.001,14.619C51.401,16.519 50.601,19.819 48.901,21.019C47.101,22.219 45.701,20.919 44.201,20.019C40.301,17.419 35.601,15.419 30.901,17.119C26.601,18.719 24.901,22.419 25.101,26.819C25.101,28.119 25.501,29.719 25.401,31.019C24.701,35.619 21.601,35.819 18.401,35.119C15.201,34.419 12.501,32.419 9.201,31.819C5.701,31.119 2.201,32.019 0.601,35.519C-0.699,38.519 0.101,41.519 3.101,42.719C4.901,43.219 5.701,40.319 3.901,39.619Z" style="fill:rgb(115,200,169);fill-rule:nonzero;"/>
            </g>
        </g>
    </g>
    <g transform="matrix(0.72,0,0,0.72,530.478,438.772)">
        <g id="group28">
            <g id="group29">
                <path id="shape22" d="M4.025,42.195C2.525,39.895 2.525,36.995 4.125,34.695C6.425,31.395 9.625,31.895 13.125,32.395C15.725,32.795 18.925,33.295 20.825,30.995C22.125,29.495 21.925,27.695 22.425,25.995C23.125,23.495 24.725,21.295 26.825,19.795C31.225,16.595 37.425,16.095 41.825,19.495C42.925,20.295 44.225,19.795 44.425,18.395C45.625,8.695 55.225,1.495 64.825,3.195C66.725,3.495 67.525,0.595 65.625,0.295C53.925,-1.705 42.825,6.695 41.425,18.395C42.325,17.995 43.125,17.695 44.025,17.295C39.925,14.095 34.725,13.295 29.825,14.995C24.225,16.895 21.625,20.595 19.525,25.795C18.525,28.395 17.325,29.995 14.425,29.595C12.825,29.395 11.325,28.995 9.725,28.895C7.425,28.795 5.425,29.395 3.625,30.895C-0.175,34.095 -1.175,39.595 1.525,43.795C2.525,45.395 5.125,43.895 4.025,42.195Z" style="fill:rgb(115,200,169);fill-rule:nonzero;"/>
            </g>
        </g>
    </g>
    <g transform="matrix(0.72,0,0,0.72,566.969,58.7629)">
        <g id="group30">
            <g id="group31">
                <path id="shape23" d="M3.943,22.685C2.243,21.085 2.743,20.085 5.343,19.585C6.443,18.085 7.643,17.785 8.943,18.785C10.743,19.185 11.943,20.785 13.243,21.985C14.843,23.385 16.243,24.985 18.043,26.085C20.543,27.485 23.643,28.085 26.243,26.785C29.443,25.185 29.543,21.985 30.643,18.985C33.643,10.985 43.843,10.185 48.643,16.985C49.243,17.785 50.743,18.085 51.243,16.985C53.143,12.485 55.543,7.385 59.843,4.685C64.143,1.985 71.343,2.285 73.243,7.885C73.843,9.685 76.743,8.885 76.143,7.085C74.243,1.685 68.743,-0.715 63.243,0.185C55.643,1.485 51.443,9.085 48.643,15.485L51.243,15.485C47.743,10.485 41.743,7.785 35.743,9.985C33.243,10.885 30.943,12.685 29.443,14.985C28.643,16.185 28.143,17.485 27.643,18.885C27.343,19.785 27.343,20.885 26.843,21.685C25.543,23.885 21.943,24.785 19.643,23.485C14.743,20.785 9.943,12.185 3.143,15.685C-0.657,17.585 -1.157,22.985 2.443,25.285C4.143,26.285 5.643,23.685 3.943,22.685Z" style="fill:rgb(255,179,80);fill-rule:nonzero;"/>
            </g>
        </g>
    </g>
    <g transform="matrix(0.72,0,0,0.72,613.86,63.2176)">
        <g id="group32">
            <g id="group33">
                <path id="shape24" d="M3.017,15.698C2.317,5.698 15.117,8.998 20.217,11.498C22.817,12.798 26.017,15.198 28.817,12.998C29.717,12.298 30.117,11.298 30.517,10.298C32.017,6.998 33.017,4.598 37.017,3.398C43.217,1.598 49.217,5.498 54.217,8.698C55.817,9.698 57.317,7.098 55.717,6.098C50.417,2.798 44.417,-0.902 37.917,0.198C35.817,0.498 33.717,1.298 32.017,2.598C29.417,4.498 28.917,7.798 26.317,9.398C23.817,10.898 22.817,9.398 20.317,8.198C19.017,7.598 17.717,6.998 16.317,6.498C13.717,5.598 10.917,5.198 8.217,5.798C3.517,6.898 -0.283,10.698 0.017,15.698C0.117,17.598 3.117,17.598 3.017,15.698Z" style="fill:rgb(255,179,80);fill-rule:nonzero;"/>
            </g>
        </g>
    </g>
    <g transform="matrix(0.72,0,0,0.72,821.603,360.143)">
        <g id="group34">
            <g id="group35">
                <path id="shape25" d="M3.884,17.501C-2.716,3.001 22.284,-3.399 23.984,11.801C24.584,16.901 21.784,22.301 16.584,23.701C10.784,25.201 4.584,21.301 2.984,15.701C2.484,13.801 -0.416,14.601 0.084,16.501C2.084,23.701 9.984,28.501 17.384,26.601C24.684,24.701 28.284,16.601 26.584,9.601C24.784,2.201 17.084,-1.399 9.984,0.501C1.684,2.701 -2.216,11.401 1.284,19.201C2.084,20.801 4.684,19.201 3.884,17.501Z" style="fill:rgb(255,179,80);fill-rule:nonzero;"/>
            </g>
        </g>
    </g>
    <g transform="matrix(0.72,0,0,0.72,831.555,369.048)">
        <g id="group36">
            <g id="group37">
                <path id="shape26" d="M8.663,16.634C3.263,16.134 1.263,8.934 4.963,5.334C8.063,2.234 13.363,2.434 16.663,5.034C20.063,7.734 23.363,15.634 19.563,19.434C14.563,24.434 8.463,16.334 6.063,12.734C4.963,11.134 2.363,12.634 3.463,14.234C6.963,19.634 14.963,28.134 21.663,21.534C26.963,16.334 23.163,5.834 17.963,2.134C12.663,-1.666 3.963,-0.366 0.963,5.834C-2.037,11.834 2.363,19.034 8.763,19.634C10.563,19.834 10.563,16.834 8.663,16.634Z" style="fill:rgb(255,179,80);fill-rule:nonzero;"/>
            </g>
        </g>
    </g>
    <g transform="matrix(0.72,0,0,0.72,182.709,282.419)">
        <g id="group38">
            <g id="group39">
                <path id="shape27" d="M1.438,11.251C5.438,11.051 7.538,8.351 10.338,5.851C16.938,-0.049 24.538,5.551 28.738,11.351C32.738,16.851 38.538,20.751 43.638,14.151C46.038,11.051 47.238,6.451 50.538,4.251C57.238,-0.249 62.938,8.651 67.138,12.551C71.938,16.951 81.838,18.951 84.038,10.751C84.538,8.851 81.638,8.051 81.138,9.951C80.038,14.251 74.838,14.151 71.738,12.351C69.338,10.951 67.638,8.751 65.738,6.851C62.938,3.851 59.838,0.951 55.638,0.151C48.738,-1.049 45.638,5.151 42.538,10.151C41.738,11.551 40.738,13.451 39.238,14.251C35.638,16.151 33.038,12.351 31.138,9.851C28.738,6.451 26.038,3.551 22.138,1.751C18.938,0.251 15.138,-0.249 11.838,1.151C8.038,2.751 5.638,8.151 1.338,8.351C-0.462,8.351 -0.462,11.351 1.438,11.251Z" style="fill:rgb(255,179,80);fill-rule:nonzero;"/>
            </g>
        </g>
    </g>
    <g transform="matrix(0.72,0,0,0.72,233.813,273.162)">
        <g id="group40">
            <g id="group41">
                <path id="shape28" d="M0.359,3.508C4.559,8.508 12.059,15.208 18.659,9.708C20.259,8.308 21.159,6.308 22.859,4.908C25.359,3.008 28.659,2.608 31.559,3.508C37.859,5.208 41.559,11.208 44.859,16.308C45.459,17.208 46.959,17.408 47.459,16.308C51.759,6.908 63.259,4.608 72.259,8.208C74.059,8.908 74.859,6.008 73.059,5.308C62.959,1.208 49.659,4.208 44.859,14.708L47.459,14.708C42.959,7.708 37.259,-0.292 27.859,0.008C24.559,0.108 21.559,1.508 19.359,3.908C16.759,6.908 14.559,9.308 10.259,8.008C6.959,7.008 4.559,3.908 2.359,1.308C1.259,-0.092 -0.841,2.008 0.359,3.508Z" style="fill:rgb(255,179,80);fill-rule:nonzero;"/>
            </g>
        </g>
    </g>
    <g transform="matrix(0.72,0,0,0.72,357.655,335.258)">
        <g id="group42">
            <g id="group43">
                <path id="shape29" d="M8.457,21.864C7.157,19.264 5.657,16.564 4.457,13.864C3.157,11.064 3.757,9.964 5.457,7.564C7.657,4.464 11.057,1.664 14.958,3.764C17.758,5.264 19.558,8.664 20.358,11.564C21.758,16.464 20.558,23.464 14.858,25.064C10.158,26.364 4.057,23.464 4.257,18.064C4.257,16.164 1.257,16.164 1.257,18.064C1.057,24.764 7.757,28.964 13.958,28.264C21.558,27.364 24.758,19.364 23.658,12.564C22.558,5.964 16.458,-2.436 8.857,0.664C5.157,2.164 2.357,6.064 0.657,9.564C-0.343,11.664 -0.143,11.764 0.857,13.864C2.457,17.064 4.057,20.264 5.657,23.364C6.757,25.064 9.357,23.564 8.457,21.864Z" style="fill:rgb(115,200,169);fill-rule:nonzero;"/>
            </g>
        </g>
    </g>
    <g transform="matrix(0.72,0,0,0.72,364.754,347.601)">
        <g id="group44">
            <g id="group45">
                <path id="shape30" d="M9.697,24.32C5.897,19.82 -0.603,11.02 4.997,5.42C8.997,1.42 16.197,2.92 19.497,6.92C22.897,11.02 23.597,19.02 18.297,22.02C13.797,24.62 7.297,22.12 6.497,16.92C6.197,15.02 3.297,15.82 3.597,17.72C4.797,24.52 13.097,27.72 19.097,25.02C26.397,21.62 26.697,11.52 22.397,5.62C18.297,-0.08 9.297,-2.08 3.697,2.62C-4.403,9.32 2.597,20.32 7.697,26.32C8.797,27.92 10.897,25.82 9.697,24.32Z" style="fill:rgb(255,106,90);fill-rule:nonzero;"/>
            </g>
        </g>
    </g>
    <g transform="matrix(0.72,0,0,0.72,795.31,195.818)">
        <g id="group46">
            <g id="group47">
                <path id="shape31" d="M3.002,32.73C3.102,23.93 15.202,26.53 20.402,27.13C24.902,27.63 29.002,27.03 33.002,24.83C37.402,22.53 41.002,18.93 45.302,16.43C48.102,14.73 51.502,13.23 54.802,13.23C58.302,13.33 60.502,15.43 63.602,16.73C70.802,19.63 75.402,12.93 79.902,8.53C88.802,-0.17 101.502,3.43 111.902,7.03C113.702,7.63 114.502,4.73 112.702,4.13C103.402,0.93 91.602,-2.57 82.402,2.73C78.002,5.23 75.402,9.83 71.402,12.73C65.702,16.83 60.902,10.33 54.902,10.23C42.002,10.03 35.202,24.93 22.202,24.23C16.602,23.93 11.202,21.83 5.802,24.33C2.302,25.93 0.102,28.73 0.002,32.63C-0.098,34.63 2.902,34.63 3.002,32.73Z" style="fill:rgb(115,200,169);fill-rule:nonzero;"/>
            </g>
        </g>
    </g>
    <g transform="matrix(0.72,0,0,0.72,849.344,200.636)">
        <g id="group48">
            <g id="group49">
                <path id="shape32" d="M2.756,22.639C9.156,13.539 21.156,9.139 31.956,12.239C36.656,13.639 41.056,17.439 46.256,17.139C50.556,16.839 52.856,13.339 55.756,10.639C60.456,6.339 66.556,2.839 73.156,3.039C77.156,3.139 80.256,4.639 83.356,7.239C84.356,8.139 85.156,8.939 86.556,9.339C88.556,9.839 90.356,8.939 92.156,8.139C95.256,6.739 98.456,5.539 101.756,4.639C108.556,2.939 115.456,2.639 122.356,3.539C124.256,3.739 124.256,0.739 122.356,0.539C115.756,-0.361 109.156,-0.161 102.656,1.339C99.756,2.039 96.856,2.939 94.056,4.039C91.856,4.939 90.756,5.539 88.256,5.539C85.556,5.539 85.756,5.139 83.956,3.739C75.456,-2.761 64.056,0.239 56.356,6.339C54.256,7.939 52.556,10.139 50.556,11.739C45.756,15.539 41.956,13.139 37.056,10.939C32.856,9.039 28.456,8.139 23.856,8.339C14.356,8.739 5.756,13.439 0.356,21.139C-0.944,22.739 1.656,24.239 2.756,22.639Z" style="fill:rgb(115,200,169);fill-rule:nonzero;"/>
            </g>
        </g>
    </g>
    <g id="shape33" transform="matrix(0.72,0,0,0.72,656.911,695.808)">
        <path d="M52.524,5.6C54.424,17.6 56.324,29.7 58.124,41.7C18.624,54.5 -0.776,62.6 0.024,66C1.024,70.2 32.624,67.1 94.824,57C91.224,38 87.724,19 84.124,0C73.524,1.8 63.024,3.7 52.524,5.6Z" style="fill-rule:nonzero;"/>
    </g>
    <g id="shape34" transform="matrix(0.72,0,0,0.72,630.711,410.184)">
        <path d="M3.913,0.5C3.213,14.1 2.213,33.5 1.313,57C0.413,81.9 -0.087,94.9 0.013,110.9C0.013,117.8 0.313,145.9 3.913,182.1C6.913,212.6 11.613,258.2 28.313,314.3C34.913,336.5 45.113,366.3 61.013,400.3C68.313,401.4 76.913,402 86.713,401.6C105.113,400.7 120.013,396.2 130.313,392C127.313,382.2 123.113,368.3 118.713,351.6C112.813,329 95.813,260.9 89.213,169.4C85.913,123.4 84.713,66 90.513,0C61.713,0.1 32.813,0.3 3.913,0.5Z" style="fill:rgb(255,106,90);fill-rule:nonzero;"/>
    </g>
    <g id="shape35" transform="matrix(0.72,0,0,0.72,679.214,416.088)">
        <path d="M20.647,0C18.747,7.2 16.247,17.6 13.547,30.2C6.547,63.5 -0.653,111 0.047,191.3C0.447,240.7 3.947,309 16.747,391.5C21.747,391 26.847,390.4 32.147,389.6C43.247,387.9 53.547,385.7 62.947,383.2C58.747,369.6 52.947,349.4 46.947,324.8C25.647,237.1 19.647,162.7 18.047,113.6C17.147,84.4 17.147,45.7 20.647,0Z" style="fill:rgb(96,96,96);fill-opacity:0.09;fill-rule:nonzero;"/>
    </g>
    <g transform="matrix(0.72,0,0,0.72,690.956,411.381)">
        <g id="group50">
            <g id="group51">
                <path id="shape36" d="M4.638,1.438C-5.362,102.638 0.838,205.338 22.939,304.638C29.238,332.838 36.739,360.638 45.539,388.138C46.139,389.938 49.039,389.138 48.439,387.338C17.639,290.638 2.238,189.238 3.038,87.738C3.238,58.938 4.838,30.038 7.638,1.338C7.838,-0.462 4.838,-0.462 4.638,1.438Z" style="fill:rgb(22,22,22);fill-rule:nonzero;"/>
            </g>
        </g>
    </g>
    <g transform="matrix(0.72,0,0,0.72,630.088,475.947)">
        <g id="group52">
            <g id="group53">
                <path id="shape37" d="M0.677,1.463C-3.023,83.463 8.477,165.963 34.277,243.863C41.477,265.663 49.877,287.063 59.377,307.963C60.177,309.763 62.777,308.163 61.977,306.463C28.477,231.963 8.777,151.463 4.077,69.963C2.777,47.163 2.677,24.363 3.677,1.463C3.777,-0.537 0.777,-0.437 0.677,1.463Z" style="fill:rgb(22,22,22);fill-rule:nonzero;"/>
            </g>
        </g>
    </g>
    <g transform="matrix(0.72,0,0,0.72,673.41,690.702)">
        <g id="group54">
            <g id="group55">
                <path id="shape38" d="M0.408,10.592C3.808,14.392 11.608,13.492 16.208,13.592C23.208,13.692 30.308,12.992 37.208,11.992C44.708,10.892 52.208,9.292 59.608,7.492C63.308,6.592 71.008,6.392 72.908,2.292C73.708,0.592 71.108,-1.008 70.308,0.792C69.408,2.892 64.408,3.292 62.508,3.692C59.708,4.392 57.008,4.992 54.208,5.692C48.908,6.892 43.708,7.992 38.408,8.792C32.908,9.692 27.408,10.292 21.908,10.492C17.708,10.692 5.708,11.992 2.608,8.492C1.208,6.992 -0.892,9.192 0.408,10.592Z" style="fill:rgb(22,22,22);fill-rule:nonzero;"/>
            </g>
        </g>
    </g>
    <g id="shape39" transform="matrix(0.72,0,0,0.72,580.307,376.454)">
        <path d="M44.418,46.748C41.518,53.048 37.618,65.048 34.818,75.648C31.318,89.148 30.418,97.248 28.418,109.048C24.718,130.848 22.218,134.548 16.818,158.448C11.118,184.048 8.518,203.748 6.518,219.448C4.918,231.648 2.018,256.548 0.718,288.748C0.118,302.648 -0.182,310.848 0.118,322.148C0.918,357.648 6.618,385.148 9.118,395.948C15.818,425.648 25.618,451.048 35.418,471.648C39.918,473.948 46.718,476.848 55.318,478.748C65.918,481.048 79.518,484.048 92.518,477.448C96.118,475.648 104.318,470.648 110.518,458.848C105.718,445.748 99.818,427.148 95.118,404.348C83.518,347.748 87.718,302.948 90.618,274.748C96.018,221.448 108.418,181.448 129.718,112.448C136.918,89.248 143.318,70.448 147.718,57.948C149.218,48.048 152.718,18.348 136.818,5.948C113.518,-12.452 59.218,14.848 44.418,46.748Z" style="fill:rgb(255,106,90);fill-rule:nonzero;"/>
    </g>
    <g id="shape40" transform="matrix(0.72,0,0,0.72,629.509,448.416)">
        <path d="M65.282,0C58.782,10.3 49.782,25.6 40.882,44.9C29.882,68.7 13.682,110.5 4.982,193.8C0.182,239.3 -3.018,303 4.382,379.9C7.482,380.2 20.682,381.3 31.982,372.2C37.782,367.5 40.782,362.1 42.282,358.7C37.382,345.2 31.082,325.4 26.282,300.9C12.082,229.5 20.982,172.1 27.582,132.1C32.982,98.7 43.482,52.6 65.282,0Z" style="fill:rgb(96,96,96);fill-opacity:0.08;fill-rule:nonzero;"/>
    </g>
    <g id="shape41" transform="matrix(0.72,0,0,0.72,574.04,719.784)">
        <path d="M68.822,1.7C72.222,13.9 75.622,26.2 79.022,38.4C25.422,54.7 -0.878,64.9 0.022,68.9C1.022,73.5 37.522,70.1 109.522,58.7C107.622,39.1 105.722,19.6 103.922,0C92.122,0.5 80.422,1.1 68.822,1.7Z" style="fill-rule:nonzero;"/>
    </g>
    <g transform="matrix(0.72,0,0,0.72,579.524,410.245)">
        <g id="group56">
            <g id="group57">
                <path id="shape42" d="M44.406,1.015C33.806,27.815 28.406,56.215 22.706,84.415C16.706,113.915 10.906,143.415 6.706,173.215C-1.094,228.415 -3.494,284.915 7.206,339.915C12.906,369.515 22.506,398.315 36.606,424.915C37.506,426.615 40.106,425.115 39.206,423.415C-14.294,321.715 1.906,202.715 23.706,94.815C30.006,63.515 35.606,31.615 47.406,1.815C48.006,0.015 45.106,-0.785 44.406,1.015Z" style="fill:rgb(22,22,22);fill-rule:nonzero;"/>
            </g>
        </g>
    </g>
    <g transform="matrix(0.72,0,0,0.72,641.99,447.516)">
        <g id="group58">
            <g id="group59">
                <path id="shape43" d="M46.647,1.05C13.147,90.35 -9.253,186.35 3.747,282.05C7.347,308.45 13.647,334.35 22.847,359.35C23.547,361.15 26.447,360.35 25.747,358.55C-7.553,268.65 -0.753,170.05 24.247,78.95C31.447,52.85 40.047,27.15 49.547,1.75C50.247,-0.05 47.347,-0.75 46.647,1.05Z" style="fill:rgb(22,22,22);fill-rule:nonzero;"/>
            </g>
        </g>
    </g>
    <g transform="matrix(0.72,0,0,0.72,605.56,705.078)">
        <g id="group60">
            <g id="group61">
                <path id="shape44" d="M0.745,15.325C14.845,23.125 31.045,26.425 47.045,24.325C60.145,22.525 75.345,16.525 76.645,1.425C76.845,-0.475 73.845,-0.475 73.645,1.425C72.245,17.125 53.245,21.325 40.345,21.925C27.045,22.525 13.945,19.225 2.345,12.725C0.545,11.825 -0.955,14.425 0.745,15.325Z" style="fill:rgb(22,22,22);fill-rule:nonzero;"/>
            </g>
        </g>
    </g>
    <g id="shape45" transform="matrix(0.72,0,0,0.72,607.536,208.835)">
        <path d="M27.2,18.951C24.5,22.151 20.7,27.051 17.1,33.551C4.8,55.151 4,76.351 3.8,94.951C3.6,122.051 3.4,135.651 6.3,165.151C9,192.751 9.7,232.351 0,282.851C8.7,289.251 21.4,296.651 38,300.551C85.8,311.751 125.4,283.851 132.9,278.451C123.4,222.751 118.2,178.151 115.2,146.851C113.3,127.051 106.3,98.251 92.4,40.551C88.2,22.951 83.9,6.151 70.9,1.351C52.9,-5.449 30.8,15.451 27.2,18.951Z" style="fill:rgb(173,77,111);fill-rule:nonzero;"/>
    </g>
    <g id="shape46" transform="matrix(0.72,0,0,0.72,658.224,210.816)">
        <path d="M0,0C1.6,6.5 3.9,16.3 6.2,28.4C9.2,44 13.2,67.6 16,102.7C18.9,138.9 22.2,206.8 23.2,294.6C30,292.6 38.2,289.6 46.9,284.8C52.7,281.6 57.7,278.2 61.9,275C61.2,267.3 59.9,255.6 57.8,241.5C55.1,223.8 52.4,211.5 51.1,205.4C47.9,189.6 44.3,166 43.9,133.2C39.8,115.8 36.7,101.8 34.6,92.5C28.8,66.1 27.1,56.4 22.7,40.4C18.3,24.3 13.7,11.5 10.8,3.8C7.2,2.4 3.6,1.2 0,0Z" style="fill:rgb(96,96,96);fill-opacity:0.1;fill-rule:nonzero;"/>
    </g>
    <g id="shape47" transform="matrix(0.72,0,0,0.72,626.539,222.882)">
        <path d="M0.706,9.042C1.606,10.842 3.106,11.442 6.406,13.042C9.206,14.442 11.906,16.142 14.706,17.342C23.306,21.042 33.406,37.442 35.006,40.042C41.106,49.942 48.206,61.542 52.306,78.342C53.406,82.742 55.906,94.142 53.006,132.642C49.906,172.142 45.906,177.642 49.006,197.342C51.306,211.642 54.206,228.742 68.306,238.042C81.406,246.642 96.506,243.642 99.606,243.042C118.606,239.342 129.406,224.642 139.906,210.342C155.906,188.642 162.006,166.942 164.606,154.342C165.806,148.442 165.606,131.142 165.306,96.642C164.906,61.042 164.306,48.742 155.006,38.342C148.706,31.342 141.006,28.042 135.706,26.342C136.106,24.142 136.206,20.842 134.406,18.042C131.006,12.842 122.906,12.942 117.706,13.042C95.406,13.642 78.806,28.642 78.006,29.342C64.106,42.242 60.006,58.042 58.706,64.642C55.906,52.242 51.306,42.742 47.706,36.642C44.606,31.342 40.006,25.942 30.706,14.942C23.406,6.342 19.906,3.042 14.406,1.242C13.206,0.842 4.106,-1.858 1.106,2.242C-0.294,4.142 -0.294,7.042 0.706,9.042Z" style="fill:rgb(178,158,121);fill-rule:nonzero;"/>
    </g>
    <g id="shape48" transform="matrix(0.72,0,0,0.72,626.519,226.528)">
        <path d="M0.035,0.278C0.635,-0.822 7.335,1.678 8.035,1.978C17.935,5.778 26.735,13.678 38.035,31.978C43.835,41.378 51.135,54.678 57.335,71.978C61.735,67.478 65.435,63.778 68.335,60.978C68.335,60.978 79.035,50.678 96.335,40.678C98.035,39.678 100.135,38.478 101.635,39.378C104.735,41.078 101.435,49.378 102.335,57.078C103.035,62.878 106.435,70.878 119.335,79.778C119.635,81.478 119.735,83.878 118.335,85.478C115.535,88.578 108.335,86.078 104.635,84.778C98.635,82.678 87.035,77.178 73.335,61.078C72.035,66.278 70.335,73.678 69.035,82.778C67.835,90.678 64.535,116.978 70.035,150.778C72.235,164.178 76.335,182.078 84.735,202.478C88.435,204.078 93.135,205.578 98.735,206.478C110.435,208.278 120.135,205.978 125.735,204.178C122.435,205.778 117.935,208.478 114.035,213.178C109.335,218.878 109.235,223.178 105.335,228.478C102.735,232.078 98.035,236.578 89.335,239.778C86.635,239.478 82.535,238.778 78.035,236.778C64.335,230.678 58.135,217.778 55.335,211.778C51.635,203.678 45.935,187.278 51.335,131.778C54.435,100.078 57.835,90.178 52.635,72.078C48.635,58.178 41.735,46.678 39.335,42.778C35.035,35.778 27.335,23.278 13.335,11.778C6.735,6.178 -0.565,1.578 0.035,0.278Z" style="fill:rgb(96,96,96);fill-opacity:0.11;fill-rule:nonzero;"/>
    </g>
    <g id="shape49" transform="matrix(0.72,0,0,0.72,700.492,236.16)">
        <path d="M8.795,9.3C6.995,11.7 4.695,15.2 2.895,19.8C1.895,22.5 -0.505,28.8 0.095,36.8C1.195,52.7 12.595,62.4 14.695,64.1C16.095,65.2 17.295,66.1 18.095,66.6C16.895,70.7 15.495,76.8 14.995,84.3C14.195,94.9 13.395,106.8 19.595,110.3C23.595,112.5 29.595,111 32.895,107.8C33.695,107 35.995,104.5 36.595,93.2C37.295,79.8 34.495,74.2 38.495,70.3C40.195,68.5 43.095,67.4 45.595,66.3C48.395,65.1 50.895,64.5 52.695,64.1C51.595,72.3 50.795,79.6 50.195,85.5C49.495,92.8 49.195,96.5 51.695,98.8C53.995,100.9 57.795,101.3 60.695,100C64.495,98.3 65.695,93.6 67.795,84.2C69.495,76.8 70.895,70.6 69.995,62.2C69.495,57.9 68.595,54.4 67.795,52C67.595,50.3 67.095,47.8 66.295,44.9C64.595,39.1 62.995,37.4 61.995,33.7C60.495,28.4 62.195,25.8 62.595,19.8C62.995,15.1 62.595,8.4 59.195,0C57.895,0.1 55.195,0.3 52.395,2.2C48.995,4.4 47.595,7.6 47.095,8.7C44.495,8.1 39.795,7.5 34.395,9C25.095,11.5 20.195,18.4 18.895,20.5C21.495,14.8 19.295,9.2 15.795,7.8C12.795,6.5 9.195,9.1 8.795,9.3Z" style="fill-rule:nonzero;"/>
    </g>
    <g transform="matrix(0.72,0,0,0.72,712.954,260.314)">
        <g id="group62">
            <g id="group63">
                <path id="shape50" d="M2.787,6.753C3.787,4.853 8.787,0.653 10.487,4.153C11.287,5.853 13.887,4.353 13.087,2.653C11.987,0.353 9.287,-0.347 6.887,0.153C3.987,0.653 1.587,2.653 0.187,5.253C-0.713,6.953 1.887,8.453 2.787,6.753Z" style="fill:white;fill-rule:nonzero;"/>
            </g>
        </g>
    </g>
    <g transform="matrix(0.72,0,0,0.72,734.075,253.834)">
        <g id="group64">
            <g id="group65">
                <path id="shape51" d="M2.751,8.053C3.351,6.753 3.951,5.253 4.951,4.253C5.951,3.253 8.951,2.153 9.051,4.453C9.151,6.353 12.151,6.353 12.051,4.453C11.851,1.553 9.351,-0.347 6.451,0.053C3.151,0.653 1.451,3.653 0.151,6.453C-0.649,8.253 1.951,9.853 2.751,8.053Z" style="fill:white;fill-rule:nonzero;"/>
            </g>
        </g>
    </g>
    <g transform="matrix(0.72,0,0,0.72,734.554,265.065)">
        <g id="group66">
            <g id="group67">
                <path id="shape52" d="M2.887,1.955L2.887,2.255C2.687,2.455 2.487,2.655 2.387,2.755C1.887,3.055 1.087,2.755 1.187,2.155C1.187,2.155 1.187,1.855 1.287,1.955L0.987,2.255L3.087,2.255C2.987,2.155 2.987,2.155 2.887,2.055L2.987,2.155C2.887,2.055 2.987,2.055 2.987,2.255C3.087,2.855 2.787,3.255 1.987,3.555C1.687,3.455 1.487,3.455 1.187,3.355C0.787,3.155 0.887,2.555 0.987,2.255C1.087,2.155 0.987,2.155 0.887,2.355C0.987,2.255 0.987,2.255 0.887,2.355C0.187,2.855 -0.113,3.655 0.387,4.455C0.787,5.055 1.787,5.455 2.487,4.955C3.187,4.455 3.887,3.755 3.987,2.755C3.987,1.655 3.187,0.655 2.087,0.655C0.987,0.655 0.187,1.355 0.087,2.455C-0.013,3.255 0.487,3.955 0.987,4.455C1.587,5.055 2.487,4.955 3.087,4.455C4.387,3.455 4.687,1.355 3.187,0.355C2.487,-0.045 1.587,-0.145 0.887,0.255C-0.013,0.755 -0.113,1.955 0.087,2.855C0.187,3.655 1.187,4.055 1.887,3.855C2.687,3.555 2.987,2.755 2.887,1.955Z" style="fill:white;fill-rule:nonzero;"/>
            </g>
        </g>
    </g>
    <g transform="matrix(0.72,0,0,0.72,716.785,266.843)">
        <g id="group68">
            <g id="group69">
                <path id="shape53" d="M11.566,2.584C8.666,4.284 4.766,3.484 2.866,0.684C1.766,-0.916 -0.834,0.584 0.266,2.184C3.166,6.284 8.666,7.684 13.166,5.184C14.766,4.184 13.266,1.584 11.566,2.584Z" style="fill:white;fill-rule:nonzero;"/>
            </g>
        </g>
    </g>
    <g transform="matrix(0.72,0,0,0.72,719.506,273.086)">
        <g id="group70">
            <g id="group71">
                <path id="shape54" d="M5.587,0.413C3.387,2.113 1.487,4.313 0.187,6.813C-0.713,8.513 1.887,10.013 2.787,8.313C3.987,6.013 5.687,4.113 7.787,2.513C8.387,2.013 8.287,0.913 7.787,0.413C7.087,-0.187 6.187,-0.087 5.587,0.413Z" style="fill:white;fill-rule:nonzero;"/>
            </g>
        </g>
    </g>
    <g transform="matrix(0.72,0,0,0.72,739.254,258.541)">
        <g id="group72">
            <g id="group73">
                <path id="shape55" d="M2.458,9.615C4.458,7.315 5.958,4.715 6.958,1.815C7.558,0.015 4.658,-0.785 4.058,1.015C3.258,3.415 1.958,5.615 0.358,7.515C-0.842,9.015 1.258,11.115 2.458,9.615Z" style="fill:white;fill-rule:nonzero;"/>
            </g>
        </g>
    </g>
    <g transform="matrix(0.72,0,0,0.72,739.794,265.738)">
        <g id="group74">
            <g id="group75">
                <path id="shape56" d="M1.909,3.42C4.309,2.92 7.109,2.32 9.009,4.32C10.309,5.72 12.409,3.62 11.109,2.22C8.409,-0.68 4.509,-0.18 1.009,0.62C-0.791,0.92 0.009,3.82 1.909,3.42Z" style="fill:white;fill-rule:nonzero;"/>
            </g>
        </g>
    </g>
    <g transform="matrix(0.72,0,0,0.72,624.15,222.625)">
        <g id="group76">
            <g id="group77">
                <path id="shape57" d="M2.825,7.099C7.425,-0.101 18.325,4.199 23.825,7.799C30.425,11.999 35.425,18.299 39.925,24.599C49.025,37.299 57.125,51.099 60.125,66.599C60.525,68.499 63.425,67.699 63.025,65.799C59.525,47.299 48.725,29.499 36.525,15.299C29.425,7.099 9.325,-8.401 0.225,5.699C-0.775,7.199 1.825,8.799 2.825,7.099Z" style="fill:rgb(22,22,22);fill-rule:nonzero;"/>
            </g>
        </g>
    </g>
    <g transform="matrix(0.72,0,0,0.72,630.11,230.598)">
        <g id="group78">
            <g id="group79">
                <path id="shape58" d="M0.748,2.825C24.748,16.325 38.248,41.625 45.048,67.425C45.548,69.325 48.448,68.525 47.948,66.625C40.948,40.125 26.848,14.025 2.248,0.225C0.548,-0.775 -0.952,1.825 0.748,2.825Z" style="fill:rgb(22,22,22);fill-rule:nonzero;"/>
            </g>
        </g>
    </g>
    <g transform="matrix(0.72,0,0,0.72,667.485,231.36)">
        <g id="group80">
            <g id="group81">
                <path id="shape59" d="M2.838,53.166C5.338,35.466 16.638,20.666 32.138,12.166C40.138,7.766 49.038,5.066 58.138,3.766C62.438,3.166 67.438,2.566 71.638,4.166C76.238,5.866 80.638,13.166 74.838,16.466C73.138,17.366 74.638,19.966 76.338,19.066C82.738,15.466 81.138,6.266 75.538,2.766C66.838,-2.734 52.438,1.166 43.538,4.166C21.538,11.266 3.338,29.066 0.038,52.566C-0.362,54.266 2.538,55.066 2.838,53.166Z" style="fill:rgb(22,22,22);fill-rule:nonzero;"/>
            </g>
        </g>
    </g>
    <g transform="matrix(0.72,0,0,0.72,672.545,253.053)">
        <g id="group82">
            <g id="group83">
                <path id="shape60" d="M2.509,27.538C7.409,21.838 13.609,17.038 19.609,12.538C25.409,8.138 31.609,4.538 38.809,2.938C40.709,2.538 39.909,-0.362 38.009,0.038C30.609,1.738 24.109,5.438 18.109,9.938C11.909,14.638 5.509,19.538 0.409,25.438C-0.891,26.838 1.209,29.038 2.509,27.538Z" style="fill:rgb(22,22,22);fill-rule:nonzero;"/>
            </g>
        </g>
    </g>
    <g transform="matrix(0.72,0,0,0.72,698.795,240.169)">
        <g id="group84">
            <g id="group85">
                <path id="shape61" d="M2.751,21.132C4.851,16.332 7.551,11.732 10.851,7.632C11.451,6.932 12.151,5.732 12.951,5.232C13.651,3.932 14.551,3.832 15.851,5.032C17.451,5.032 18.151,5.632 18.151,7.032C19.251,9.132 19.351,12.732 19.751,15.132C20.151,17.032 23.051,16.232 22.651,14.332C21.851,10.532 20.851,-3.068 13.651,0.632C10.851,2.032 8.751,5.532 6.951,7.932C4.251,11.632 2.051,15.532 0.151,19.632C-0.649,21.332 1.951,22.932 2.751,21.132Z" style="fill:rgb(22,22,22);fill-rule:nonzero;"/>
            </g>
        </g>
    </g>
    <g transform="matrix(0.72,0,0,0.72,712.866,240.845)">
        <g id="group86">
            <g id="group87">
                <path id="shape62" d="M2.509,15.093C7.609,8.493 18.009,-0.607 26.909,4.293C28.609,5.193 30.109,2.593 28.409,1.693C18.109,-3.807 6.509,5.193 0.309,12.993C-0.791,14.493 1.309,16.593 2.509,15.093Z" style="fill:rgb(22,22,22);fill-rule:nonzero;"/>
            </g>
        </g>
    </g>
    <g transform="matrix(0.72,0,0,0.72,732.336,235.153)">
        <g id="group88">
            <g id="group89">
                <path id="shape63" d="M2.766,11.698C4.166,9.498 10.666,1.598 13.466,3.698C14.966,4.798 15.266,8.698 15.666,10.498C16.266,13.298 16.466,16.098 16.566,18.998C16.666,20.898 19.666,20.898 19.566,18.998C19.466,14.998 18.966,11.098 17.966,7.198C17.366,4.998 16.866,0.798 14.266,0.098C11.866,-0.502 8.566,1.798 6.766,3.098C4.066,4.998 1.966,7.398 0.266,10.198C-0.834,11.798 1.766,13.298 2.766,11.698Z" style="fill:rgb(22,22,22);fill-rule:nonzero;"/>
            </g>
        </g>
    </g>
    <g transform="matrix(0.72,0,0,0.72,676.827,267.545)">
        <g id="group90">
            <g id="group91">
                <path id="shape64" d="M0.463,2.509C7.363,9.209 14.663,15.409 22.463,21.009C30.163,26.509 37.663,30.409 47.363,29.909C49.263,29.809 49.263,26.809 47.363,26.909C37.463,27.409 30.163,23.009 22.463,17.409C15.363,12.209 8.763,6.509 2.463,0.409C1.163,-0.891 -0.937,1.209 0.463,2.509Z" style="fill:rgb(22,22,22);fill-rule:nonzero;"/>
            </g>
        </g>
    </g>
    <g transform="matrix(0.72,0,0,0.72,660.017,275.425)">
        <g id="group92">
            <g id="group93">
                <path id="shape65" d="M3.609,1.865C14.509,50.265 -13.891,103.165 9.609,149.465C14.009,158.165 20.709,166.065 29.909,169.965C38.909,173.765 49.309,173.465 58.609,170.465C79.209,163.865 92.509,144.765 102.709,126.765C109.209,115.465 114.609,103.365 117.809,90.665C119.409,84.365 120.409,77.765 120.709,71.265C121.009,63.765 120.009,56.265 120.309,48.765C120.409,46.865 117.409,46.865 117.309,48.765C116.909,60.965 118.509,72.565 116.109,84.665C114.009,95.465 110.109,105.965 105.209,115.765C96.109,134.165 83.809,154.865 64.909,164.565C55.109,169.565 43.009,171.465 32.509,167.565C22.209,163.765 15.409,154.665 11.009,144.965C1.609,123.865 2.709,99.865 5.209,77.465C8.009,52.065 12.409,26.365 6.709,0.965C6.009,-0.735 3.109,-0.035 3.609,1.865Z" style="fill:rgb(22,22,22);fill-rule:nonzero;"/>
            </g>
        </g>
    </g>
    <g transform="matrix(0.72,0,0,0.72,686.792,348.347)">
        <g id="group94">
            <g id="group95">
                <path id="shape66" d="M10.922,0.684C5.322,10.484 1.622,21.084 0.022,32.284C-0.278,34.184 2.622,34.984 2.922,33.084C4.522,22.084 8.022,11.784 13.522,2.184C14.522,0.584 11.922,-0.916 10.922,0.684Z" style="fill:rgb(22,22,22);fill-rule:nonzero;"/>
            </g>
        </g>
    </g>
    <g transform="matrix(0.72,0,0,0.72,694.998,345.297)">
        <g id="group96">
            <g id="group97">
                <path id="shape67" d="M1.425,6.02C16.225,4.72 31.825,1.92 46.625,3.52C48.525,3.72 48.525,0.72 46.625,0.52C31.825,-1.18 16.225,1.72 1.425,3.02C-0.475,3.22 -0.475,6.22 1.425,6.02Z" style="fill:rgb(22,22,22);fill-rule:nonzero;"/>
            </g>
        </g>
    </g>
    <g transform="matrix(0.72,0,0,0.72,687.395,369.99)">
        <g id="group98">
            <g id="group99">
                <path id="shape68" d="M0.684,4.925C7.984,9.225 16.484,8.825 24.684,8.625C33.284,8.325 41.884,7.325 49.384,2.825C51.084,1.825 49.484,-0.775 47.884,0.225C40.784,4.525 32.784,5.325 24.684,5.625C17.084,5.925 9.084,6.425 2.184,2.425C0.584,1.425 -0.916,4.025 0.684,4.925Z" style="fill:rgb(22,22,22);fill-rule:nonzero;"/>
            </g>
        </g>
    </g>
    <g transform="matrix(0.72,0,0,0.72,721.218,346.546)">
        <g id="group100">
            <g id="group101">
                <path id="shape69" d="M8.808,1.086C6.908,12.086 4.008,22.686 0.108,33.086C-0.592,34.886 2.308,35.686 3.008,33.886C7.008,23.486 9.908,12.786 11.708,1.886C12.008,-0.014 9.108,-0.814 8.808,1.086Z" style="fill:rgb(22,22,22);fill-rule:nonzero;"/>
            </g>
        </g>
    </g>
    <g transform="matrix(0.72,0,0,0.72,693.971,350.91)">
        <g id="group102">
            <g id="group103">
                <path id="shape70" d="M0.151,2.325C5.051,13.125 18.951,15.825 29.651,15.925C31.551,15.925 31.551,12.925 29.651,12.925C20.051,12.725 7.151,10.525 2.751,0.725C1.951,-0.975 -0.649,0.625 0.151,2.325Z" style="fill:rgb(22,22,22);fill-rule:nonzero;"/>
            </g>
        </g>
    </g>
    <g transform="matrix(0.72,0,0,0.72,708.977,358.542)">
        <g id="group104">
            <g id="group105">
                <path id="shape71" d="M0.91,1.425C0.61,3.925 0.31,6.425 0.01,8.825C-0.19,10.725 2.81,10.725 3.01,8.825C3.31,6.325 3.61,3.825 3.91,1.425C4.11,-0.475 1.11,-0.475 0.91,1.425Z" style="fill:rgb(22,22,22);fill-rule:nonzero;"/>
            </g>
        </g>
    </g>
    <g transform="matrix(0.72,0,0,0.72,713.153,358.542)">
        <g id="group106">
            <g id="group107">
                <path id="shape72" d="M0.81,1.425C0.51,3.925 0.21,6.425 0.01,8.925C-0.19,10.825 2.81,10.825 3.01,8.925C3.31,6.425 3.61,3.925 3.81,1.425C4.01,-0.475 1.01,-0.475 0.81,1.425Z" style="fill:rgb(22,22,22);fill-rule:nonzero;"/>
            </g>
        </g>
    </g>
    <g transform="matrix(0.72,0,0,0.72,714.25,352.19)">
        <g id="group108">
            <g id="group109">
                <path id="shape73" d="M1.886,14.448C8.986,12.848 14.886,8.448 18.586,2.248C19.586,0.548 16.986,-0.952 15.986,0.748C12.586,6.348 7.386,10.048 1.086,11.548C-0.814,12.048 -0.014,14.948 1.886,14.448Z" style="fill:rgb(22,22,22);fill-rule:nonzero;"/>
            </g>
        </g>
    </g>
    <g transform="matrix(0.72,0,0,0.72,699.136,250.714)">
        <g id="group110">
            <g id="group111">
                <path id="shape74" d="M0.978,1.086C-2.022,18.786 1.278,39.886 19.378,47.986C21.078,48.786 22.678,46.186 20.878,45.386C3.978,37.786 1.078,18.286 3.878,1.886C4.178,-0.014 1.278,-0.814 0.978,1.086Z" style="fill:rgb(22,22,22);fill-rule:nonzero;"/>
            </g>
        </g>
    </g>
    <g transform="matrix(0.72,0,0,0.72,744.118,246.951)">
        <g id="group112">
            <g id="group113">
                <path id="shape75" d="M0.002,1.513C0.202,7.213 0.102,13.013 0.902,18.613C1.702,24.713 7.202,31.513 4.302,37.613C3.502,39.313 6.102,40.913 6.902,39.113C9.502,33.613 7.202,29.013 5.302,23.613C2.802,16.713 3.402,8.713 3.102,1.413C2.902,-0.487 -0.098,-0.487 0.002,1.513Z" style="fill:rgb(22,22,22);fill-rule:nonzero;"/>
            </g>
        </g>
    </g>
    <g transform="matrix(0.72,0,0,0.72,718.585,282.558)">
        <g id="group114">
            <g id="group115">
                <path id="shape76" d="M0.566,1.658C4.966,-0.642 9.966,1.758 10.966,6.558C11.066,7.058 11.766,6.858 11.666,6.358C10.466,1.058 4.966,-1.542 0.166,0.958C-0.234,1.258 0.166,1.958 0.566,1.658Z" style="fill:white;fill-rule:nonzero;"/>
            </g>
        </g>
    </g>
    <g transform="matrix(0.72,0,0,0.72,724.368,286.968)">
        <g id="group116">
            <g id="group117">
                <path id="shape77" d="M0.133,0.633C0.833,1.433 1.333,2.333 1.633,3.333C1.833,3.833 2.533,3.633 2.333,3.133C1.933,2.033 1.333,1.033 0.633,0.133C0.333,-0.267 -0.267,0.333 0.133,0.633Z" style="fill:white;fill-rule:nonzero;"/>
            </g>
        </g>
    </g>
    <g transform="matrix(0.72,0,0,0.72,738.425,275.131)">
        <g id="group118">
            <g id="group119">
                <path id="shape78" d="M0.71,10.074C1.61,5.974 4.21,2.574 8.01,0.674C8.41,0.474 8.11,-0.226 7.61,0.074C3.61,1.974 0.91,5.574 0.01,9.874C-0.09,10.374 0.61,10.574 0.71,10.074Z" style="fill:white;fill-rule:nonzero;"/>
            </g>
        </g>
    </g>
    <g id="shape79" transform="matrix(0.72,0,0,0.72,584.856,127.257)">
        <path d="M37.9,3.455C31,6.955 25.2,13.555 22.6,16.455C16.2,23.755 12.9,30.555 9.3,38.155C6.3,44.355 2.8,53.155 0,64.155C3.9,64.855 7.8,65.455 11.7,66.155C11.5,69.955 11.5,75.555 13,82.155C14.4,88.155 16.7,97.755 24.7,104.455C35.7,113.855 50.3,111.555 53,111.155C53.2,115.855 54.2,122.555 58,129.455C59,131.155 60,132.755 61,134.155C66.5,132.555 75,129.255 83.3,122.455C104.5,105.355 107.4,79.855 108.3,72.455C109.6,61.055 112.1,39.555 98,21.755C83.3,3.355 55.4,-5.345 37.9,3.455Z" style="fill:rgb(142,106,73);fill-rule:nonzero;"/>
    </g>
    <g id="shape80" transform="matrix(0.72,0,0,0.72,588.672,114.536)">
        <path d="M12.1,41.923C14.9,37.722 20.3,31.523 26.4,27.223C36.2,20.323 40.6,23.223 45.6,17.123C49.2,12.723 51.5,5.523 48.8,2.123C44.5,-3.277 29.2,3.223 27.2,4.123C22.8,6.023 8.3,12.123 2.5,27.523C-2.3,40.423 0.9,54.523 3.1,54.823C3.7,54.923 4.1,53.923 7.3,49.023C8.8,46.523 10.5,44.222 12.1,41.923Z" style="fill:rgb(115,200,169);fill-rule:nonzero;"/>
    </g>
    <g id="shape81" transform="matrix(0.72,0,0,0.72,612.495,111.286)">
        <path d="M0.813,16.336C0.013,18.936 -1.187,24.136 2.813,34.336C9.913,52.636 26.513,69.036 34.813,66.036C36.613,65.336 38.513,63.536 42.113,63.336C43.013,63.336 46.613,63.136 49.413,65.336C53.813,68.836 54.013,76.436 51.113,81.336C50.613,82.236 47.913,86.336 43.813,86.636C40.213,86.936 39.013,84.136 36.113,83.936C29.013,83.536 22.913,99.136 22.113,101.236C20.513,105.236 16.613,115.636 19.413,128.936C20.013,131.836 21.413,137.936 25.713,144.236C35.013,157.736 50.613,161.036 56.413,162.236C62.113,163.436 83.813,167.936 100.713,153.936C103.413,151.736 112.313,144.136 114.713,131.236C118.813,109.436 100.513,93.136 99.413,92.236C98.613,80.936 95.913,62.936 86.413,43.236C80.413,30.736 74.813,19.236 62.113,10.536C45.413,-0.764 21.113,-3.964 8.413,5.836C7.113,7.036 2.813,10.436 0.813,16.336Z" style="fill:rgb(115,200,169);fill-rule:nonzero;"/>
    </g>
    <g id="shape82" transform="matrix(0.72,0,0,0.72,594.489,200.304)">
        <path d="M6.821,0C5.321,1.5 0.921,6.1 0.121,13.3C-0.979,23.3 5.721,30.2 7.121,31.6C14.421,39.1 26.621,42.1 35.421,37.6C36.121,37.3 43.821,33.2 44.121,27.3C44.221,24.7 42.821,23.4 40.821,17.6C39.521,13.8 38.721,10.7 38.121,8.6C35.421,9.5 30.821,10.7 25.121,9.9C14.921,8.6 8.621,2 6.821,0Z" style="fill:rgb(115,200,169);fill-rule:nonzero;"/>
    </g>
    <g id="shape83" transform="matrix(0.72,0,0,0.72,613.8,129.384)">
        <path d="M0,0C0.1,3.1 0.5,7.7 2.6,12.6C4,15.9 5.4,17.9 6.5,19.5C10.7,25.9 12.1,31.9 14.3,38.6C17.8,49 17.2,57.7 16.5,68.5C15.9,77.5 13.9,91.2 7.4,107.1C10.1,107.9 14,109.5 18.2,112.3C25.9,117.5 29.4,123.7 31.6,126.6C36.1,132.5 46.1,138.7 70.2,138.3C67.8,135.9 64.4,132.3 60.7,127.9C52,117.7 44.4,108.8 39.9,98C37.3,91.8 33.3,79.1 36.4,60.7C39.2,62.1 42.5,62 45.1,60.3C47.8,58.5 49.5,54.9 48.6,51.6C47.5,47.8 42.9,45.2 38.2,46.4C37.2,43.9 35.6,40.3 33,36.4C28.9,30.3 24.6,26.5 23,25.1C17.9,20.7 10.5,13.2 0,0Z" style="fill:rgb(96,96,96);fill-opacity:0.12;fill-rule:nonzero;"/>
    </g>
    <g id="shape84" transform="matrix(0.72,0,0,0.72,585.648,170.249)">
        <path d="M0,2.643C0.1,1.043 5.2,-0.257 9.5,0.043C13.3,0.343 17.8,2.043 17.7,3.543C17.6,4.943 13.4,6.043 10.3,6.143C5.5,6.343 0,4.243 0,2.643Z" style="fill:rgb(96,96,96);fill-opacity:0.14;fill-rule:nonzero;"/>
    </g>
    <g transform="matrix(0.72,0,0,0.72,583.575,144.795)">
        <g id="group120">
            <g id="group121">
                <path id="shape85" d="M15.279,0.795C9.579,13.295 4.479,25.995 0.079,38.995C-0.221,39.795 0.379,40.595 1.079,40.795C4.979,42.295 8.879,42.995 12.979,42.895C14.879,42.895 14.879,39.895 12.979,39.895C9.079,39.895 5.479,39.195 1.879,37.895C2.179,38.495 2.579,39.095 2.879,39.695C7.179,26.895 12.079,14.395 17.779,2.195C18.679,0.595 16.079,-1.005 15.279,0.795Z" style="fill:rgb(22,22,22);fill-rule:nonzero;"/>
            </g>
        </g>
    </g>
    <g transform="matrix(0.72,0,0,0.72,592.63,175.086)">
        <g id="group122">
            <g id="group123">
                <path id="shape86" d="M0.002,1.425C0.802,14.325 2.002,28.625 11.602,38.325C20.802,47.725 34.102,46.925 46.202,45.525C48.102,45.325 48.102,42.325 46.202,42.525C35.002,43.825 22.302,44.925 13.702,36.225C4.702,27.125 3.802,13.525 3.002,1.425C2.902,-0.475 -0.098,-0.475 0.002,1.425Z" style="fill:rgb(22,22,22);fill-rule:nonzero;"/>
            </g>
        </g>
    </g>
    <g transform="matrix(0.72,0,0,0.72,621.632,206.722)">
        <g id="group124">
            <g id="group125">
                <path id="shape87" d="M0.022,1.886C1.322,8.886 3.722,15.586 7.122,21.786C8.022,23.486 10.622,21.986 9.722,20.286C6.422,14.186 4.222,7.886 2.922,1.086C2.622,-0.814 -0.278,-0.014 0.022,1.886Z" style="fill:rgb(22,22,22);fill-rule:nonzero;"/>
            </g>
        </g>
    </g>
    <g transform="matrix(0.72,0,0,0.72,593.74,182.921)">
        <g id="group126">
            <g id="group127">
                <path id="shape88" d="M0.46,5.843C5.36,10.143 12.66,8.143 14.56,1.843C15.16,-0.057 12.26,-0.757 11.66,1.043C10.46,5.043 5.76,6.543 2.66,3.643C1.16,2.443 -0.94,4.543 0.46,5.843Z" style="fill:rgb(22,22,22);fill-rule:nonzero;"/>
            </g>
        </g>
    </g>
    <g transform="matrix(0.72,0,0,0.72,599.965,182.046)">
        <g id="group128">
            <g id="group129">
                <path id="shape89" d="M1.015,2.958C2.615,3.358 3.815,4.258 4.815,5.458C5.315,6.058 6.415,5.958 6.915,5.458C7.515,4.858 7.415,3.958 6.915,3.358C5.615,1.758 3.815,0.558 1.815,0.058C0.015,-0.442 -0.785,2.458 1.015,2.958Z" style="fill:rgb(22,22,22);fill-rule:nonzero;"/>
            </g>
        </g>
    </g>
    <g transform="matrix(0.72,0,0,0.72,601.893,152.88)">
        <g id="group130">
            <g id="group131">
                <path id="shape90" d="M2.838,6.067C3.638,1.867 8.838,2.667 11.638,4.167C14.038,5.467 15.738,7.567 16.738,10.067C17.438,11.867 20.338,11.067 19.638,9.267C18.038,4.967 14.738,1.567 10.138,0.367C5.938,-0.733 0.938,0.567 0.038,5.267C-0.362,7.167 2.538,7.967 2.838,6.067Z" style="fill:rgb(22,22,22);fill-rule:nonzero;"/>
            </g>
        </g>
    </g>
    <g transform="matrix(0.72,0,0,0.72,601.83,139.778)">
        <g id="group132">
            <g id="group133">
                <path id="shape91" d="M2.825,6.564C7.325,-0.936 16.125,4.864 17.925,11.164C18.425,13.064 21.325,12.264 20.825,10.364C19.525,5.764 16.325,1.464 11.425,0.264C7.025,-0.736 2.525,1.164 0.225,4.964C-0.775,6.764 1.825,8.264 2.825,6.564Z" style="fill:rgb(22,22,22);fill-rule:nonzero;"/>
            </g>
        </g>
    </g>
    <g transform="matrix(0.72,0,0,0.72,604.971,167.328)">
        <g id="group134">
            <g id="group135">
                <path id="shape92" d="M1.463,3C3.363,3 3.363,0 1.463,0C-0.437,0 -0.537,3 1.463,3Z" style="fill:rgb(22,22,22);fill-rule:nonzero;"/>
            </g>
        </g>
    </g>
    <g transform="matrix(0.72,0,0,0.72,609.048,164.088)">
        <g id="group136">
            <g id="group137">
                <path id="shape93" d="M1.5,3L1.9,3C2.7,3 3.4,2.3 3.4,1.5C3.4,0.7 2.7,0 1.9,0L1.5,0C0.7,0 0,0.7 0,1.5C0,2.4 0.7,3 1.5,3Z" style="fill:rgb(22,22,22);fill-rule:nonzero;"/>
            </g>
        </g>
    </g>
    <g transform="matrix(0.72,0,0,0.72,610.2,168.894)">
        <g id="group138">
            <g id="group139">
                <path id="shape94" d="M0,1.425L0,1.725C0,3.625 3,3.625 3,1.725L3,1.425C3,-0.475 0,-0.475 0,1.425L0,1.725C0,3.625 3,3.625 3,1.725L3,1.425C3,-0.475 0,-0.475 0,1.425Z" style="fill:rgb(22,22,22);fill-rule:nonzero;"/>
            </g>
        </g>
    </g>
    <g transform="matrix(0.72,0,0,0.72,638.147,155.343)">
        <g id="group140">
            <g id="group141">
                <path id="shape95" d="M4.784,4.945C7.484,1.045 12.084,3.545 13.684,6.745C14.984,9.245 14.984,12.245 14.884,14.945C14.484,21.745 8.784,26.545 2.184,22.345C0.584,21.245 -0.916,23.845 0.684,24.945C4.584,27.545 9.584,27.845 13.484,24.845C17.484,21.745 18.184,16.645 17.884,11.845C17.584,7.245 15.784,2.145 10.984,0.445C7.584,-0.755 4.184,0.545 2.184,3.445C1.184,4.945 3.784,6.445 4.784,4.945Z" style="fill:rgb(22,22,22);fill-rule:nonzero;"/>
            </g>
        </g>
    </g>
    <g id="shape96" transform="matrix(0.72,0,0,0.72,437.147,113.688)">
        <path d="M14.951,5.7C12.851,5.7 10.751,5.8 8.751,5.8C5.351,12.4 3.451,18.4 2.351,22.8C-0.849,35.7 -0.049,46.4 0.551,51.6C0.951,55.1 1.551,58 2.051,60L7.451,60C8.151,62.4 8.851,64.8 9.551,67.2C26.451,67.1 40.351,67.1 50.051,67.2C108.851,67.7 149.851,70 159.351,70.5C171.251,71.2 180.951,71.9 186.951,72.3C187.151,68.6 188.151,67.3 189.051,66.9C190.651,66.2 192.051,67.9 194.151,67.5C196.351,67.1 197.751,64.8 198.651,62.7C200.451,63.6 203.751,64.8 207.651,64.2C208.551,64.1 209.351,63.8 210.051,63.6C211.751,60.2 213.451,56.8 215.151,53.4C212.751,52.6 209.351,51.9 205.251,51.9C202.951,51.9 200.951,52.2 199.251,52.5C199.051,52 197.451,47.5 193.251,46.5C191.951,46.2 190.851,46.3 189.951,46.5C189.351,45.4 188.751,44.3 188.151,43.2C185.751,42.8 182.051,42.2 177.651,41.4C141.951,34.9 117.051,27 98.051,21.3C79.851,15.8 53.351,8.3 19.351,0C17.951,1.9 16.451,3.8 14.951,5.7Z" style="fill:rgb(106,141,170);fill-rule:nonzero;"/>
    </g>
    <g id="shape97" transform="matrix(0.72,0,0,0.72,437.119,125.208)">
        <path d="M0.891,28.5C1.791,28.3 2.791,30.6 3.891,30.3C5.691,29.9 5.291,23.6 5.691,18.9C5.991,14.4 7.291,7.9 11.691,0C14.591,1.2 18.991,3.1 24.291,5.4C43.391,13.7 56.591,20.1 60.591,21.9C86.991,34.2 115.991,39.7 123.291,41.1C139.891,44.3 162.891,47.1 190.491,45.9C189.291,49.2 188.091,52.5 186.891,55.8C182.291,55.7 175.591,55.7 167.391,55.5C132.191,54.8 107.591,53.7 93.491,53.1C73.591,52.3 45.091,51.5 9.091,51.6C8.691,48.9 8.291,46.2 7.891,43.5C5.591,43.9 3.291,44.3 0.991,44.7C-0.509,32.2 -0.109,28.7 0.891,28.5Z" style="fill:rgb(96,96,96);fill-opacity:0.07;fill-rule:nonzero;"/>
    </g>
    <g transform="matrix(0.72,0,0,0.72,440.255,113.222)">
        <g id="group142">
            <g id="group143">
                <path id="shape98" d="M12.734,0.748C0.234,20.048 -3.266,44.048 3.134,66.148C3.634,68.048 6.534,67.248 6.034,65.348C-0.166,43.948 3.234,20.948 15.334,2.248C16.434,0.548 13.834,-0.952 12.734,0.748Z" style="fill:rgb(22,22,22);fill-rule:nonzero;"/>
            </g>
        </g>
    </g>
    <g transform="matrix(0.72,0,0,0.72,450.565,113.718)">
        <g id="group144">
            <g id="group145">
                <path id="shape99" d="M1.015,2.958C57.315,17.158 113.515,31.358 169.815,45.458C171.715,45.958 172.515,43.058 170.615,42.558C114.315,28.358 58.115,14.158 1.815,0.058C0.015,-0.442 -0.785,2.458 1.015,2.958Z" style="fill:rgb(22,22,22);fill-rule:nonzero;"/>
            </g>
        </g>
    </g>
    <g transform="matrix(0.72,0,0,0.72,442.998,160.993)">
        <g id="group146">
            <g id="group147">
                <path id="shape100" d="M1.425,3.099C60.125,2.599 118.825,3.999 177.425,7.199C179.325,7.299 179.325,4.299 177.425,4.199C118.825,0.999 60.125,-0.401 1.425,0.099C-0.475,0.099 -0.475,3.099 1.425,3.099Z" style="fill:rgb(22,22,22);fill-rule:nonzero;"/>
            </g>
        </g>
    </g>
    <g transform="matrix(0.72,0,0,0.72,570.265,144.038)">
        <g id="group148">
            <g id="group149">
                <path id="shape101" d="M2.666,2.248C6.666,11.148 5.766,21.248 0.266,29.348C-0.834,30.948 1.766,32.448 2.866,30.848C8.966,21.848 9.766,10.648 5.266,0.748C4.466,-0.952 1.866,0.548 2.666,2.248Z" style="fill:rgb(22,22,22);fill-rule:nonzero;"/>
            </g>
        </g>
    </g>
    <g transform="matrix(0.72,0,0,0.72,573.325,146.358)">
        <g id="group150">
            <g id="group151">
                <path id="shape102" d="M1.415,2.925C2.515,3.725 3.315,3.425 4.615,3.725C7.115,4.425 8.115,6.725 8.615,9.125C9.415,13.525 8.315,22.825 1.815,20.225C0.015,19.525 -0.785,22.424 1.015,23.125C7.615,25.725 11.915,18.825 11.915,13.025C11.915,9.825 11.515,6.225 9.715,3.525C9.115,2.625 8.315,1.725 7.315,1.225C6.015,0.625 4.215,1.025 3.115,0.225C1.315,-0.775 -0.185,1.825 1.415,2.925Z" style="fill:rgb(22,22,22);fill-rule:nonzero;"/>
            </g>
        </g>
    </g>
    <g transform="matrix(0.72,0,0,0.72,579.654,150.165)">
        <g id="group152">
            <g id="group153">
                <path id="shape103" d="M1.425,3.138C6.525,2.838 11.625,2.938 16.625,3.638C18.525,3.838 18.525,0.838 16.625,0.638C11.525,0.038 6.525,-0.162 1.425,0.138C-0.475,0.338 -0.475,3.338 1.425,3.138Z" style="fill:rgb(22,22,22);fill-rule:nonzero;"/>
            </g>
        </g>
    </g>
    <g transform="matrix(0.72,0,0,0.72,579.61,158.24)">
        <g id="group154">
            <g id="group155">
                <path id="shape104" d="M1.086,2.922C5.186,3.622 9.286,3.922 13.386,3.522C15.286,3.322 15.286,0.322 13.386,0.522C9.486,0.822 5.686,0.722 1.886,0.022C-0.014,-0.278 -0.814,2.522 1.086,2.922Z" style="fill:rgb(22,22,22);fill-rule:nonzero;"/>
            </g>
        </g>
    </g>
    <g transform="matrix(0.72,0,0,0.72,436.232,116.43)">
        <g id="group156">
            <g id="group157">
                <path id="shape105" d="M16.623,1.091C6.923,-4.509 4.223,12.991 2.923,18.491C-0.077,31.191 -1.477,44.291 2.223,56.991C2.423,57.591 3.023,58.091 3.623,58.091L7.623,58.091C9.523,58.091 9.523,55.091 7.623,55.091L3.623,55.091C4.123,55.491 4.623,55.791 5.023,56.191C2.423,46.991 2.423,37.691 3.923,28.291C4.623,24.091 5.523,19.891 6.623,15.791C7.323,13.091 9.523,0.391 15.023,3.691C16.823,4.691 18.323,2.091 16.623,1.091Z" style="fill:rgb(22,22,22);fill-rule:nonzero;"/>
            </g>
        </g>
    </g>
    <g id="shape106" transform="matrix(0.72,0,0,0.72,509.971,131.318)">
        <path d="M22.307,1.914C20.507,-0.286 17.507,0.014 17.107,0.014C13.807,0.214 10.607,3.214 7.107,10.514C0.307,24.414 0.007,38.314 0.007,40.514C-0.093,50.114 0.807,65.714 7.607,84.314C8.207,92.114 9.507,103.014 12.407,115.714C17.507,138.514 22.907,162.514 41.507,183.814C48.507,191.914 62.307,207.614 86.307,213.314C111.407,219.314 131.807,210.414 136.807,208.114C141.207,206.014 153.507,199.814 163.907,186.714C170.207,178.814 177.507,170.214 176.307,159.614C175.807,155.014 173.807,151.114 170.807,144.914C167.807,138.714 166.207,135.614 163.007,134.414C158.607,132.714 153.907,135.714 148.707,138.714C139.907,143.714 139.107,148.514 129.607,153.514C127.107,154.814 124.607,155.714 119.607,157.314C111.707,159.914 103.907,162.514 96.707,163.014C81.007,164.114 68.407,155.114 64.807,152.514C51.507,143.014 46.307,130.314 42.907,122.014C35.307,103.414 35.907,86.314 37.207,76.314C41.907,75.514 44.807,73.614 46.207,72.514C51.507,68.414 52.807,62.714 54.807,53.914C56.107,48.414 56.707,45.514 55.307,44.414C52.407,42.214 43.507,49.414 41.507,51.114C41.907,44.314 42.907,38.814 43.907,34.914C45.207,29.714 45.907,27.014 47.707,24.914C51.207,20.814 55.307,21.214 56.707,17.314C57.507,15.214 57.407,12.314 55.707,10.614C53.707,8.614 49.407,8.714 45.707,11.614C44.507,9.014 42.107,7.414 39.507,7.314C36.907,7.214 35.207,8.814 34.707,9.214C35.007,6.514 33.807,4.014 31.807,3.014C29.107,1.614 24.807,3.214 23.207,7.314C23.307,6.814 24.007,4.014 22.307,1.914Z" style="fill:rgb(142,106,73);fill-rule:nonzero;"/>
    </g>
    <g id="shape107" transform="matrix(0.72,0,0,0.72,509.847,131.328)">
        <path d="M17.28,0C14.88,4.2 11.88,10.4 9.88,18.5C5.48,36.1 9.08,50.8 10.68,57.9C27.88,131.2 20.38,133 32.38,150.2C36.78,156.4 66.98,198 111.98,192.5C149.68,187.9 169.68,153.6 172.28,149C173.78,153 175.58,159.8 174.38,167.9C172.58,179.8 165.18,187.3 162.48,190.1C159.88,192.7 156.68,195 150.18,199.5C144.38,203.6 138.68,207.2 136.18,208.5C124.28,215.2 105.88,216.8 93.08,215.1C58.28,210.5 37.38,177.5 28.68,163.8C8.78,132.5 6.78,100.8 6.98,85C5.08,78.6 3.18,72.1 1.28,65.7C-0.02,55.8 -0.12,47.6 0.08,41.9C0.58,27.6 0.98,16.9 8.28,7.8C11.48,3.8 14.98,1.4 17.28,0Z" style="fill:rgb(96,96,96);fill-opacity:0.12;fill-rule:nonzero;"/>
    </g>
    <g transform="matrix(0.72,0,0,0.72,535.615,190.278)">
        <g id="group158">
            <g id="group159">
                <path id="shape108" d="M116.891,116.125C132.691,108.625 143.291,92.925 140.691,75.125C139.191,64.325 130.491,45.725 116.591,52.325C110.391,55.325 105.291,60.825 99.591,64.725C91.691,70.125 82.591,74.325 73.491,77.225C61.891,80.925 48.991,81.725 37.791,76.125C29.591,72.025 23.191,65.325 18.291,57.725C7.491,41.025 1.891,21.325 3.191,1.425C3.291,-0.475 0.291,-0.475 0.191,1.425C-0.909,18.225 2.791,34.225 10.191,49.225C16.691,62.625 26.191,75.225 40.591,80.625C58.091,87.125 77.191,80.525 92.991,72.225C100.091,68.425 106.191,63.525 112.591,58.625C118.391,54.125 124.191,51.925 130.091,57.925C137.391,65.325 139.591,78.225 137.391,88.025C134.691,99.725 125.991,108.525 115.391,113.525C113.691,114.325 115.191,116.925 116.891,116.125Z" style="fill:rgb(22,22,22);fill-rule:nonzero;"/>
            </g>
        </g>
    </g>
    <g transform="matrix(0.72,0,0,0.72,535.244,161.637)">
        <g id="group160">
            <g id="group161">
                <path id="shape109" d="M3.505,42.504C2.205,37.004 6.105,35.604 9.705,33.004C11.805,31.504 13.405,29.404 14.905,27.304C18.705,21.804 21.705,15.404 22.505,8.704C22.905,5.404 23.605,0.204 19.105,0.004C13.805,-0.196 11.605,6.504 6.605,7.004C4.705,7.204 4.705,10.204 6.605,10.004C10.405,9.604 12.305,7.204 15.205,5.004C16.905,3.704 18.805,2.204 19.705,5.104C20.205,6.704 19.405,9.704 19.005,11.304C18.305,14.704 16.805,18.004 15.205,21.104C13.705,23.904 12.005,26.804 9.705,29.104C7.605,31.304 4.705,31.804 2.405,33.604C-0.695,36.004 -0.195,40.104 0.605,43.404C1.105,45.204 4.005,44.404 3.505,42.504Z" style="fill:rgb(22,22,22);fill-rule:nonzero;"/>
            </g>
        </g>
    </g>
    <g transform="matrix(0.72,0,0,0.72,509.213,130.446)">
        <g id="group162">
            <g id="group163">
                <path id="shape110" d="M4.76,70.025C2.76,57.125 2.56,43.925 4.56,31.025C5.36,25.825 6.36,20.525 8.16,15.525C9.26,12.425 10.759,8.825 12.96,6.325C15.96,3.025 21.86,1.325 23.459,6.925C23.959,8.825 26.86,8.025 26.36,6.125C24.959,1.325 20.36,-1.275 15.56,0.625C9.46,3.125 6.56,10.625 4.66,16.325C-0.94,33.625 -0.94,53.025 1.76,70.825C2.16,72.725 5.06,71.925 4.76,70.025Z" style="fill:rgb(22,22,22);fill-rule:nonzero;"/>
            </g>
        </g>
    </g>
    <g transform="matrix(0.72,0,0,0.72,520.914,132.831)">
        <g id="group164">
            <g id="group165">
                <path id="shape111" d="M3.008,15.112C5.408,9.212 12.208,-2.688 19.608,5.412C20.908,6.812 23.008,4.712 21.708,3.312C18.308,-0.388 13.408,-0.988 9.108,1.512C4.308,4.212 2.108,9.512 0.108,14.412C-0.592,16.112 2.308,16.912 3.008,15.112Z" style="fill:rgb(22,22,22);fill-rule:nonzero;"/>
            </g>
        </g>
    </g>
    <g transform="matrix(0.72,0,0,0.72,529.99,135.741)">
        <g id="group166">
            <g id="group167">
                <path id="shape112" d="M3.002,13.571C3.102,9.771 4.602,5.571 8.302,3.771C11.402,2.271 15.102,2.971 17.202,5.671C18.402,7.171 20.502,5.071 19.302,3.571C16.402,-0.029 11.202,-0.929 7.102,0.971C2.302,3.271 0.102,8.471 0.002,13.571C-0.098,15.471 2.902,15.471 3.002,13.571Z" style="fill:rgb(22,22,22);fill-rule:nonzero;"/>
            </g>
        </g>
    </g>
    <g transform="matrix(0.72,0,0,0.72,536.286,137.346)">
        <g id="group168">
            <g id="group169">
                <path id="shape113" d="M2.958,12.342C4.758,5.642 12.258,-0.458 18.758,4.942C20.258,6.142 22.358,4.042 20.858,2.842C12.558,-3.958 2.558,2.442 0.058,11.542C-0.442,13.442 2.458,14.242 2.958,12.342Z" style="fill:rgb(22,22,22);fill-rule:nonzero;"/>
            </g>
        </g>
    </g>
    <g transform="matrix(0.72,0,0,0.72,538.769,138.92)">
        <g id="group170">
            <g id="group171">
                <path id="shape114" d="M14.71,2.255C17.91,6.755 10.81,9.555 8.31,11.655C6.21,13.355 5.01,15.555 4.11,18.055C1.71,24.955 0.61,32.455 0.01,39.655C-0.19,41.555 2.81,41.555 3.01,39.655C3.51,34.355 4.31,29.055 5.61,23.855C6.01,22.155 6.41,20.455 7.01,18.755C8.31,15.255 10.21,13.955 13.11,11.855C16.71,9.255 20.51,5.055 17.31,0.555C16.21,-0.845 13.61,0.655 14.71,2.255Z" style="fill:rgb(22,22,22);fill-rule:nonzero;"/>
            </g>
        </g>
    </g>
    <g transform="matrix(0.72,0,0,0.72,509.949,177.346)">
        <g id="group172">
            <g id="group173">
                <path id="shape115" d="M0.038,1.886C1.638,8.686 3.638,15.386 6.138,21.986C6.838,23.786 9.738,22.986 9.038,21.186C6.538,14.586 4.538,7.886 2.938,1.086C2.538,-0.814 -0.362,-0.014 0.038,1.886Z" style="fill:rgb(22,22,22);fill-rule:nonzero;"/>
            </g>
        </g>
    </g>
    <g transform="matrix(0.72,0,0,0.72,514.001,193.527)">
        <g id="group174">
            <g id="group175">
                <path id="shape116" d="M0.01,1.413C3.81,35.813 12.31,71.113 35.41,97.913C53.81,119.213 83.01,135.413 111.81,130.113C125.41,127.613 137.81,120.813 147.71,111.313C149.11,110.013 147.01,107.813 145.61,109.213C125.81,128.213 97.61,133.213 72.51,121.913C45.51,109.613 26.61,86.513 15.91,59.213C8.71,40.713 5.11,21.113 2.91,1.513C2.81,-0.487 -0.19,-0.487 0.01,1.413Z" style="fill:rgb(22,22,22);fill-rule:nonzero;"/>
            </g>
        </g>
    </g>
</svg>
