<?xml version="1.0" standalone="no"?>
<!DOCTYPE svg PUBLIC "-//W3C//DTD SVG 20010904//EN" "http://www.w3.org/TR/2001/REC-SVG-20010904/DTD/svg10.dtd">
<!-- Created using Krita: https://krita.org -->
<svg xmlns="http://www.w3.org/2000/svg" 
    xmlns:xlink="http://www.w3.org/1999/xlink"
    xmlns:krita="http://krita.org/namespaces/svg/krita"
    xmlns:sodipodi="http://sodipodi.sourceforge.net/DTD/sodipodi-0.dtd"
    width="997.2pt"
    height="784.8pt"
    viewBox="0 0 997.2 784.8">
<defs/>
<g id="background" transform="matrix(0.72 0 0 0.72 0 0)" fill="none">
  <g id="group0" fill="none">
   <g id="group1" fill="none">
    <path id="shape0" transform="translate(76.3874486186182, 913.988602640126)" fill="#e8e8e8" stroke="#000000" stroke-opacity="0" stroke-width="0" stroke-linecap="square" stroke-linejoin="bevel" d="M2.31255 26.3114C71.8126 -4.6886 150.713 -0.688603 223.613 14.7114C300.713 31.0114 374.913 59.4114 452.713 72.6114C495.813 79.9114 539.813 82.5114 583.213 75.7114C585.113 75.4114 584.313 72.5114 582.413 72.8114C501.813 85.3114 421.213 65.3114 344.113 43.5114C270.313 22.6114 195.613 -0.588603 118.013 0.0113974C77.8126 0.311397 37.7126 7.3114 0.812551 23.7114C-0.987449 24.5114 0.512551 27.1114 2.31255 26.3114Z"/>
   </g>
  </g>
  <g id="group2" fill="none">
   <g id="group3" fill="none">
    <path id="shape1" transform="translate(466.412271318787, 913.49755486124)" fill="#e8e8e8" stroke="#000000" stroke-opacity="0" stroke-width="0" stroke-linecap="square" stroke-linejoin="bevel" d="M1.48773 52.6024C95.6877 54.5024 186.888 28.4024 278.988 12.9024C305.888 8.40245 332.988 4.80245 360.288 3.00245C362.188 2.90245 362.188 -0.0975549 360.288 0.00244514C265.988 6.20245 175.088 34.4024 81.4877 45.4024C54.9877 48.5024 28.2877 50.2024 1.58773 49.7024C-0.512271 49.6024 -0.512271 52.6024 1.48773 52.6024Z"/>
   </g>
  </g>
  <g id="group4" fill="none">
   <g id="group5" fill="none">
    <path id="shape2" transform="translate(906.334837001707, 923.165416698506)" fill="#e8e8e8" stroke="#000000" stroke-opacity="0" stroke-width="0" stroke-linecap="square" stroke-linejoin="bevel" d="M1.86516 9.33458C35.3652 2.13458 70.0652 0.934583 103.965 6.13458C135.165 10.9346 165.065 21.2346 194.565 32.2346C223.665 43.0346 252.565 54.5346 282.765 62.2346C313.965 70.1346 345.665 72.1346 377.865 72.1346C415.865 72.1346 454.165 70.6346 491.465 79.0346C493.365 79.4346 494.165 76.5346 492.265 76.1346C426.365 61.3346 358.065 76.3346 292.165 61.3346C230.665 47.3346 174.465 15.8346 112.265 4.53458C75.4652 -2.16542 37.6652 -1.36542 1.16516 6.43458C-0.834837 6.83458 -0.034837 9.73458 1.86516 9.33458Z"/>
   </g>
  </g>
  <g id="group6" fill="none">
   <g id="group7" fill="none">
    <path id="shape3" transform="translate(338.773495091624, 492.766557828428)" fill="#e8e8e8" stroke="#000000" stroke-opacity="0" stroke-width="0" stroke-linecap="square" stroke-linejoin="bevel" d="M23.2265 55.2334C14.6265 52.6334 -2.2735 45.5334 4.0265 33.5334C8.5265 24.9334 21.9265 24.2334 30.2265 24.5334C58.2265 25.3334 86.2265 27.7334 114.227 25.4334C140.527 23.2334 165.627 15.7334 191.227 9.73344C217.227 3.53344 244.727 -0.966558 270.927 6.63344C282.427 9.93344 293.127 15.4334 304.427 19.2334C309.827 21.0334 315.427 22.4334 321.127 23.0334C327.927 23.7334 334.727 22.7334 341.427 22.4334C348.327 22.1334 355.427 22.3334 361.327 26.4334C366.727 30.1334 371.227 37.1334 367.727 43.6334C362.727 53.0334 348.127 50.4334 339.727 48.6334C314.827 43.4334 289.727 41.8334 264.427 45.2334C251.027 47.0334 237.927 50.3334 225.127 54.4334C211.327 58.8334 197.927 62.7334 183.227 60.7334C169.527 58.8334 156.427 54.4334 142.527 53.9334C128.627 53.3334 114.827 55.1334 101.127 56.9334C74.5265 60.5334 46.1265 65.1334 21.2265 52.2334C19.5265 51.3334 18.0265 53.9334 19.7265 54.8334C43.0265 66.9334 69.3265 64.1334 94.5265 60.8334C107.727 59.0334 121.027 57.1334 134.427 56.8334C149.127 56.5334 162.827 59.9334 177.127 62.7334C191.727 65.5334 204.927 64.0334 219.127 59.6334C233.227 55.2334 247.127 50.9334 261.727 48.7334C276.827 46.4334 292.127 45.8334 307.327 46.9334C320.827 47.8334 333.727 51.4334 347.027 52.9334C354.927 53.8334 365.027 53.5334 369.927 46.1334C375.527 37.6334 369.527 27.7334 361.827 23.0334C350.127 15.9334 335.627 20.9334 322.927 20.1334C308.927 19.2334 296.027 12.7334 283.127 7.73344C256.327 -2.66656 228.927 -1.36656 201.227 4.53344C171.927 10.7334 143.427 20.2334 113.427 22.6334C96.1265 24.0334 78.6265 23.7334 61.3265 23.0334C52.3265 22.6334 43.2265 22.2334 34.2265 21.8334C28.6265 21.6334 23.1265 21.5334 17.6265 22.6334C9.1265 24.3334 -0.573495 29.3334 0.0265049 39.4334C0.726505 50.5334 13.5265 55.6334 22.5265 58.3334C24.2265 58.7334 25.0265 55.8334 23.2265 55.2334Z"/>
   </g>
  </g>
  <g id="group8" fill="none">
   <g id="group9" fill="none">
    <path id="shape4" transform="translate(1071.49988670498, 125.95)" fill="#e8e8e8" stroke="#000000" stroke-opacity="0" stroke-width="0" stroke-linecap="square" stroke-linejoin="bevel" d="M28.5001 53.15C19.9001 51.95 5.80011 48.85 3.30011 39.05C-0.299887 25.45 19.1001 21.15 28.5001 19.45C56.0001 14.75 84.2001 19.05 111.9 19.05C166.8 18.95 220.9 8.55 275.5 4.65C302.8 2.65 330.3 2.35 357.5 5.85C363.7 6.65 370.2 7.25 376.2 9.05C378.7 9.75 381.5 10.95 383.4 12.75C388 17.25 383.5 21.35 379.3 23.55C368.5 29.25 356.2 31.55 344.1 32.05C319.9 33.15 295.8 28.15 271.6 29.05C260.3 29.45 249.2 31.35 238.5 35.25C226 39.85 214.4 46.35 201.8 50.65C187.2 55.65 171.8 58.15 156.3 58.15C140.6 58.15 125.1 55.75 109.6 53.95C78.2001 50.35 46.7001 50.45 15.4001 54.65C13.5001 54.95 13.5001 57.95 15.4001 57.65C46.0001 53.55 77.0001 53.25 107.7 56.75C122.9 58.45 138.1 60.85 153.5 61.15C167.7 61.45 182 59.65 195.7 55.75C209.7 51.75 222.5 44.85 236 39.45C249.1 34.25 262.6 31.95 276.6 31.95C302.4 31.75 328.3 37.55 354.1 34.15C360.4 33.35 366.5 31.95 372.5 29.75C377.1 28.05 383.3 25.95 386.6 22.05C392.8 14.55 383.8 7.95 377.1 6.05C363.9 2.15 349 1.45 335.3 0.65C320.4 -0.25 305.5 -0.15 290.6 0.55C230.3 3.45 170.7 16.05 110.2 15.85C93.0001 15.85 75.8001 14.25 58.6001 14.15C44.0001 14.05 27.3001 14.35 13.6001 20.05C5.00011 23.65 -3.39989 32.05 1.40011 41.95C5.90011 51.25 18.6001 54.45 27.8001 55.75C29.6001 56.35 30.4001 53.45 28.5001 53.15Z"/>
   </g>
  </g>
  <g id="group10" fill="none">
   <g id="group11" fill="none">
    <path id="shape5" transform="translate(130.652180888418, 296.92595214058)" fill="#e8e8e8" stroke="#000000" stroke-opacity="0" stroke-width="0" stroke-linecap="square" stroke-linejoin="bevel" d="M2.24782 18.674C85.6478 -17.526 177.048 16.274 253.948 52.574C293.148 71.074 331.748 90.874 372.648 105.474C412.748 119.774 454.448 129.674 496.748 135.374C581.648 146.874 668.548 141.774 752.048 123.074C839.548 103.474 922.448 67.874 1009.25 45.574C1099.55 22.374 1193.95 17.374 1286.05 32.274C1297.25 34.074 1308.35 36.174 1319.45 38.574C1321.35 38.974 1322.15 36.074 1320.25 35.674C1230.85 16.674 1137.95 15.774 1048.35 33.574C958.748 51.374 874.448 87.774 786.548 111.474C701.248 134.474 612.148 143.774 524.048 135.474C480.248 131.374 436.848 122.874 394.848 109.674C351.448 96.074 310.748 76.274 269.848 56.674C195.948 21.174 112.548 -14.826 28.9478 6.27405C19.2478 8.67405 9.94782 11.974 0.747819 15.974C-0.952181 16.874 0.547819 19.474 2.24782 18.674Z"/>
   </g>
  </g>
  <g id="group12" fill="none">
   <g id="group13" fill="none">
    <path id="shape6" transform="translate(474.415965873791, 240.315050870822)" fill="#e8e8e8" stroke="#000000" stroke-opacity="0" stroke-width="0" stroke-linecap="square" stroke-linejoin="bevel" d="M0.684034 39.4849C98.384 93.9849 214.684 98.0849 323.084 82.8849C445.784 65.6849 563.984 25.1849 686.884 9.38495C755.284 0.584949 825.084 -0.515051 892.784 14.4849C894.684 14.8849 895.484 11.9849 893.584 11.5849C773.884 -14.8151 651.084 8.48495 533.884 35.7849C418.384 62.6849 301.584 94.0849 181.884 86.3849C119.384 82.3849 57.184 67.4849 2.18403 36.8849C0.584034 35.8849 -0.915966 38.4849 0.684034 39.4849Z"/>
   </g>
  </g>
  <g id="group14" fill="none">
   <g id="group15" fill="none">
    <path id="shape7" transform="translate(181.513594176221, 79.2218253780769)" fill="#e8e8e8" stroke="#000000" stroke-opacity="0" stroke-width="0" stroke-linecap="square" stroke-linejoin="bevel" d="M1.88641 13.8782C85.8864 -6.12183 175.486 1.77817 254.686 36.2782C293.586 53.1782 330.086 75.1782 368.286 93.4782C406.786 111.878 446.986 124.578 489.386 130.278C537.886 136.778 586.986 135.678 635.586 132.478C637.486 132.378 637.486 129.378 635.586 129.478C591.686 132.378 547.386 133.578 503.586 128.978C459.186 124.278 416.786 112.678 376.286 93.9782C337.786 76.0782 301.386 54.0782 262.686 36.6782C224.686 19.2782 184.386 7.77817 142.886 2.87817C95.5864 -2.82183 47.3864 -0.0218254 1.08641 10.9782C-0.813594 11.3782 -0.0135942 14.2782 1.88641 13.8782Z"/>
   </g>
  </g>
  <g id="group16" fill="none">
   <g id="group17" fill="none">
    <path id="shape8" transform="translate(1008.68014008104, 651.732439575343)" fill="#e8e8e8" stroke="#000000" stroke-opacity="0" stroke-width="0" stroke-linecap="square" stroke-linejoin="bevel" d="M26.7199 47.4676C17.9199 45.6676 3.51986 41.1676 2.81986 30.2676C2.41986 23.5676 8.01986 18.6676 13.9199 16.8676C21.0199 14.5676 28.5199 16.6676 35.4199 18.6676C48.0199 22.3676 60.7199 25.3676 73.9199 25.8676C86.2199 26.3676 98.4199 24.5676 110.32 21.3676C123.12 17.9676 135.62 13.3676 148.32 9.76756C161.72 5.96756 175.42 3.96756 189.42 3.76756C216.12 3.36756 242.52 8.16756 269.12 9.26756C282.42 9.76756 295.52 9.06756 308.62 7.06756C322.82 4.86756 337.32 1.56756 351.82 3.26756C362.22 4.46756 378.92 11.4676 375.52 24.8676C372.52 36.5676 355.92 43.1676 345.72 46.4676C294.52 63.0676 241.72 35.4676 189.82 42.7676C159.92 46.9676 131.72 59.5676 101.52 61.9676C87.7199 63.0676 73.5199 62.1676 60.4199 57.2676C48.4199 52.6676 37.6199 42.6676 23.9199 45.0676C22.0199 45.3676 22.8199 48.2676 24.7199 47.9676C32.9199 46.5676 40.1199 50.4676 47.0199 54.2676C52.6199 57.2676 58.2199 60.0676 64.3199 61.8676C76.8199 65.6676 90.2199 66.1676 103.22 64.9676C131.82 62.2676 158.72 50.9676 187.02 46.3676C218.22 41.3676 248.92 48.5676 279.72 52.6676C304.82 55.9676 331.72 56.7676 355.32 46.2676C364.32 42.2676 376.32 35.8676 378.62 25.2676C380.72 15.7676 373.42 8.16756 365.52 4.26756C353.82 -1.43244 339.72 -0.33244 327.32 1.36756C312.22 3.36756 297.52 6.56756 282.22 6.76756C252.42 7.26756 223.02 1.16756 193.32 1.06756C179.12 1.06756 165.02 2.66756 151.22 6.26756C137.52 9.86756 124.22 14.8676 110.62 18.5676C93.8199 23.0676 76.9199 24.4676 59.7199 21.7676C51.1199 20.3676 43.0199 17.9676 34.7199 15.5676C28.5199 13.7676 21.8199 12.2676 15.3199 13.6676C5.61986 15.7676 -3.18014 24.9676 1.11986 35.2676C5.01986 44.6676 16.9199 48.7676 26.1199 50.6676C27.7199 50.7676 28.5199 47.8676 26.7199 47.4676Z"/>
   </g>
  </g>
  <g id="group18" fill="none">
   <g id="group19" fill="none">
    <path id="shape9" transform="translate(584.813594176221, 1026.87270480345)" fill="#161616" stroke="#000000" stroke-opacity="0" stroke-width="0" stroke-linecap="square" stroke-linejoin="bevel" d="M1.88641 67.2273C39.2864 58.2273 75.8864 45.9273 111.186 30.6273C129.486 22.6273 147.386 13.5273 166.886 8.7273C185.586 4.0273 204.986 2.6273 224.286 3.1273C246.586 3.6273 268.686 6.6273 290.686 10.1273C292.586 10.4273 293.386 7.5273 291.486 7.2273C253.986 1.3273 215.386 -3.4727 177.686 3.3273C158.286 6.8273 140.486 14.2273 122.686 22.3273C103.986 30.8273 85.0864 38.5273 65.6864 45.3273C44.4864 52.7273 22.9864 59.1273 1.08641 64.3273C-0.813594 64.7273 -0.0135942 67.6273 1.88641 67.2273Z"/>
   </g>
  </g>
  <g id="group20" fill="none">
   <g id="group21" fill="none">
    <path id="shape10" transform="translate(821.587259589037, 1010.79270037392)" fill="#161616" stroke="#000000" stroke-opacity="0" stroke-width="0" stroke-linecap="square" stroke-linejoin="bevel" d="M1.41274 20.3073C18.2127 19.9073 34.8127 17.5073 51.0127 12.8073C67.5127 8.1073 83.8127 1.5073 101.313 3.2073C110.213 4.0073 118.913 6.5073 127.513 8.7073C136.513 11.0073 145.413 13.3073 154.413 15.6073C171.713 20.0073 188.913 24.4073 206.213 28.8073C208.113 29.3073 208.913 26.4073 207.013 25.9073C189.113 21.3073 171.213 16.8073 153.313 12.2073C136.913 8.0073 120.113 2.4073 103.313 0.4073C86.8127 -1.4927 71.2127 3.6073 55.6127 8.4073C37.9127 13.8073 19.9127 16.9073 1.51274 17.4073C-0.48726 17.3073 -0.48726 20.3073 1.41274 20.3073Z"/>
   </g>
  </g>
  <g id="group22" fill="none">
   <g id="group23" fill="none">
    <path id="shape11" transform="translate(996.191401491625, 1032.63596891971)" fill="#161616" stroke="#000000" stroke-opacity="0" stroke-width="0" stroke-linecap="square" stroke-linejoin="bevel" d="M1.9086 13.964C41.2086 5.26403 82.5086 -2.23597 122.409 6.96403C142.209 11.564 160.809 20.364 179.309 28.464C198.709 37.064 218.209 45.564 237.609 54.164C239.409 54.964 240.909 52.364 239.109 51.564C208.709 38.164 178.609 23.664 147.609 11.764C117.609 0.264031 86.4086 -2.03597 54.6086 1.56403C36.6086 3.66403 18.7086 7.16403 1.0086 11.164C-0.791401 11.464 0.00859851 14.364 1.9086 13.964Z"/>
   </g>
  </g>
  <g id="group24" fill="none">
   <g id="group25" fill="none">
    <path id="shape12" transform="translate(640.91359417622, 1114.92933292966)" fill="#161616" stroke="#000000" stroke-opacity="0" stroke-width="0" stroke-linecap="square" stroke-linejoin="bevel" d="M1.88641 13.8707C12.1864 12.0707 22.5864 10.2707 32.8864 8.47067C43.1864 6.67067 53.5864 4.37067 63.9864 3.27067C73.5864 2.27067 83.3864 3.97067 92.8864 4.87067C103.386 5.97067 113.986 6.97067 124.486 8.07067C126.386 8.27067 126.386 5.27067 124.486 5.07067C113.986 3.97067 103.386 2.97067 92.8864 1.87067C82.6864 0.870667 72.3864 -0.829333 62.0864 0.470667C41.6864 2.97067 21.3864 7.47067 1.08641 10.9707C-0.813594 11.3707 -0.0135942 14.2707 1.88641 13.8707Z"/>
   </g>
  </g>
 </g><circle id="shape13" transform="matrix(0.72 0 0 0.72 255.024 470.16)" r="12.4" cx="12.4" cy="12.4" fill="#ec615b" stroke="#000000" stroke-opacity="0" stroke-width="0" stroke-linecap="square" stroke-linejoin="bevel"/><circle id="shape14" transform="matrix(0.72 0 0 0.72 283.392 498.24)" r="6.5" cx="6.5" cy="6.5" fill="#ec615b" stroke="#000000" stroke-opacity="0" stroke-width="0" stroke-linecap="square" stroke-linejoin="bevel"/><circle id="shape15" transform="matrix(0.72 0 0 0.72 779.184 28.44)" r="15.3" cx="15.3" cy="15.3" fill="#ec615b" stroke="#000000" stroke-opacity="0" stroke-width="0" stroke-linecap="square" stroke-linejoin="bevel"/><circle id="shape16" transform="matrix(0.72 0 0 0.72 809.568 50.4)" r="8.7" cx="8.7" cy="8.7" fill="#ec615b" stroke="#000000" stroke-opacity="0" stroke-width="0" stroke-linecap="square" stroke-linejoin="bevel"/><circle id="shape17" transform="matrix(0.72 0 0 0.72 801.216 39.456)" r="14.5" cx="14.5" cy="14.5" fill="#73c8a9" stroke="#000000" stroke-opacity="0" stroke-width="0" stroke-linecap="square" stroke-linejoin="bevel"/><circle id="shape18" transform="matrix(0.72 0 0 0.72 772.56 569.376)" r="19.6" cx="19.6" cy="19.6" fill="#73c8a9" stroke="#000000" stroke-opacity="0" stroke-width="0" stroke-linecap="square" stroke-linejoin="bevel"/><circle id="shape19" transform="matrix(0.72 0 0 0.72 265.32 39.456)" r="12.5" cx="12.5" cy="12.5" fill="#73c8a9" stroke="#000000" stroke-opacity="0" stroke-width="0" stroke-linecap="square" stroke-linejoin="bevel"/><circle id="shape20" transform="matrix(0.72 0 0 0.72 405.72 650.88)" r="15.3" cx="15.3" cy="15.3" fill="#73c8a9" stroke="#000000" stroke-opacity="0" stroke-width="0" stroke-linecap="square" stroke-linejoin="bevel"/><g id="group26" transform="matrix(0.72 0 0 0.72 0 0)" fill="#000000" stroke="#73c8a9" stroke-width="1" stroke-linecap="square" stroke-linejoin="bevel">
  <g id="group27" fill="none">
   <path id="shape21" transform="translate(685.299361658243, 607.181004173101)" fill="#5222d0" stroke="#000000" stroke-opacity="0" stroke-width="0" stroke-linecap="square" stroke-linejoin="bevel" d="M3.90064 39.619C1.80064 38.719 4.20064 35.019 5.30064 34.519C6.60064 33.919 9.20064 34.719 10.6006 35.119C12.8006 35.819 14.7006 37.019 16.9006 37.619C19.3006 38.319 22.2006 38.519 24.5006 37.419C32.5006 33.319 23.0006 19.519 34.7006 19.519C41.1006 19.519 46.5006 29.019 51.8006 21.919C53.7006 19.419 54.5006 16.219 55.5006 13.219C56.3006 10.619 57.0006 7.919 58.8006 5.819C60.9006 3.419 67.3006 1.019 68.0006 6.219C68.2006 8.119 71.3006 8.119 71.0006 6.219C70.5006 2.619 67.9006 0.218996 64.2006 0.0189958C59.8006 -0.281004 56.6006 3.019 54.8006 6.619C53.5006 9.119 52.9006 11.919 52.0006 14.619C51.4006 16.519 50.6006 19.819 48.9006 21.019C47.1006 22.219 45.7006 20.919 44.2006 20.019C40.3006 17.419 35.6006 15.419 30.9006 17.119C26.6006 18.719 24.9006 22.419 25.1006 26.819C25.1006 28.119 25.5006 29.719 25.4006 31.019C24.7006 35.619 21.6006 35.819 18.4006 35.119C15.2006 34.419 12.5006 32.419 9.20064 31.819C5.70064 31.119 2.20064 32.019 0.600638 35.519C-0.699362 38.519 0.100638 41.519 3.10064 42.719C4.90064 43.219 5.70064 40.319 3.90064 39.619Z"/>
  </g>
 </g><g id="group28" transform="matrix(0.72 0 0 0.72 0 0)" fill="#000000" stroke="#73c8a9" stroke-width="1" stroke-linecap="square" stroke-linejoin="bevel">
  <g id="group29" fill="none">
   <path id="shape22" transform="translate(736.775383139539, 609.404893731361)" fill="#5222d0" stroke="#000000" stroke-opacity="0" stroke-width="0" stroke-linecap="square" stroke-linejoin="bevel" d="M4.02462 42.1951C2.52462 39.8951 2.52462 36.9951 4.12462 34.6951C6.42462 31.3951 9.62462 31.8951 13.1246 32.3951C15.7246 32.7951 18.9246 33.2951 20.8246 30.9951C22.1246 29.4951 21.9246 27.6951 22.4246 25.9951C23.1246 23.4951 24.7246 21.2951 26.8246 19.7951C31.2246 16.5951 37.4246 16.0951 41.8246 19.4951C42.9246 20.2951 44.2246 19.7951 44.4246 18.3951C45.6246 8.69511 55.2246 1.49511 64.8246 3.19511C66.7246 3.49511 67.5246 0.595106 65.6246 0.295106C53.9246 -1.70489 42.8246 6.69511 41.4246 18.3951C42.3246 17.9951 43.1246 17.6951 44.0246 17.2951C39.9246 14.0951 34.7246 13.2951 29.8246 14.9951C24.2246 16.8951 21.6246 20.5951 19.5246 25.7951C18.5246 28.3951 17.3246 29.9951 14.4246 29.5951C12.8246 29.3951 11.3246 28.9951 9.72462 28.8951C7.42462 28.7951 5.42462 29.3951 3.62462 30.8951C-0.175383 34.0951 -1.17538 39.5951 1.52462 43.7951C2.52462 45.3951 5.12462 43.8951 4.02462 42.1951Z"/>
  </g>
 </g><g id="group30" transform="matrix(0.72 0 0 0.72 0 0)" fill="none">
  <g id="group31" fill="none">
   <path id="shape23" transform="translate(787.456809713222, 81.6151412230247)" fill="#ec615b" stroke="#000000" stroke-opacity="0" stroke-width="0" stroke-linecap="square" stroke-linejoin="bevel" d="M3.94319 22.6849C2.24319 21.0849 2.74319 20.0849 5.34319 19.5849C6.44319 18.0849 7.64319 17.7849 8.94319 18.7849C10.7432 19.1849 11.9432 20.7849 13.2432 21.9849C14.8432 23.3849 16.2432 24.9849 18.0432 26.0849C20.5432 27.4849 23.6432 28.0849 26.2432 26.7849C29.4432 25.1849 29.5432 21.9849 30.6432 18.9849C33.6432 10.9849 43.8432 10.1849 48.6432 16.9849C49.2432 17.7849 50.7432 18.0849 51.2432 16.9849C53.1432 12.4849 55.5432 7.38486 59.8432 4.68486C64.1432 1.98486 71.3432 2.28486 73.2432 7.88486C73.8432 9.68486 76.7432 8.88486 76.1432 7.08486C74.2432 1.68486 68.7432 -0.715141 63.2432 0.184859C55.6432 1.48486 51.4432 9.08486 48.6432 15.4849C49.5432 15.4849 50.3432 15.4849 51.2432 15.4849C47.7432 10.4849 41.7432 7.78486 35.7432 9.98486C33.2432 10.8849 30.9432 12.6849 29.4432 14.9849C28.6432 16.1849 28.1432 17.4849 27.6432 18.8849C27.3432 19.7849 27.3432 20.8849 26.8432 21.6849C25.5432 23.8849 21.9432 24.7849 19.6432 23.4849C14.7432 20.7849 9.94319 12.1849 3.14319 15.6849C-0.65681 17.5849 -1.15681 22.9849 2.44319 25.2849C4.14319 26.2849 5.64319 23.6849 3.94319 22.6849Z"/>
  </g>
 </g><g id="group32" transform="matrix(0.72 0 0 0.72 0 0)" fill="none">
  <g id="group33" fill="none">
   <path id="shape24" transform="translate(852.583376429191, 87.8022802744293)" fill="#ec615b" stroke="#000000" stroke-opacity="0" stroke-width="0" stroke-linecap="square" stroke-linejoin="bevel" d="M3.01662 15.6977C2.31662 5.69772 15.1166 8.99772 20.2166 11.4977C22.8166 12.7977 26.0166 15.1977 28.8166 12.9977C29.7166 12.2977 30.1166 11.2977 30.5166 10.2977C32.0166 6.99772 33.0166 4.59772 37.0166 3.39772C43.2166 1.59772 49.2166 5.49772 54.2166 8.69772C55.8166 9.69772 57.3166 7.09772 55.7166 6.09772C50.4166 2.79772 44.4166 -0.90228 37.9166 0.19772C35.8166 0.49772 33.7166 1.29772 32.0166 2.59772C29.4166 4.49772 28.9166 7.79772 26.3166 9.39772C23.8166 10.8977 22.8166 9.39772 20.3166 8.19772C19.0166 7.59772 17.7166 6.99772 16.3166 6.49772C13.7166 5.59772 10.9166 5.19772 8.21662 5.79772C3.51662 6.89772 -0.283376 10.6977 0.0166236 15.6977C0.116624 17.5977 3.11662 17.5977 3.01662 15.6977Z"/>
  </g>
 </g><g id="group34" transform="matrix(0.72 0 0 0.72 0 0)" fill="none">
  <g id="group35" fill="none">
   <path id="shape25" transform="translate(1141.11560738031, 500.198595951757)" fill="#ec615b" stroke="#000000" stroke-opacity="0" stroke-width="0" stroke-linecap="square" stroke-linejoin="bevel" d="M3.88439 17.5014C-2.71561 3.0014 22.2844 -3.3986 23.9844 11.8014C24.5844 16.9014 21.7844 22.3014 16.5844 23.7014C10.7844 25.2014 4.58439 21.3014 2.98439 15.7014C2.48439 13.8014 -0.415607 14.6014 0.0843926 16.5014C2.08439 23.7014 9.98439 28.5014 17.3844 26.6014C24.6844 24.7014 28.2844 16.6014 26.5844 9.6014C24.7844 2.2014 17.0844 -1.3986 9.98439 0.501404C1.68439 2.7014 -2.21561 11.4014 1.28439 19.2014C2.08439 20.8014 4.68439 19.2014 3.88439 17.5014Z"/>
  </g>
 </g><g id="group36" transform="matrix(0.72 0 0 0.72 0 0)" fill="none">
  <g id="group37" fill="none">
   <path id="shape26" transform="translate(1154.93697733092, 512.566014167438)" fill="#ec615b" stroke="#000000" stroke-opacity="0" stroke-width="0" stroke-linecap="square" stroke-linejoin="bevel" d="M8.66302 16.634C3.26302 16.134 1.26302 8.93399 4.96302 5.33399C8.06302 2.23399 13.363 2.43399 16.663 5.03399C20.063 7.73399 23.363 15.634 19.563 19.434C14.563 24.434 8.46302 16.334 6.06302 12.734C4.96302 11.134 2.36302 12.634 3.46302 14.234C6.96302 19.634 14.963 28.134 21.663 21.534C26.963 16.334 23.163 5.83399 17.963 2.13399C12.663 -1.66601 3.96302 -0.366014 0.963023 5.83399C-2.03698 11.834 2.36302 19.034 8.76302 19.634C10.563 19.834 10.563 16.834 8.66302 16.634Z"/>
  </g>
 </g><g id="group38" transform="matrix(0.72 0 0 0.72 0 0)" fill="none">
  <g id="group39" fill="none">
   <path id="shape27" transform="translate(253.762246590766, 392.249111601866)" fill="#ec615b" stroke="#000000" stroke-opacity="0" stroke-width="0" stroke-linecap="square" stroke-linejoin="bevel" d="M1.43775 11.2509C5.43775 11.0509 7.53775 8.35089 10.3378 5.85089C16.9378 -0.0491116 24.5378 5.55089 28.7378 11.3509C32.7378 16.8509 38.5378 20.7509 43.6378 14.1509C46.0378 11.0509 47.2378 6.45089 50.5378 4.25089C57.2378 -0.249112 62.9378 8.65089 67.1378 12.5509C71.9378 16.9509 81.8378 18.9509 84.0378 10.7509C84.5378 8.85089 81.6378 8.05089 81.1378 9.95089C80.0378 14.2509 74.8378 14.1509 71.7378 12.3509C69.3378 10.9509 67.6378 8.75089 65.7378 6.85089C62.9378 3.85089 59.8378 0.950888 55.6378 0.150888C48.7378 -1.04911 45.6378 5.15089 42.5378 10.1509C41.7378 11.5509 40.7378 13.4509 39.2378 14.2509C35.6378 16.1509 33.0378 12.3509 31.1378 9.85089C28.7378 6.45089 26.0378 3.55089 22.1378 1.75089C18.9378 0.250888 15.1378 -0.249112 11.8378 1.15089C8.03775 2.75089 5.63775 8.15089 1.33775 8.35089C-0.462247 8.35089 -0.462247 11.3509 1.43775 11.2509Z"/>
  </g>
 </g><g id="group40" transform="matrix(0.72 0 0 0.72 0 0)" fill="none">
  <g id="group41" fill="none">
   <path id="shape28" transform="translate(324.740763575196, 379.391811725211)" fill="#ec615b" stroke="#000000" stroke-opacity="0" stroke-width="0" stroke-linecap="square" stroke-linejoin="bevel" d="M0.359236 3.50819C4.55924 8.50819 12.0592 15.2082 18.6592 9.70819C20.2592 8.30819 21.1592 6.30819 22.8592 4.90819C25.3592 3.00819 28.6592 2.60819 31.5592 3.50819C37.8592 5.20819 41.5592 11.2082 44.8592 16.3082C45.4592 17.2082 46.9592 17.4082 47.4592 16.3082C51.7592 6.90819 63.2592 4.60819 72.2592 8.20819C74.0592 8.90819 74.8592 6.00819 73.0592 5.30819C62.9592 1.20819 49.6592 4.20819 44.8592 14.7082C45.7592 14.7082 46.5592 14.7082 47.4592 14.7082C42.9592 7.70819 37.2592 -0.291812 27.8592 0.00818827C24.5592 0.108188 21.5592 1.50819 19.3592 3.90819C16.7592 6.90819 14.5592 9.30819 10.2592 8.00819C6.95924 7.00819 4.55924 3.90819 2.35924 1.30819C1.25924 -0.0918117 -0.840764 2.00819 0.359236 3.50819Z"/>
  </g>
 </g><g id="group42" transform="matrix(0.72 0 0 0.72 0 0)" fill="#000000" stroke="#73c8a9" stroke-width="1" stroke-linecap="square" stroke-linejoin="bevel">
  <g id="group43" fill="none">
   <path id="shape29" transform="translate(496.742549264659, 465.636159525428)" fill="#5222d0" stroke="#000000" stroke-opacity="0" stroke-width="0" stroke-linecap="square" stroke-linejoin="bevel" d="M8.45745 21.8638C7.15745 19.2638 5.65745 16.5638 4.45745 13.8638C3.15745 11.0638 3.75745 9.96384 5.45745 7.56384C7.65745 4.46384 11.0575 1.66384 14.9575 3.76384C17.7575 5.26384 19.5575 8.66384 20.3575 11.5638C21.7575 16.4638 20.5575 23.4638 14.8575 25.0638C10.1575 26.3638 4.05745 23.4638 4.25745 18.0638C4.25745 16.1638 1.25745 16.1638 1.25745 18.0638C1.05745 24.7638 7.75745 28.9638 13.9575 28.2638C21.5575 27.3638 24.7575 19.3638 23.6575 12.5638C22.5575 5.96384 16.4575 -2.43616 8.85745 0.66384C5.15745 2.16384 2.35745 6.06384 0.657451 9.56384C-0.342549 11.6638 -0.142549 11.7638 0.857451 13.8638C2.45745 17.0638 4.05745 20.2638 5.65745 23.3638C6.75745 25.0638 9.35745 23.5638 8.45745 21.8638Z"/>
  </g>
 </g><g id="group44" transform="matrix(0.72 0 0 0.72 0 0)" fill="none">
  <g id="group45" fill="none">
   <path id="shape30" transform="translate(506.603223930176, 482.779594875967)" fill="#ec615b" stroke="#000000" stroke-opacity="0" stroke-width="0" stroke-linecap="square" stroke-linejoin="bevel" d="M9.69678 24.3204C5.89678 19.8204 -0.603224 11.0204 4.99678 5.42041C8.99678 1.42041 16.1968 2.92041 19.4968 6.92041C22.8968 11.0204 23.5968 19.0204 18.2968 22.0204C13.7968 24.6204 7.29678 22.1204 6.49678 16.9204C6.19678 15.0204 3.29678 15.8204 3.59678 17.7204C4.79678 24.5204 13.0968 27.7204 19.0968 25.0204C26.3968 21.6204 26.6968 11.5204 22.3968 5.62041C18.2968 -0.0795949 9.29678 -2.07959 3.69678 2.62041C-4.40322 9.32041 2.59678 20.3204 7.69678 26.3204C8.79678 27.9204 10.8968 25.8204 9.69678 24.3204Z"/>
  </g>
 </g><g id="group46" transform="matrix(0.72 0 0 0.72 0 0)" fill="#000000" stroke="#73c8a9" stroke-width="1" stroke-linecap="square" stroke-linejoin="bevel">
  <g id="group47" fill="none">
   <path id="shape31" transform="translate(1104.59755486124, 271.970059810131)" fill="#5222d0" stroke="#000000" stroke-opacity="0" stroke-width="0" stroke-linecap="square" stroke-linejoin="bevel" d="M3.00245 32.7299C3.10245 23.9299 15.2024 26.5299 20.4024 27.1299C24.9024 27.6299 29.0024 27.0299 33.0024 24.8299C37.4024 22.5299 41.0024 18.9299 45.3024 16.4299C48.1024 14.7299 51.5024 13.2299 54.8024 13.2299C58.3024 13.3299 60.5024 15.4299 63.6024 16.7299C70.8024 19.6299 75.4024 12.9299 79.9024 8.52994C88.8024 -0.17006 101.502 3.42994 111.902 7.02994C113.702 7.62994 114.502 4.72994 112.702 4.12994C103.402 0.92994 91.6024 -2.57006 82.4024 2.72994C78.0024 5.22994 75.4024 9.82994 71.4024 12.7299C65.7024 16.8299 60.9024 10.3299 54.9024 10.2299C42.0024 10.0299 35.2024 24.9299 22.2024 24.2299C16.6024 23.9299 11.2024 21.8299 5.80245 24.3299C2.30245 25.9299 0.102445 28.7299 0.00244514 32.6299C-0.0975549 34.6299 2.90245 34.6299 3.00245 32.7299Z"/>
  </g>
 </g><g id="group48" transform="matrix(0.72 0 0 0.72 0 0)" fill="#000000" stroke="#73c8a9" stroke-width="1" stroke-linecap="square" stroke-linejoin="bevel">
  <g id="group49" fill="none">
   <path id="shape32" transform="translate(1179.64428764206, 278.660708448266)" fill="#5222d0" stroke="#000000" stroke-opacity="0" stroke-width="0" stroke-linecap="square" stroke-linejoin="bevel" d="M2.75571 22.6393C9.15571 13.5393 21.1557 9.13929 31.9557 12.2393C36.6557 13.6393 41.0557 17.4393 46.2557 17.1393C50.5557 16.8393 52.8557 13.3393 55.7557 10.6393C60.4557 6.33929 66.5557 2.83929 73.1557 3.03929C77.1557 3.13929 80.2557 4.63929 83.3557 7.23929C84.3557 8.13929 85.1557 8.93929 86.5557 9.33929C88.5557 9.83929 90.3557 8.93929 92.1557 8.13929C95.2557 6.73929 98.4557 5.53929 101.756 4.63929C108.556 2.93929 115.456 2.63929 122.356 3.53929C124.256 3.73929 124.256 0.739292 122.356 0.539292C115.756 -0.360708 109.156 -0.160708 102.656 1.33929C99.7557 2.03929 96.8557 2.93929 94.0557 4.03929C91.8557 4.93929 90.7557 5.53929 88.2557 5.53929C85.5557 5.53929 85.7557 5.13929 83.9557 3.73929C75.4557 -2.76071 64.0557 0.239292 56.3557 6.33929C54.2557 7.93929 52.5557 10.1393 50.5557 11.7393C45.7557 15.5393 41.9557 13.1393 37.0557 10.9393C32.8557 9.03929 28.4557 8.13929 23.8557 8.33929C14.3557 8.73929 5.75571 13.4393 0.355712 21.1393C-0.944288 22.7393 1.65571 24.2393 2.75571 22.6393Z"/>
  </g>
 </g><path id="shape33" transform="matrix(0.72 0 0 0.72 656.910890530008 695.808)" fill="#000000" stroke="#000000" stroke-opacity="0" stroke-width="0" stroke-linecap="square" stroke-linejoin="bevel" d="M52.5238 5.6C54.4238 17.6 56.3238 29.7 58.1238 41.7C18.6238 54.5 -0.776237 62.6 0.0237632 66C1.02376 70.2 32.6238 67.1 94.8238 57C91.2238 38 87.7238 19 84.1238 0C73.5238 1.8 63.0238 3.7 52.5238 5.6Z"/><path id="shape34" transform="matrix(0.72 0 0 0.72 630.710914880709 410.184)" fill="#ff6a5a" stroke="#000000" stroke-opacity="0" stroke-width="0" stroke-linecap="square" stroke-linejoin="bevel" d="M3.91262 0.5C3.21262 14.1 2.21262 33.5 1.31262 57C0.412618 81.9 -0.0873818 94.9 0.0126182 110.9C0.0126182 117.8 0.312618 145.9 3.91262 182.1C6.91262 212.6 11.6126 258.2 28.3126 314.3C34.9126 336.5 45.1126 366.3 61.0126 400.3C68.3126 401.4 76.9126 402 86.7126 401.6C105.113 400.7 120.013 396.2 130.313 392C127.313 382.2 123.113 368.3 118.713 351.6C112.813 329 95.8126 260.9 89.2126 169.4C85.9126 123.4 84.7126 66 90.5126 0C61.7126 0.1 32.8126 0.3 3.91262 0.5Z"/><path id="shape35" transform="matrix(0.72 0 0 0.72 679.213981067167 416.088)" opacity="0.09" fill="#606060" stroke="#000000" stroke-opacity="0" stroke-width="0" stroke-linecap="square" stroke-linejoin="bevel" d="M20.6472 0C18.7472 7.2 16.2472 17.6 13.5472 30.2C6.54725 63.5 -0.652751 111 0.0472485 191.3C0.447249 240.7 3.94725 309 16.7472 391.5C21.7472 391 26.8472 390.4 32.1472 389.6C43.2472 387.9 53.5472 385.7 62.9472 383.2C58.7472 369.6 52.9472 349.4 46.9472 324.8C25.6472 237.1 19.6472 162.7 18.0472 113.6C17.1472 84.4 17.1472 45.7 20.6472 0Z"/><g id="group50" transform="matrix(0.72 0 0 0.72 0 0)" fill="none">
  <g id="group51" fill="none">
   <path id="shape36" transform="translate(959.6615119844, 571.362246590766)" fill="#161616" stroke="#000000" stroke-opacity="0" stroke-width="0" stroke-linecap="square" stroke-linejoin="bevel" d="M4.63849 1.43775C-5.36151 102.638 0.838488 205.338 22.9385 304.638C29.2385 332.838 36.7385 360.638 45.5385 388.138C46.1385 389.938 49.0385 389.138 48.4385 387.338C17.6385 290.638 2.23849 189.238 3.03849 87.7378C3.23849 58.9378 4.83849 30.0378 7.63849 1.33775C7.83849 -0.462247 4.83849 -0.462247 4.63849 1.43775Z"/>
  </g>
 </g><g id="group52" transform="matrix(0.72 0 0 0.72 0 0)" fill="none">
  <g id="group53" fill="none">
   <path id="shape37" transform="translate(875.122875087132, 661.037259694348)" fill="#161616" stroke="#000000" stroke-opacity="0" stroke-width="0" stroke-linecap="square" stroke-linejoin="bevel" d="M0.677125 1.46274C-3.02288 83.4627 8.47712 165.963 34.2771 243.863C41.4771 265.663 49.8771 287.063 59.3771 307.963C60.1771 309.763 62.7771 308.163 61.9771 306.463C28.4771 231.963 8.77712 151.463 4.07712 69.9627C2.77712 47.1627 2.67712 24.3627 3.67712 1.46274C3.77712 -0.53726 0.777125 -0.43726 0.677125 1.46274Z"/>
  </g>
 </g><g id="group54" transform="matrix(0.72 0 0 0.72 0 0)" fill="none">
  <g id="group55" fill="none">
   <path id="shape38" transform="translate(935.292021412012, 959.307883375495)" fill="#161616" stroke="#000000" stroke-opacity="0" stroke-width="0" stroke-linecap="square" stroke-linejoin="bevel" d="M0.407979 10.5921C3.80798 14.3921 11.608 13.4921 16.208 13.5921C23.208 13.6921 30.308 12.9921 37.208 11.9921C44.708 10.8921 52.208 9.29212 59.608 7.49212C63.308 6.59212 71.008 6.39212 72.908 2.29212C73.708 0.592117 71.108 -1.00788 70.308 0.792117C69.408 2.89212 64.408 3.29212 62.508 3.69212C59.708 4.39212 57.008 4.99212 54.208 5.69212C48.908 6.89212 43.708 7.99212 38.408 8.79212C32.908 9.69212 27.408 10.2921 21.908 10.4921C17.708 10.6921 5.70798 11.9921 2.60798 8.49212C1.20798 6.99212 -0.892021 9.19212 0.407979 10.5921Z"/>
  </g>
 </g><path id="shape39" transform="matrix(0.72 0 0 0.72 580.307262153391 376.45371836539)" fill="#ff6a5a" stroke="#000000" stroke-opacity="0" stroke-width="0" stroke-linecap="square" stroke-linejoin="bevel" d="M44.4177 46.7476C41.5177 53.0476 37.6177 65.0476 34.8177 75.6476C31.3177 89.1476 30.4177 97.2476 28.4177 109.048C24.7177 130.848 22.2177 134.548 16.8177 158.448C11.1177 184.048 8.51769 203.748 6.51769 219.448C4.91769 231.648 2.01769 256.548 0.717691 288.748C0.117691 302.648 -0.182309 310.848 0.117691 322.148C0.917691 357.648 6.61769 385.148 9.11769 395.948C15.8177 425.648 25.6177 451.048 35.4177 471.648C39.9177 473.948 46.7177 476.848 55.3177 478.748C65.9177 481.048 79.5177 484.048 92.5177 477.448C96.1177 475.648 104.318 470.648 110.518 458.848C105.718 445.748 99.8177 427.148 95.1177 404.348C83.5177 347.748 87.7177 302.948 90.6177 274.748C96.0177 221.448 108.418 181.448 129.718 112.448C136.918 89.2476 143.318 70.4476 147.718 57.9476C149.218 48.0476 152.718 18.3476 136.818 5.94761C113.518 -12.4524 59.2177 14.8476 44.4177 46.7476Z"/><path id="shape40" transform="matrix(0.72 0 0 0.72 629.508929280874 448.416)" opacity="0.08" fill="#606060" stroke="#000000" stroke-opacity="0" stroke-width="0" stroke-linecap="square" stroke-linejoin="bevel" d="M65.282 0C58.782 10.3 49.782 25.6 40.882 44.9C29.882 68.7 13.682 110.5 4.98204 193.8C0.182043 239.3 -3.01796 303 4.38204 379.9C7.48204 380.2 20.682 381.3 31.982 372.2C37.782 367.5 40.782 362.1 42.282 358.7C37.382 345.2 31.082 325.4 26.282 300.9C12.082 229.5 20.982 172.1 27.582 132.1C32.982 98.7 43.482 52.6 65.282 0Z"/><path id="shape41" transform="matrix(0.72 0 0 0.72 574.039919443667 719.784)" fill="#000000" stroke="#000000" stroke-opacity="0" stroke-width="0" stroke-linecap="square" stroke-linejoin="bevel" d="M68.8223 1.7C72.2223 13.9 75.6223 26.2 79.0223 38.4C25.4223 54.7 -0.877666 64.9 0.0223341 68.9C1.02233 73.5 37.5223 70.1 109.522 58.7C107.622 39.1 105.722 19.6 103.922 0C92.1223 0.5 80.4223 1.1 68.8223 1.7Z"/><g id="group56" transform="matrix(0.72 0 0 0.72 0 0)" fill="none">
  <g id="group57" fill="none">
   <path id="shape42" transform="translate(804.894334369003, 569.785379957661)" fill="#161616" stroke="#000000" stroke-opacity="0" stroke-width="0" stroke-linecap="square" stroke-linejoin="bevel" d="M44.4057 1.01462C33.8057 27.8146 28.4057 56.2146 22.7057 84.4146C16.7057 113.915 10.9057 143.415 6.70567 173.215C-1.09433 228.415 -3.49433 284.915 7.20567 339.915C12.9057 369.515 22.5057 398.315 36.6057 424.915C37.5057 426.615 40.1057 425.115 39.2057 423.415C-14.2943 321.715 1.90567 202.715 23.7057 94.8146C30.0057 63.5146 35.6057 31.6146 47.4057 1.81462C48.0057 0.01462 45.1057 -0.78538 44.4057 1.01462Z"/>
  </g>
 </g><g id="group58" transform="matrix(0.72 0 0 0.72 0 0)" fill="none">
  <g id="group59" fill="none">
   <path id="shape43" transform="translate(891.652732730847, 621.550176987139)" fill="#161616" stroke="#000000" stroke-opacity="0" stroke-width="0" stroke-linecap="square" stroke-linejoin="bevel" d="M46.6473 1.04982C13.1473 90.3498 -9.25273 186.35 3.74727 282.05C7.34727 308.45 13.6473 334.35 22.8473 359.35C23.5473 361.15 26.4473 360.35 25.7473 358.55C-7.55273 268.65 -0.752733 170.05 24.2473 78.9498C31.4473 52.8498 40.0473 27.1498 49.5473 1.74982C50.2473 -0.050177 47.3473 -0.750177 46.6473 1.04982Z"/>
  </g>
 </g><g id="group60" transform="matrix(0.72 0 0 0.72 0 0)" fill="none">
  <g id="group61" fill="none">
   <path id="shape44" transform="translate(841.055156914065, 979.275)" fill="#161616" stroke="#000000" stroke-opacity="0" stroke-width="0" stroke-linecap="square" stroke-linejoin="bevel" d="M0.744843 15.325C14.8448 23.125 31.0448 26.425 47.0448 24.325C60.1448 22.525 75.3448 16.525 76.6448 1.425C76.8448 -0.475 73.8448 -0.475 73.6448 1.425C72.2448 17.125 53.2448 21.325 40.3448 21.925C27.0448 22.525 13.9448 19.225 2.34484 12.725C0.544843 11.825 -0.955157 14.425 0.744843 15.325Z"/>
  </g>
 </g><path id="shape45" transform="matrix(0.72 0 0 0.72 607.536 208.835153144408)" fill="#ad4d6f" stroke="#000000" stroke-opacity="0" stroke-width="0" stroke-linecap="square" stroke-linejoin="bevel" d="M27.2 18.9512C24.5 22.1512 20.7 27.0512 17.1 33.5512C4.8 55.1512 4 76.3512 3.8 94.9512C3.6 122.051 3.4 135.651 6.3 165.151C9 192.751 9.7 232.351 0 282.851C8.7 289.251 21.4 296.651 38 300.551C85.8 311.751 125.4 283.851 132.9 278.451C123.4 222.751 118.2 178.151 115.2 146.851C113.3 127.051 106.3 98.2512 92.4 40.5512C88.2 22.9512 83.9 6.15118 70.9 1.35118C52.9 -5.44882 30.8 15.4512 27.2 18.9512Z"/><path id="shape46" transform="matrix(0.72 0 0 0.72 658.224 210.816)" opacity="0.1" fill="#606060" stroke="#000000" stroke-opacity="0" stroke-width="0" stroke-linecap="square" stroke-linejoin="bevel" d="M0 0C1.6 6.5 3.9 16.3 6.2 28.4C9.2 44 13.2 67.6 16 102.7C18.9 138.9 22.2 206.8 23.2 294.6C30 292.6 38.2 289.6 46.9 284.8C52.7 281.6 57.7 278.2 61.9 275C61.2 267.3 59.9 255.6 57.8 241.5C55.1 223.8 52.4 211.5 51.1 205.4C47.9 189.6 44.3 166 43.9 133.2C39.8 115.8 36.7 101.8 34.6 92.5C28.8 66.1 27.1 56.4 22.7 40.4C18.3 24.3 13.7 11.5 10.8 3.8C7.2 2.4 3.6 1.2 0 0Z"/><path id="shape47" transform="matrix(0.72 0 0 0.72 626.539478946589 222.88201034722)" fill="#b29e79" stroke="#000000" stroke-opacity="0" stroke-width="0" stroke-linecap="square" stroke-linejoin="bevel" d="M0.706279 9.04165C1.60628 10.8417 3.10628 11.4417 6.40628 13.0417C9.20628 14.4417 11.9063 16.1417 14.7063 17.3417C23.3063 21.0417 33.4063 37.4417 35.0063 40.0417C41.1063 49.9417 48.2063 61.5417 52.3063 78.3417C53.4063 82.7417 55.9063 94.1417 53.0063 132.642C49.9063 172.142 45.9063 177.642 49.0063 197.342C51.3063 211.642 54.2063 228.742 68.3063 238.042C81.4063 246.642 96.5063 243.642 99.6063 243.042C118.606 239.342 129.406 224.642 139.906 210.342C155.906 188.642 162.006 166.942 164.606 154.342C165.806 148.442 165.606 131.142 165.306 96.6417C164.906 61.0417 164.306 48.7417 155.006 38.3417C148.706 31.3417 141.006 28.0417 135.706 26.3417C136.106 24.1417 136.206 20.8417 134.406 18.0417C131.006 12.8417 122.906 12.9417 117.706 13.0417C95.4063 13.6417 78.8063 28.6417 78.0063 29.3417C64.1063 42.2417 60.0063 58.0417 58.7063 64.6417C55.9063 52.2417 51.3063 42.7417 47.7063 36.6417C44.6063 31.3417 40.0063 25.9417 30.7063 14.9417C23.4063 6.34165 19.9063 3.04165 14.4063 1.24165C13.2063 0.841652 4.10628 -1.85835 1.10628 2.24165C-0.293721 4.14165 -0.293721 7.04165 0.706279 9.04165Z"/><path id="shape48" transform="matrix(0.72 0 0 0.72 626.519042346182 226.527894191544)" opacity="0.11" fill="#606060" stroke="#000000" stroke-opacity="0" stroke-width="0" stroke-linecap="square" stroke-linejoin="bevel" d="M0.0346634 0.277925C0.634663 -0.822075 7.33466 1.67792 8.03466 1.97792C17.9347 5.77792 26.7347 13.6779 38.0347 31.9779C43.8347 41.3779 51.1347 54.6779 57.3347 71.9779C61.7347 67.4779 65.4347 63.7779 68.3347 60.9779C68.3347 60.9779 79.0347 50.6779 96.3347 40.6779C98.0347 39.6779 100.135 38.4779 101.635 39.3779C104.735 41.0779 101.435 49.3779 102.335 57.0779C103.035 62.8779 106.435 70.8779 119.335 79.7779C119.635 81.4779 119.735 83.8779 118.335 85.4779C115.535 88.5779 108.335 86.0779 104.635 84.7779C98.6347 82.6779 87.0347 77.1779 73.3347 61.0779C72.0347 66.2779 70.3347 73.6779 69.0347 82.7779C67.8347 90.6779 64.5347 116.978 70.0347 150.778C72.2347 164.178 76.3347 182.078 84.7347 202.478C88.4347 204.078 93.1347 205.578 98.7347 206.478C110.435 208.278 120.135 205.978 125.735 204.178C122.435 205.778 117.935 208.478 114.035 213.178C109.335 218.878 109.235 223.178 105.335 228.478C102.735 232.078 98.0347 236.578 89.3347 239.778C86.6347 239.478 82.5347 238.778 78.0347 236.778C64.3347 230.678 58.1347 217.778 55.3347 211.778C51.6347 203.678 45.9347 187.278 51.3347 131.778C54.4347 100.078 57.8347 90.1779 52.6347 72.0779C48.6347 58.1779 41.7347 46.6779 39.3347 42.7779C35.0347 35.7779 27.3347 23.2779 13.3347 11.7779C6.73466 6.17792 -0.565337 1.57792 0.0346634 0.277925Z"/><path id="shape49" transform="matrix(0.72 0 0 0.72 700.491621591756 236.16)" fill="#000000" stroke="#000000" stroke-opacity="0" stroke-width="0" stroke-linecap="square" stroke-linejoin="bevel" d="M8.79497 9.3C6.99497 11.7 4.69497 15.2 2.89497 19.8C1.89497 22.5 -0.50503 28.8 0.09497 36.8C1.19497 52.7 12.595 62.4 14.695 64.1C16.095 65.2 17.295 66.1 18.095 66.6C16.895 70.7 15.495 76.8 14.995 84.3C14.195 94.9 13.395 106.8 19.595 110.3C23.595 112.5 29.595 111 32.895 107.8C33.695 107 35.995 104.5 36.595 93.2C37.295 79.8 34.495 74.2 38.495 70.3C40.195 68.5 43.095 67.4 45.595 66.3C48.395 65.1 50.895 64.5 52.695 64.1C51.595 72.3 50.795 79.6 50.195 85.5C49.495 92.8 49.195 96.5 51.695 98.8C53.995 100.9 57.795 101.3 60.695 100C64.495 98.3 65.695 93.6 67.795 84.2C69.495 76.8 70.895 70.6 69.995 62.2C69.495 57.9 68.595 54.4 67.795 52C67.595 50.3 67.095 47.8 66.295 44.9C64.595 39.1 62.995 37.4 61.995 33.7C60.495 28.4 62.195 25.8 62.595 19.8C62.995 15.1 62.595 8.4 59.195 0C57.895 0.1 55.195 0.3 52.395 2.2C48.995 4.4 47.595 7.6 47.095 8.7C44.495 8.1 39.795 7.5 34.395 9C25.095 11.5 20.195 18.4 18.895 20.5C21.495 14.8 19.295 9.2 15.795 7.8C12.795 6.5 9.19497 9.1 8.79497 9.3Z"/><g id="group62" transform="matrix(0.72 0 0 0.72 0 0)" fill="none">
  <g id="group63" fill="none">
   <path id="shape50" transform="translate(990.21340087506, 361.547190626525)" fill="#ffffff" stroke="#000000" stroke-opacity="0" stroke-width="0" stroke-linecap="square" stroke-linejoin="bevel" d="M2.7866 6.75281C3.7866 4.85281 8.7866 0.652809 10.4866 4.15281C11.2866 5.85281 13.8866 4.35281 13.0866 2.65281C11.9866 0.352809 9.2866 -0.347191 6.8866 0.152809C3.9866 0.652809 1.5866 2.65281 0.186599 5.25281C-0.713401 6.95281 1.8866 8.45281 2.7866 6.75281Z"/>
  </g>
 </g><g id="group64" transform="matrix(0.72 0 0 0.72 0 0)" fill="none">
  <g id="group65" fill="none">
   <path id="shape51" transform="translate(1019.54895145319, 352.546938163834)" fill="#ffffff" stroke="#000000" stroke-opacity="0" stroke-width="0" stroke-linecap="square" stroke-linejoin="bevel" d="M2.75105 8.05306C3.35105 6.75306 3.95105 5.25306 4.95105 4.25306C5.95105 3.25306 8.95105 2.15306 9.05105 4.45306C9.15105 6.35306 12.151 6.35306 12.051 4.45306C11.851 1.55306 9.35105 -0.346938 6.45105 0.0530618C3.15105 0.653062 1.45105 3.65306 0.151049 6.45306C-0.648951 8.25306 1.95105 9.85306 2.75105 8.05306Z"/>
  </g>
 </g><g id="group66" transform="matrix(0.72 0 0 0.72 0 0)" fill="none">
  <g id="group67" fill="none">
   <path id="shape52" transform="translate(1020.21344736058, 368.145360218225)" fill="#ffffff" stroke="#000000" stroke-opacity="0" stroke-width="0" stroke-linecap="square" stroke-linejoin="bevel" d="M2.88655 1.95464C2.88655 2.05464 2.88655 2.15464 2.88655 2.25464C2.68655 2.45464 2.48655 2.65464 2.38655 2.75464C1.88655 3.05464 1.08655 2.75464 1.18655 2.15464C1.18655 2.15464 1.18655 1.85464 1.28655 1.95464C1.28655 1.95464 0.986553 2.25464 0.986553 2.25464C1.68655 2.25464 2.38655 2.25464 3.08655 2.25464C2.98655 2.15464 2.98655 2.15464 2.88655 2.05464C2.98655 2.15464 2.98655 2.15464 2.98655 2.15464C2.88655 2.05464 2.98655 2.05464 2.98655 2.25464C3.08655 2.85464 2.78655 3.25464 1.98655 3.55464C1.68655 3.45464 1.48655 3.45464 1.18655 3.35464C0.786553 3.15464 0.886553 2.55464 0.986553 2.25464C1.08655 2.15464 0.986553 2.15464 0.886553 2.35464C0.986553 2.25464 0.986553 2.25464 0.886553 2.35464C0.186553 2.85464 -0.113447 3.65464 0.386553 4.45464C0.786553 5.05464 1.78655 5.45464 2.48655 4.95464C3.18655 4.45464 3.88655 3.75464 3.98655 2.75464C3.98655 1.65464 3.18655 0.65464 2.08655 0.65464C0.986553 0.65464 0.186553 1.35464 0.0865526 2.45464C-0.0134474 3.25464 0.486553 3.95464 0.986553 4.45464C1.58655 5.05464 2.48655 4.95464 3.08655 4.45464C4.38655 3.45464 4.68655 1.35464 3.18655 0.35464C2.48655 -0.0453602 1.58655 -0.14536 0.886553 0.25464C-0.0134474 0.75464 -0.113447 1.95464 0.0865526 2.85464C0.186553 3.65464 1.18655 4.05464 1.88655 3.85464C2.68655 3.55464 2.98655 2.75464 2.88655 1.95464Z"/>
  </g>
 </g><g id="group68" transform="matrix(0.72 0 0 0.72 0 0)" fill="none">
  <g id="group69" fill="none">
   <path id="shape53" transform="translate(995.534226540214, 370.615965873791)" fill="#ffffff" stroke="#000000" stroke-opacity="0" stroke-width="0" stroke-linecap="square" stroke-linejoin="bevel" d="M11.5658 2.58403C8.66577 4.28403 4.76577 3.48403 2.86577 0.684034C1.76577 -0.915966 -0.834227 0.584034 0.265773 2.18403C3.16577 6.28403 8.66577 7.68403 13.1658 5.18403C14.7658 4.18403 13.2658 1.58403 11.5658 2.58403Z"/>
  </g>
 </g><g id="group70" transform="matrix(0.72 0 0 0.72 0 0)" fill="none">
  <g id="group71" fill="none">
   <path id="shape54" transform="translate(999.31340087506, 379.286651216717)" fill="#ffffff" stroke="#000000" stroke-opacity="0" stroke-width="0" stroke-linecap="square" stroke-linejoin="bevel" d="M5.5866 0.413349C3.3866 2.11335 1.4866 4.31335 0.186599 6.81335C-0.713401 8.51335 1.8866 10.0133 2.7866 8.31335C3.9866 6.01335 5.6866 4.11335 7.7866 2.51335C8.3866 2.01335 8.2866 0.913349 7.7866 0.413349C7.0866 -0.186651 6.1866 -0.0866512 5.5866 0.413349Z"/>
  </g>
 </g><g id="group72" transform="matrix(0.72 0 0 0.72 0 0)" fill="none">
  <g id="group73" fill="none">
   <path id="shape55" transform="translate(1026.74169361131, 359.085379957661)" fill="#ffffff" stroke="#000000" stroke-opacity="0" stroke-width="0" stroke-linecap="square" stroke-linejoin="bevel" d="M2.45831 9.61462C4.45831 7.31462 5.95831 4.71462 6.95831 1.81462C7.55831 0.01462 4.65831 -0.78538 4.05831 1.01462C3.25831 3.41462 1.95831 5.61462 0.358306 7.51462C-0.841694 9.01462 1.25831 11.1146 2.45831 9.61462Z"/>
  </g>
 </g><g id="group74" transform="matrix(0.72 0 0 0.72 0 0)" fill="none">
  <g id="group75" fill="none">
   <path id="shape56" transform="translate(1027.49140149163, 369.080432170184)" fill="#ffffff" stroke="#000000" stroke-opacity="0" stroke-width="0" stroke-linecap="square" stroke-linejoin="bevel" d="M1.9086 3.41957C4.3086 2.91957 7.1086 2.31957 9.0086 4.31957C10.3086 5.71957 12.4086 3.61957 11.1086 2.21957C8.4086 -0.680432 4.5086 -0.180432 1.0086 0.619568C-0.791401 0.919568 0.00859851 3.81957 1.9086 3.41957Z"/>
  </g>
 </g><g id="group76" transform="matrix(0.72 0 0 0.72 0 0)" fill="none">
  <g id="group77" fill="none">
   <path id="shape57" transform="translate(866.875084422619, 309.201076447309)" fill="#161616" stroke="#000000" stroke-opacity="0" stroke-width="0" stroke-linecap="square" stroke-linejoin="bevel" d="M2.82492 7.09892C7.42492 -0.101076 18.3249 4.19892 23.8249 7.79892C30.4249 11.9989 35.4249 18.2989 39.9249 24.5989C49.0249 37.2989 57.1249 51.0989 60.1249 66.5989C60.5249 68.4989 63.4249 67.6989 63.0249 65.7989C59.5249 47.2989 48.7249 29.4989 36.5249 15.2989C29.4249 7.09892 9.32492 -8.40108 0.224916 5.69892C-0.775084 7.19892 1.82492 8.79892 2.82492 7.09892Z"/>
  </g>
 </g><g id="group78" transform="matrix(0.72 0 0 0.72 0 0)" fill="none">
  <g id="group79" fill="none">
   <path id="shape58" transform="translate(875.152180888418, 320.275084422619)" fill="#161616" stroke="#000000" stroke-opacity="0" stroke-width="0" stroke-linecap="square" stroke-linejoin="bevel" d="M0.747819 2.82492C24.7478 16.3249 38.2478 41.6249 45.0478 67.4249C45.5478 69.3249 48.4478 68.5249 47.9478 66.6249C40.9478 40.1249 26.8478 14.0249 2.24782 0.224916C0.547819 -0.775084 -0.952181 1.82492 0.747819 2.82492Z"/>
  </g>
 </g><g id="group80" transform="matrix(0.72 0 0 0.72 0 0)" fill="none">
  <g id="group81" fill="none">
   <path id="shape59" transform="translate(927.062202949482, 321.333571723448)" fill="#161616" stroke="#000000" stroke-opacity="0" stroke-width="0" stroke-linecap="square" stroke-linejoin="bevel" d="M2.8378 53.1664C5.3378 35.4664 16.6378 20.6664 32.1378 12.1664C40.1378 7.76643 49.0378 5.06643 58.1378 3.76643C62.4378 3.16643 67.4378 2.56643 71.6378 4.16643C76.2378 5.86643 80.6378 13.1664 74.8378 16.4664C73.1378 17.3664 74.6378 19.9664 76.3378 19.0664C82.7378 15.4664 81.1378 6.26643 75.5378 2.76643C66.8378 -2.73357 52.4378 1.16643 43.5378 4.16643C21.5378 11.2664 3.3378 29.0664 0.0377971 52.5664C-0.362203 54.2664 2.5378 55.0664 2.8378 53.1664Z"/>
  </g>
 </g><g id="group82" transform="matrix(0.72 0 0 0.72 0 0)" fill="none">
  <g id="group83" fill="none">
   <path id="shape60" transform="translate(934.090942332995, 351.462229493313)" fill="#161616" stroke="#000000" stroke-opacity="0" stroke-width="0" stroke-linecap="square" stroke-linejoin="bevel" d="M2.50906 27.5378C7.40906 21.8378 13.6091 17.0378 19.6091 12.5378C25.4091 8.13777 31.6091 4.53777 38.8091 2.93777C40.7091 2.53777 39.9091 -0.362229 38.0091 0.0377705C30.6091 1.73777 24.1091 5.43777 18.1091 9.93777C11.9091 14.6378 5.50906 19.5378 0.409058 25.4378C-0.890942 26.8378 1.20906 29.0378 2.50906 27.5378Z"/>
  </g>
 </g><g id="group84" transform="matrix(0.72 0 0 0.72 0 0)" fill="none">
  <g id="group85" fill="none">
   <path id="shape61" transform="translate(970.548951453186, 333.568327847753)" fill="#161616" stroke="#000000" stroke-opacity="0" stroke-width="0" stroke-linecap="square" stroke-linejoin="bevel" d="M2.75105 21.1317C4.85105 16.3317 7.55105 11.7317 10.851 7.63167C11.451 6.93167 12.151 5.73167 12.951 5.23167C13.651 3.93167 14.551 3.83167 15.851 5.03167C17.451 5.03167 18.151 5.63167 18.151 7.03167C19.251 9.13167 19.351 12.7317 19.751 15.1317C20.151 17.0317 23.051 16.2317 22.651 14.3317C21.851 10.5317 20.851 -3.06833 13.651 0.631672C10.851 2.03167 8.75105 5.53167 6.95105 7.93167C4.25105 11.6317 2.05105 15.5317 0.151049 19.6317C-0.648951 21.3317 1.95105 22.9317 2.75105 21.1317Z"/>
  </g>
 </g><g id="group86" transform="matrix(0.72 0 0 0.72 0 0)" fill="none">
  <g id="group87" fill="none">
   <path id="shape62" transform="translate(990.091119482771, 334.507249223269)" fill="#161616" stroke="#000000" stroke-opacity="0" stroke-width="0" stroke-linecap="square" stroke-linejoin="bevel" d="M2.50888 15.0928C7.60888 8.49275 18.0089 -0.607249 26.9089 4.29275C28.6089 5.19275 30.1089 2.59275 28.4089 1.69275C18.1089 -3.80725 6.50888 5.19275 0.308881 12.9928C-0.791119 14.4928 1.30888 16.5928 2.50888 15.0928Z"/>
  </g>
 </g><g id="group88" transform="matrix(0.72 0 0 0.72 0 0)" fill="none">
  <g id="group89" fill="none">
   <path id="shape63" transform="translate(1017.13374485235, 326.602053440679)" fill="#161616" stroke="#000000" stroke-opacity="0" stroke-width="0" stroke-linecap="square" stroke-linejoin="bevel" d="M2.76626 11.6979C4.16626 9.49795 10.6663 1.59795 13.4663 3.69795C14.9663 4.79795 15.2663 8.69795 15.6663 10.4979C16.2663 13.2979 16.4663 16.0979 16.5663 18.9979C16.6663 20.8979 19.6663 20.8979 19.5663 18.9979C19.4663 14.9979 18.9663 11.0979 17.9663 7.19795C17.3663 4.99795 16.8663 0.797947 14.2663 0.0979466C11.8663 -0.502053 8.56626 1.79795 6.76626 3.09795C4.06626 4.99795 1.96626 7.39795 0.266255 10.1979C-0.833745 11.7979 1.76626 13.2979 2.76626 11.6979Z"/>
  </g>
 </g><g id="group90" transform="matrix(0.72 0 0 0.72 0 0)" fill="none">
  <g id="group91" fill="none">
   <path id="shape64" transform="translate(940.037040559001, 371.590942332996)" fill="#161616" stroke="#000000" stroke-opacity="0" stroke-width="0" stroke-linecap="square" stroke-linejoin="bevel" d="M0.462959 2.50906C7.36296 9.20906 14.663 15.4091 22.463 21.0091C30.163 26.5091 37.663 30.4091 47.363 29.9091C49.263 29.8091 49.263 26.8091 47.363 26.9091C37.463 27.4091 30.163 23.0091 22.463 17.4091C15.363 12.2091 8.76296 6.50906 2.46296 0.409058C1.16296 -0.890942 -0.937041 1.20906 0.462959 2.50906Z"/>
  </g>
 </g><g id="group92" transform="matrix(0.72 0 0 0.72 0 0)" fill="none">
  <g id="group93" fill="none">
   <path id="shape65" transform="translate(916.690593727019, 382.534894213641)" fill="#161616" stroke="#000000" stroke-opacity="0" stroke-width="0" stroke-linecap="square" stroke-linejoin="bevel" d="M3.60941 1.86511C14.5094 50.2651 -13.8906 103.165 9.60941 149.465C14.0094 158.165 20.7094 166.065 29.9094 169.965C38.9094 173.765 49.3094 173.465 58.6094 170.465C79.2094 163.865 92.5094 144.765 102.709 126.765C109.209 115.465 114.609 103.365 117.809 90.6651C119.409 84.3651 120.409 77.7651 120.709 71.2651C121.009 63.7651 120.009 56.2651 120.309 48.7651C120.409 46.8651 117.409 46.8651 117.309 48.7651C116.909 60.9651 118.509 72.5651 116.109 84.6651C114.009 95.4651 110.109 105.965 105.209 115.765C96.1094 134.165 83.8094 154.865 64.9094 164.565C55.1094 169.565 43.0094 171.465 32.5094 167.565C22.2094 163.765 15.4094 154.665 11.0094 144.965C1.60941 123.865 2.70941 99.8651 5.20941 77.4651C8.00941 52.0651 12.4094 26.3651 6.70941 0.965106C6.00941 -0.734894 3.10941 -0.0348942 3.60941 1.86511Z"/>
  </g>
 </g><g id="group94" transform="matrix(0.72 0 0 0.72 0 0)" fill="none">
  <g id="group95" fill="none">
   <path id="shape66" transform="translate(953.878267208496, 483.815965873791)" fill="#161616" stroke="#000000" stroke-opacity="0" stroke-width="0" stroke-linecap="square" stroke-linejoin="bevel" d="M10.9217 0.684034C5.32173 10.484 1.62173 21.084 0.0217328 32.284C-0.278267 34.184 2.62173 34.984 2.92173 33.084C4.52173 22.084 8.02173 11.784 13.5217 2.18403C14.5217 0.584034 11.9217 -0.915966 10.9217 0.684034Z"/>
  </g>
 </g><g id="group96" transform="matrix(0.72 0 0 0.72 0 0)" fill="none">
  <g id="group97" fill="none">
   <path id="shape67" transform="translate(965.275, 479.579770101719)" fill="#161616" stroke="#000000" stroke-opacity="0" stroke-width="0" stroke-linecap="square" stroke-linejoin="bevel" d="M1.425 6.02023C16.225 4.72023 31.825 1.92023 46.625 3.52023C48.525 3.72023 48.525 0.72023 46.625 0.52023C31.825 -1.17977 16.225 1.72023 1.425 3.02023C-0.475 3.22023 -0.475 6.22023 1.425 6.02023Z"/>
  </g>
 </g><g id="group98" transform="matrix(0.72 0 0 0.72 0 0)" fill="none">
  <g id="group99" fill="none">
   <path id="shape68" transform="translate(954.715965873791, 513.875084422619)" fill="#161616" stroke="#000000" stroke-opacity="0" stroke-width="0" stroke-linecap="square" stroke-linejoin="bevel" d="M0.684034 4.92492C7.98403 9.22492 16.484 8.82492 24.684 8.62492C33.284 8.32492 41.884 7.32492 49.384 2.82492C51.084 1.82492 49.484 -0.775084 47.884 0.224916C40.784 4.52492 32.784 5.32492 24.684 5.62492C17.084 5.92492 9.08403 6.42492 2.18403 2.42492C0.584034 1.42492 -0.915966 4.02492 0.684034 4.92492Z"/>
  </g>
 </g><g id="group100" transform="matrix(0.72 0 0 0.72 0 0)" fill="none">
  <g id="group101" fill="none">
   <path id="shape69" transform="translate(1001.69183993314, 481.313594176221)" fill="#161616" stroke="#000000" stroke-opacity="0" stroke-width="0" stroke-linecap="square" stroke-linejoin="bevel" d="M8.80816 1.08641C6.90816 12.0864 4.00816 22.6864 0.10816 33.0864C-0.59184 34.8864 2.30816 35.6864 3.00816 33.8864C7.00816 23.4864 9.90816 12.7864 11.7082 1.88641C12.0082 -0.0135942 9.10816 -0.813594 8.80816 1.08641Z"/>
  </g>
 </g><g id="group102" transform="matrix(0.72 0 0 0.72 0 0)" fill="none">
  <g id="group103" fill="none">
   <path id="shape70" transform="translate(963.848951453186, 487.374579471168)" fill="#161616" stroke="#000000" stroke-opacity="0" stroke-width="0" stroke-linecap="square" stroke-linejoin="bevel" d="M0.151049 2.32542C5.05105 13.1254 18.951 15.8254 29.651 15.9254C31.551 15.9254 31.551 12.9254 29.651 12.9254C20.051 12.7254 7.15105 10.5254 2.75105 0.725421C1.95105 -0.974579 -0.648951 0.625421 0.151049 2.32542Z"/>
  </g>
 </g><g id="group104" transform="matrix(0.72 0 0 0.72 0 0)" fill="none">
  <g id="group105" fill="none">
   <path id="shape71" transform="translate(984.69043334155, 497.975)" fill="#161616" stroke="#000000" stroke-opacity="0" stroke-width="0" stroke-linecap="square" stroke-linejoin="bevel" d="M0.909567 1.425C0.609567 3.925 0.309567 6.425 0.00956666 8.825C-0.190433 10.725 2.80957 10.725 3.00957 8.825C3.30957 6.325 3.60957 3.825 3.90957 1.425C4.10957 -0.475 1.10957 -0.475 0.909567 1.425Z"/>
  </g>
 </g><g id="group106" transform="matrix(0.72 0 0 0.72 0 0)" fill="none">
  <g id="group107" fill="none">
   <path id="shape72" transform="translate(990.49043334155, 497.975)" fill="#161616" stroke="#000000" stroke-opacity="0" stroke-width="0" stroke-linecap="square" stroke-linejoin="bevel" d="M0.809567 1.425C0.509567 3.925 0.209567 6.425 0.00956666 8.925C-0.190433 10.825 2.80957 10.825 3.00957 8.925C3.30957 6.425 3.60957 3.925 3.80957 1.425C4.00957 -0.475 1.00957 -0.475 0.809567 1.425Z"/>
  </g>
 </g><g id="group108" transform="matrix(0.72 0 0 0.72 0 0)" fill="none">
  <g id="group109" fill="none">
   <path id="shape73" transform="translate(992.013594176221, 489.152180888418)" fill="#161616" stroke="#000000" stroke-opacity="0" stroke-width="0" stroke-linecap="square" stroke-linejoin="bevel" d="M1.88641 14.4478C8.98641 12.8478 14.8864 8.44782 18.5864 2.24782C19.5864 0.547819 16.9864 -0.952181 15.9864 0.747819C12.5864 6.34782 7.38641 10.0478 1.08641 11.5478C-0.813594 12.0478 -0.0135942 14.9478 1.88641 14.4478Z"/>
  </g>
 </g><g id="group110" transform="matrix(0.72 0 0 0.72 0 0)" fill="none">
  <g id="group111" fill="none">
   <path id="shape74" transform="translate(971.022168154997, 348.213594176221)" fill="#161616" stroke="#000000" stroke-opacity="0" stroke-width="0" stroke-linecap="square" stroke-linejoin="bevel" d="M0.977832 1.08641C-2.02217 18.7864 1.27783 39.8864 19.3778 47.9864C21.0778 48.7864 22.6778 46.1864 20.8778 45.3864C3.97783 37.7864 1.07783 18.2864 3.87783 1.88641C4.17783 -0.0135942 1.27783 -0.813594 0.977832 1.08641Z"/>
  </g>
 </g><g id="group112" transform="matrix(0.72 0 0 0.72 0 0)" fill="none">
  <g id="group113" fill="none">
   <path id="shape75" transform="translate(1033.49755530126, 342.987259589037)" fill="#161616" stroke="#000000" stroke-opacity="0" stroke-width="0" stroke-linecap="square" stroke-linejoin="bevel" d="M0.0024447 1.51274C0.202445 7.21274 0.102445 13.0127 0.902445 18.6127C1.70244 24.7127 7.20244 31.5127 4.30244 37.6127C3.50244 39.3127 6.10244 40.9127 6.90244 39.1127C9.50244 33.6127 7.20244 29.0127 5.30244 23.6127C2.80244 16.7127 3.40244 8.71274 3.10244 1.41274C2.90244 -0.48726 -0.0975553 -0.48726 0.0024447 1.51274Z"/>
  </g>
 </g><g id="group114" transform="matrix(0.72 0 0 0.72 0 0)" fill="none">
  <g id="group115" fill="none">
   <path id="shape76" transform="translate(998.034314575051, 392.442080026433)" fill="#ffffff" stroke="#000000" stroke-opacity="0" stroke-width="0" stroke-linecap="square" stroke-linejoin="bevel" d="M0.565685 1.65792C4.96569 -0.64208 9.96569 1.75792 10.9657 6.55792C11.0657 7.05792 11.7657 6.85792 11.6657 6.35792C10.4657 1.05792 4.96569 -1.54208 0.165685 0.95792C-0.234315 1.25792 0.165685 1.95792 0.565685 1.65792Z"/>
  </g>
 </g><g id="group116" transform="matrix(0.72 0 0 0.72 0 0)" fill="none">
  <g id="group117" fill="none">
   <path id="shape77" transform="translate(1006.06680028988, 398.566800289878)" fill="#ffffff" stroke="#000000" stroke-opacity="0" stroke-width="0" stroke-linecap="square" stroke-linejoin="bevel" d="M0.1332 0.6332C0.8332 1.4332 1.3332 2.3332 1.6332 3.3332C1.8332 3.8332 2.5332 3.6332 2.3332 3.1332C1.9332 2.0332 1.3332 1.0332 0.6332 0.1332C0.3332 -0.2668 -0.2668 0.3332 0.1332 0.6332Z"/>
  </g>
 </g><g id="group118" transform="matrix(0.72 0 0 0.72 0 0)" fill="none">
  <g id="group119" fill="none">
   <path id="shape78" transform="translate(1025.59025164225, 382.126319185075)" fill="#ffffff" stroke="#000000" stroke-opacity="0" stroke-width="0" stroke-linecap="square" stroke-linejoin="bevel" d="M0.709748 10.0737C1.60975 5.97368 4.20975 2.57368 8.00975 0.673681C8.40975 0.473681 8.10975 -0.226319 7.60975 0.0736808C3.60975 1.97368 0.909748 5.57368 0.00974836 9.87368C-0.0902516 10.3737 0.609748 10.5737 0.709748 10.0737Z"/>
  </g>
 </g><path id="shape79" transform="matrix(0.72 0 0 0.72 584.856 127.256688060397)" fill="#8e6a49" stroke="#000000" stroke-opacity="0" stroke-width="0" stroke-linecap="square" stroke-linejoin="bevel" d="M37.9 3.4546C31 6.9546 25.2 13.5546 22.6 16.4546C16.2 23.7546 12.9 30.5546 9.3 38.1546C6.3 44.3546 2.8 53.1546 0 64.1546C3.9 64.8546 7.8 65.4546 11.7 66.1546C11.5 69.9546 11.5 75.5546 13 82.1546C14.4 88.1546 16.7 97.7546 24.7 104.455C35.7 113.855 50.3 111.555 53 111.155C53.2 115.855 54.2 122.555 58 129.455C59 131.155 60 132.755 61 134.155C66.5 132.555 75 129.255 83.3 122.455C104.5 105.355 107.4 79.8546 108.3 72.4546C109.6 61.0546 112.1 39.5546 98 21.7546C83.3 3.3546 55.4 -5.3454 37.9 3.4546Z"/><path id="shape80" transform="matrix(0.72 0 0 0.72 588.671776082342 114.535772736005)" fill="#73c8a9" stroke="#000000" stroke-opacity="0" stroke-width="0" stroke-linecap="square" stroke-linejoin="bevel" d="M12.1003 41.9225C14.9003 37.7225 20.3003 31.5225 26.4003 27.2225C36.2003 20.3225 40.6003 23.2225 45.6003 17.1225C49.2003 12.7225 51.5003 5.52254 48.8003 2.12254C44.5003 -3.27746 29.2003 3.22254 27.2003 4.12254C22.8003 6.02254 8.30031 12.1225 2.50031 27.5225C-2.29969 40.4225 0.900311 54.5225 3.10031 54.8225C3.70031 54.9225 4.10031 53.9225 7.30031 49.0225C8.80031 46.5225 10.5003 44.2225 12.1003 41.9225Z"/><path id="shape81" transform="matrix(0.72 0 0 0.72 612.494684729906 111.286149952649)" fill="#73c8a9" stroke="#000000" stroke-opacity="0" stroke-width="0" stroke-linecap="square" stroke-linejoin="bevel" d="M0.812938 16.3359C0.0129379 18.9359 -1.18706 24.1359 2.81294 34.3359C9.91294 52.6359 26.5129 69.0359 34.8129 66.0359C36.6129 65.3359 38.5129 63.5359 42.1129 63.3359C43.0129 63.3359 46.6129 63.1359 49.4129 65.3359C53.8129 68.8359 54.0129 76.4359 51.1129 81.3359C50.6129 82.2359 47.9129 86.3359 43.8129 86.6359C40.2129 86.9359 39.0129 84.1359 36.1129 83.9359C29.0129 83.5359 22.9129 99.1359 22.1129 101.236C20.5129 105.236 16.6129 115.636 19.4129 128.936C20.0129 131.836 21.4129 137.936 25.7129 144.236C35.0129 157.736 50.6129 161.036 56.4129 162.236C62.1129 163.436 83.8129 167.936 100.713 153.936C103.413 151.736 112.313 144.136 114.713 131.236C118.813 109.436 100.513 93.1359 99.4129 92.2359C98.6129 80.9359 95.9129 62.9359 86.4129 43.2359C80.4129 30.7359 74.8129 19.2359 62.1129 10.5359C45.4129 -0.764097 21.1129 -3.9641 8.41294 5.8359C7.11294 7.0359 2.81294 10.4359 0.812938 16.3359Z"/><path id="shape82" transform="matrix(0.72 0 0 0.72 594.488589797771 200.304)" fill="#73c8a9" stroke="#000000" stroke-opacity="0" stroke-width="0" stroke-linecap="square" stroke-linejoin="bevel" d="M6.8214 0C5.3214 1.5 0.921403 6.1 0.121403 13.3C-0.978597 23.3 5.7214 30.2 7.1214 31.6C14.4214 39.1 26.6214 42.1 35.4214 37.6C36.1214 37.3 43.8214 33.2 44.1214 27.3C44.2214 24.7 42.8214 23.4 40.8214 17.6C39.5214 13.8 38.7214 10.7 38.1214 8.6C35.4214 9.5 30.8214 10.7 25.1214 9.9C14.9214 8.6 8.6214 2 6.8214 0Z"/><path id="shape83" transform="matrix(0.72 0 0 0.72 613.8 129.384)" opacity="0.12" fill="#606060" stroke="#000000" stroke-opacity="0" stroke-width="0" stroke-linecap="square" stroke-linejoin="bevel" d="M0 0C0.1 3.1 0.5 7.7 2.6 12.6C4 15.9 5.4 17.9 6.5 19.5C10.7 25.9 12.1 31.9 14.3 38.6C17.8 49 17.2 57.7 16.5 68.5C15.9 77.5 13.9 91.2 7.4 107.1C10.1 107.9 14 109.5 18.2 112.3C25.9 117.5 29.4 123.7 31.6 126.6C36.1 132.5 46.1 138.7 70.2 138.3C67.8 135.9 64.4 132.3 60.7 127.9C52 117.7 44.4 108.8 39.9 98C37.3 91.8 33.3 79.1 36.4 60.7C39.2 62.1 42.5 62 45.1 60.3C47.8 58.5 49.5 54.9 48.6 51.6C47.5 47.8 42.9 45.2 38.2 46.4C37.2 43.9 35.6 40.3 33 36.4C28.9 30.3 24.6 26.5 23 25.1C17.9 20.7 10.5 13.2 0 0Z"/><path id="shape84" transform="matrix(0.72 0 0 0.72 585.648 170.248806012614)" opacity="0.14" fill="#606060" stroke="#000000" stroke-opacity="0" stroke-width="0" stroke-linecap="square" stroke-linejoin="bevel" d="M0 2.64332C0.1 1.04332 5.2 -0.256675 9.5 0.043325C13.3 0.343325 17.8 2.04332 17.7 3.54332C17.6 4.94332 13.4 6.04332 10.3 6.14332C5.5 6.34332 0 4.24332 0 2.64332Z"/><g id="group120" transform="matrix(0.72 0 0 0.72 0 0)" fill="none">
  <g id="group121" fill="none">
   <path id="shape85" transform="translate(810.520810741217, 201.104818110176)" fill="#161616" stroke="#000000" stroke-opacity="0" stroke-width="0" stroke-linecap="square" stroke-linejoin="bevel" d="M15.2792 0.795182C9.57919 13.2952 4.47919 25.9952 0.0791893 38.9952C-0.220811 39.7952 0.379189 40.5952 1.07919 40.7952C4.97919 42.2952 8.87919 42.9952 12.9792 42.8952C14.8792 42.8952 14.8792 39.8952 12.9792 39.8952C9.07919 39.8952 5.47919 39.1952 1.87919 37.8952C2.17919 38.4952 2.57919 39.0952 2.87919 39.6952C7.17919 26.8952 12.0792 14.3952 17.7792 2.19518C18.6792 0.595182 16.0792 -1.00482 15.2792 0.795182Z"/>
  </g>
 </g><g id="group122" transform="matrix(0.72 0 0 0.72 0 0)" fill="none">
  <g id="group123" fill="none">
   <path id="shape86" transform="translate(823.09755486124, 243.175)" fill="#161616" stroke="#000000" stroke-opacity="0" stroke-width="0" stroke-linecap="square" stroke-linejoin="bevel" d="M0.00244514 1.425C0.802445 14.325 2.00245 28.625 11.6024 38.325C20.8024 47.725 34.1024 46.925 46.2024 45.525C48.1024 45.325 48.1024 42.325 46.2024 42.525C35.0024 43.825 22.3024 44.925 13.7024 36.225C4.70245 27.125 3.80245 13.525 3.00245 1.425C2.90245 -0.475 -0.0975549 -0.475 0.00244514 1.425Z"/>
  </g>
 </g><g id="group124" transform="matrix(0.72 0 0 0.72 0 0)" fill="none">
  <g id="group125" fill="none">
   <path id="shape87" transform="translate(863.378267208496, 287.113594176221)" fill="#161616" stroke="#000000" stroke-opacity="0" stroke-width="0" stroke-linecap="square" stroke-linejoin="bevel" d="M0.0217328 1.88641C1.32173 8.88641 3.72173 15.5864 7.12173 21.7864C8.02173 23.4864 10.6217 21.9864 9.72173 20.2864C6.42173 14.1864 4.22173 7.88641 2.92173 1.08641C2.62173 -0.813594 -0.278267 -0.0135942 0.0217328 1.88641Z"/>
  </g>
 </g><g id="group126" transform="matrix(0.72 0 0 0.72 0 0)" fill="none">
  <g id="group127" fill="none">
   <path id="shape88" transform="translate(824.639551365798, 254.056775746847)" fill="#161616" stroke="#000000" stroke-opacity="0" stroke-width="0" stroke-linecap="square" stroke-linejoin="bevel" d="M0.460449 5.84322C5.36045 10.1432 12.6604 8.14322 14.5604 1.84322C15.1604 -0.0567757 12.2604 -0.756776 11.6604 1.04322C10.4604 5.04322 5.76045 6.54322 2.66045 3.64322C1.16045 2.44322 -0.939551 4.54322 0.460449 5.84322Z"/>
  </g>
 </g><g id="group128" transform="matrix(0.72 0 0 0.72 0 0)" fill="none">
  <g id="group129" fill="none">
   <path id="shape89" transform="translate(833.285379957661, 252.84229831776)" fill="#161616" stroke="#000000" stroke-opacity="0" stroke-width="0" stroke-linecap="square" stroke-linejoin="bevel" d="M1.01462 2.9577C2.61462 3.3577 3.81462 4.2577 4.81462 5.4577C5.31462 6.0577 6.41462 5.9577 6.91462 5.4577C7.51462 4.8577 7.41462 3.9577 6.91462 3.3577C5.61462 1.7577 3.81462 0.557702 1.81462 0.0577017C0.01462 -0.442298 -0.78538 2.4577 1.01462 2.9577Z"/>
  </g>
 </g><g id="group130" transform="matrix(0.72 0 0 0.72 0 0)" fill="none">
  <g id="group131" fill="none">
   <path id="shape90" transform="translate(835.962202949482, 212.333122457423)" fill="#161616" stroke="#000000" stroke-opacity="0" stroke-width="0" stroke-linecap="square" stroke-linejoin="bevel" d="M2.8378 6.06688C3.6378 1.86688 8.8378 2.66688 11.6378 4.16688C14.0378 5.46688 15.7378 7.56688 16.7378 10.0669C17.4378 11.8669 20.3378 11.0669 19.6378 9.26688C18.0378 4.96688 14.7378 1.56688 10.1378 0.366878C5.9378 -0.733122 0.937797 0.566878 0.0377971 5.26688C-0.362203 7.16688 2.5378 7.96688 2.8378 6.06688Z"/>
  </g>
 </g><g id="group132" transform="matrix(0.72 0 0 0.72 0 0)" fill="none">
  <g id="group133" fill="none">
   <path id="shape91" transform="translate(835.875084422619, 194.136010906749)" fill="#161616" stroke="#000000" stroke-opacity="0" stroke-width="0" stroke-linecap="square" stroke-linejoin="bevel" d="M2.82492 6.56399C7.32492 -0.936011 16.1249 4.86399 17.9249 11.164C18.4249 13.064 21.3249 12.264 20.8249 10.364C19.5249 5.76399 16.3249 1.46399 11.4249 0.263989C7.02492 -0.736011 2.52492 1.16399 0.224916 4.96399C-0.775084 6.76399 1.82492 8.26399 2.82492 6.56399Z"/>
  </g>
 </g><g id="group134" transform="matrix(0.72 0 0 0.72 0 0)" fill="none">
  <g id="group135" fill="none">
   <path id="shape92" transform="translate(840.237259694348, 232.4)" fill="#161616" stroke="#000000" stroke-opacity="0" stroke-width="0" stroke-linecap="square" stroke-linejoin="bevel" d="M1.46274 3C3.36274 3 3.36274 0 1.46274 0C-0.43726 0 -0.53726 3 1.46274 3Z"/>
  </g>
 </g><g id="group136" transform="matrix(0.72 0 0 0.72 0 0)" fill="none">
  <g id="group137" fill="none">
   <path id="shape93" transform="translate(845.9, 227.9)" fill="#161616" stroke="#000000" stroke-opacity="0" stroke-width="0" stroke-linecap="square" stroke-linejoin="bevel" d="M1.5 3C1.6 3 1.8 3 1.9 3C2.7 3 3.4 2.3 3.4 1.5C3.4 0.7 2.7 0 1.9 0C1.8 0 1.6 0 1.5 0C0.7 0 0 0.7 0 1.5C0 2.4 0.7 3 1.5 3Z"/>
  </g>
 </g><g id="group138" transform="matrix(0.72 0 0 0.72 0 0)" fill="none">
  <g id="group139" fill="none">
   <path id="shape94" transform="translate(847.5, 234.575)" fill="#161616" stroke="#000000" stroke-opacity="0" stroke-width="0" stroke-linecap="square" stroke-linejoin="bevel" d="M0 1.425C0 1.525 0 1.625 0 1.725C0 3.625 3 3.625 3 1.725C3 1.625 3 1.525 3 1.425C3 -0.475 0 -0.475 0 1.425C0 1.525 0 1.625 0 1.725C0 3.625 3 3.625 3 1.725C3 1.625 3 1.525 3 1.425C3 -0.475 0 -0.475 0 1.425Z"/>
  </g>
 </g><g id="group140" transform="matrix(0.72 0 0 0.72 0 0)" fill="none">
  <g id="group141" fill="none">
   <path id="shape95" transform="translate(886.315965873791, 215.754674619919)" fill="#161616" stroke="#000000" stroke-opacity="0" stroke-width="0" stroke-linecap="square" stroke-linejoin="bevel" d="M4.78403 4.94533C7.48403 1.04533 12.084 3.54533 13.684 6.74533C14.984 9.24533 14.984 12.2453 14.884 14.9453C14.484 21.7453 8.78403 26.5453 2.18403 22.3453C0.584034 21.2453 -0.915966 23.8453 0.684034 24.9453C4.58403 27.5453 9.58403 27.8453 13.484 24.8453C17.484 21.7453 18.184 16.6453 17.884 11.8453C17.584 7.24533 15.784 2.14533 10.984 0.445325C7.58403 -0.754675 4.18403 0.545325 2.18403 3.44533C1.18403 4.94533 3.78403 6.44533 4.78403 4.94533Z"/>
  </g>
 </g><path id="shape96" transform="matrix(0.72 0 0 0.72 437.147265306122 113.688)" fill="#6a8daa" stroke="#000000" stroke-opacity="0" stroke-width="0" stroke-linecap="square" stroke-linejoin="bevel" d="M14.951 5.7C12.851 5.7 10.751 5.8 8.75102 5.8C5.35102 12.4 3.45102 18.4 2.35102 22.8C-0.84898 35.7 -0.0489796 46.4 0.55102 51.6C0.95102 55.1 1.55102 58 2.05102 60C3.85102 60 5.65102 60 7.45102 60C8.15102 62.4 8.85102 64.8 9.55102 67.2C26.451 67.1 40.351 67.1 50.051 67.2C108.851 67.7 149.851 70 159.351 70.5C171.251 71.2 180.951 71.9 186.951 72.3C187.151 68.6 188.151 67.3 189.051 66.9C190.651 66.2 192.051 67.9 194.151 67.5C196.351 67.1 197.751 64.8 198.651 62.7C200.451 63.6 203.751 64.8 207.651 64.2C208.551 64.1 209.351 63.8 210.051 63.6C211.751 60.2 213.451 56.8 215.151 53.4C212.751 52.6 209.351 51.9 205.251 51.9C202.951 51.9 200.951 52.2 199.251 52.5C199.051 52 197.451 47.5 193.251 46.5C191.951 46.2 190.851 46.3 189.951 46.5C189.351 45.4 188.751 44.3 188.151 43.2C185.751 42.8 182.051 42.2 177.651 41.4C141.951 34.9 117.051 27 98.051 21.3C79.851 15.8 53.351 8.3 19.351 0C17.951 1.9 16.451 3.8 14.951 5.7Z"/><path id="shape97" transform="matrix(0.72 0 0 0.72 437.11859469844 125.208)" opacity="0.0700000000000001" fill="#606060" stroke="#000000" stroke-opacity="0" stroke-width="0" stroke-linecap="square" stroke-linejoin="bevel" d="M0.890841 28.5C1.79084 28.3 2.79084 30.6 3.89084 30.3C5.69084 29.9 5.29084 23.6 5.69084 18.9C5.99084 14.4 7.29084 7.9 11.6908 0C14.5908 1.2 18.9908 3.1 24.2908 5.4C43.3908 13.7 56.5908 20.1 60.5908 21.9C86.9908 34.2 115.991 39.7 123.291 41.1C139.891 44.3 162.891 47.1 190.491 45.9C189.291 49.2 188.091 52.5 186.891 55.8C182.291 55.7 175.591 55.7 167.391 55.5C132.191 54.8 107.591 53.7 93.4908 53.1C73.5908 52.3 45.0908 51.5 9.09084 51.6C8.69084 48.9 8.29084 46.2 7.89084 43.5C5.59084 43.9 3.29084 44.3 0.990841 44.7C-0.509159 32.2 -0.109159 28.7 0.890841 28.5Z"/><g id="group142" transform="matrix(0.72 0 0 0.72 0 0)" fill="none">
  <g id="group143" fill="none">
   <path id="shape98" transform="translate(611.465885543777, 157.252180888418)" fill="#161616" stroke="#000000" stroke-opacity="0" stroke-width="0" stroke-linecap="square" stroke-linejoin="bevel" d="M12.7341 0.747819C0.234114 20.0478 -3.26589 44.0478 3.13411 66.1478C3.63411 68.0478 6.53411 67.2478 6.03411 65.3478C-0.165886 43.9478 3.23411 20.9478 15.3341 2.24782C16.4341 0.547819 13.8341 -0.952181 12.7341 0.747819Z"/>
  </g>
 </g><g id="group144" transform="matrix(0.72 0 0 0.72 0 0)" fill="none">
  <g id="group145" fill="none">
   <path id="shape99" transform="translate(625.785379957661, 157.94229831776)" fill="#161616" stroke="#000000" stroke-opacity="0" stroke-width="0" stroke-linecap="square" stroke-linejoin="bevel" d="M1.01462 2.9577C57.3146 17.1577 113.515 31.3577 169.815 45.4577C171.715 45.9577 172.515 43.0577 170.615 42.5577C114.315 28.3577 58.1146 14.1577 1.81462 0.0577017C0.01462 -0.442298 -0.78538 2.4577 1.01462 2.9577Z"/>
  </g>
 </g><g id="group146" transform="matrix(0.72 0 0 0.72 0 0)" fill="none">
  <g id="group147" fill="none">
   <path id="shape100" transform="translate(615.275, 223.60108679514)" fill="#161616" stroke="#000000" stroke-opacity="0" stroke-width="0" stroke-linecap="square" stroke-linejoin="bevel" d="M1.425 3.09891C60.125 2.59891 118.825 3.99891 177.425 7.19891C179.325 7.29891 179.325 4.29891 177.425 4.19891C118.825 0.998913 60.125 -0.401087 1.425 0.0989132C-0.475 0.0989132 -0.475 3.09891 1.425 3.09891Z"/>
  </g>
 </g><g id="group148" transform="matrix(0.72 0 0 0.72 0 0)" fill="none">
  <g id="group149" fill="none">
   <path id="shape101" transform="translate(792.034226540214, 200.052180888418)" fill="#161616" stroke="#000000" stroke-opacity="0" stroke-width="0" stroke-linecap="square" stroke-linejoin="bevel" d="M2.66577 2.24782C6.66577 11.1478 5.76577 21.2478 0.265773 29.3478C-0.834227 30.9478 1.76577 32.4478 2.86577 30.8478C8.96577 21.8478 9.76577 10.6478 5.26577 0.747819C4.46577 -0.952181 1.86577 0.547819 2.66577 2.24782Z"/>
  </g>
 </g><g id="group150" transform="matrix(0.72 0 0 0.72 0 0)" fill="none">
  <g id="group151" fill="none">
   <path id="shape102" transform="translate(796.285379957661, 203.275466855158)" fill="#161616" stroke="#000000" stroke-opacity="0" stroke-width="0" stroke-linecap="square" stroke-linejoin="bevel" d="M1.41462 2.92453C2.51462 3.72453 3.31462 3.42453 4.61462 3.72453C7.11462 4.42453 8.11462 6.72453 8.61462 9.12453C9.41462 13.5245 8.31462 22.8245 1.81462 20.2245C0.01462 19.5245 -0.78538 22.4245 1.01462 23.1245C7.61462 25.7245 11.9146 18.8245 11.9146 13.0245C11.9146 9.82453 11.5146 6.22453 9.71462 3.52453C9.11462 2.62453 8.31462 1.72453 7.31462 1.22453C6.01462 0.624533 4.21462 1.02453 3.11462 0.224533C1.31462 -0.775467 -0.18538 1.82453 1.41462 2.92453Z"/>
  </g>
 </g><g id="group152" transform="matrix(0.72 0 0 0.72 0 0)" fill="none">
  <g id="group153" fill="none">
   <path id="shape103" transform="translate(805.075, 208.562170656777)" fill="#161616" stroke="#000000" stroke-opacity="0" stroke-width="0" stroke-linecap="square" stroke-linejoin="bevel" d="M1.425 3.13783C6.525 2.83783 11.625 2.93783 16.625 3.63783C18.525 3.83783 18.525 0.837829 16.625 0.637829C11.525 0.0378293 6.525 -0.162171 1.425 0.137829C-0.475 0.337829 -0.475 3.33783 1.425 3.13783Z"/>
  </g>
 </g><g id="group154" transform="matrix(0.72 0 0 0.72 0 0)" fill="none">
  <g id="group155" fill="none">
   <path id="shape104" transform="translate(805.013594176221, 219.777558764983)" fill="#161616" stroke="#000000" stroke-opacity="0" stroke-width="0" stroke-linecap="square" stroke-linejoin="bevel" d="M1.08641 2.92244C5.18641 3.62244 9.28641 3.92244 13.3864 3.52244C15.2864 3.32244 15.2864 0.322441 13.3864 0.522441C9.48641 0.822441 5.68641 0.722441 1.88641 0.0224412C-0.0135942 -0.277559 -0.813594 2.52244 1.08641 2.92244Z"/>
  </g>
 </g><g id="group156" transform="matrix(0.72 0 0 0.72 0 0)" fill="none">
  <g id="group157" fill="none">
   <path id="shape105" transform="translate(605.877381170459, 161.708633040267)" fill="#161616" stroke="#000000" stroke-opacity="0" stroke-width="0" stroke-linecap="square" stroke-linejoin="bevel" d="M16.6226 1.09137C6.92262 -4.50863 4.22262 12.9914 2.92262 18.4914C-0.0773812 31.1914 -1.47738 44.2914 2.22262 56.9914C2.42262 57.5914 3.02262 58.0914 3.62262 58.0914C4.92262 58.0914 6.32262 58.0914 7.62262 58.0914C9.52262 58.0914 9.52262 55.0914 7.62262 55.0914C6.32262 55.0914 4.92262 55.0914 3.62262 55.0914C4.12262 55.4914 4.62262 55.7914 5.02262 56.1914C2.42262 46.9914 2.42262 37.6914 3.92262 28.2914C4.62262 24.0914 5.52262 19.8914 6.62262 15.7914C7.32262 13.0914 9.52262 0.391367 15.0226 3.69137C16.8226 4.69137 18.3226 2.09137 16.6226 1.09137Z"/>
  </g>
 </g><path id="shape106" transform="matrix(0.72 0 0 0.72 509.970975486343 131.318081632653)" fill="#8e6a49" stroke="#000000" stroke-opacity="0" stroke-width="0" stroke-linecap="square" stroke-linejoin="bevel" d="M22.307 1.91378C20.507 -0.286224 17.507 0.0137755 17.107 0.0137755C13.807 0.213776 10.607 3.21378 7.10698 10.5138C0.306978 24.4138 0.00697849 38.3138 0.00697849 40.5138C-0.0930215 50.1138 0.806978 65.7138 7.60698 84.3138C8.20698 92.1138 9.50698 103.014 12.407 115.714C17.507 138.514 22.907 162.514 41.507 183.814C48.507 191.914 62.307 207.614 86.307 213.314C111.407 219.314 131.807 210.414 136.807 208.114C141.207 206.014 153.507 199.814 163.907 186.714C170.207 178.814 177.507 170.214 176.307 159.614C175.807 155.014 173.807 151.114 170.807 144.914C167.807 138.714 166.207 135.614 163.007 134.414C158.607 132.714 153.907 135.714 148.707 138.714C139.907 143.714 139.107 148.514 129.607 153.514C127.107 154.814 124.607 155.714 119.607 157.314C111.707 159.914 103.907 162.514 96.707 163.014C81.007 164.114 68.407 155.114 64.807 152.514C51.507 143.014 46.307 130.314 42.907 122.014C35.307 103.414 35.907 86.3138 37.207 76.3138C41.907 75.5138 44.807 73.6138 46.207 72.5138C51.507 68.4138 52.807 62.7138 54.807 53.9138C56.107 48.4138 56.707 45.5138 55.307 44.4138C52.407 42.2138 43.507 49.4138 41.507 51.1138C41.907 44.3138 42.907 38.8138 43.907 34.9138C45.207 29.7138 45.907 27.0138 47.707 24.9138C51.207 20.8138 55.307 21.2138 56.707 17.3138C57.507 15.2138 57.407 12.3138 55.707 10.6138C53.707 8.61378 49.407 8.71378 45.707 11.6138C44.507 9.01378 42.107 7.41378 39.507 7.31378C36.907 7.21378 35.207 8.81378 34.707 9.21378C35.007 6.51378 33.807 4.01378 31.807 3.01378C29.107 1.61378 24.807 3.21378 23.207 7.31378C23.307 6.81378 24.007 4.01378 22.307 1.91378Z"/><path id="shape107" transform="matrix(0.72 0 0 0.72 509.84658468371 131.328)" opacity="0.12" fill="#606060" stroke="#000000" stroke-opacity="0" stroke-width="0" stroke-linecap="square" stroke-linejoin="bevel" d="M17.2797 0C14.8797 4.2 11.8797 10.4 9.87974 18.5C5.47974 36.1 9.07974 50.8 10.6797 57.9C27.8797 131.2 20.3797 133 32.3797 150.2C36.7797 156.4 66.9797 198 111.98 192.5C149.68 187.9 169.68 153.6 172.28 149C173.78 153 175.58 159.8 174.38 167.9C172.58 179.8 165.18 187.3 162.48 190.1C159.88 192.7 156.68 195 150.18 199.5C144.38 203.6 138.68 207.2 136.18 208.5C124.28 215.2 105.88 216.8 93.0797 215.1C58.2797 210.5 37.3797 177.5 28.6797 163.8C8.77974 132.5 6.77974 100.8 6.97974 85C5.07974 78.6 3.17974 72.1 1.27974 65.7C-0.0202565 55.8 -0.120257 47.6 0.0797435 41.9C0.579743 27.6 0.979743 16.9 8.27974 7.8C11.4797 3.8 14.9797 1.4 17.2797 0Z"/><g id="group158" transform="matrix(0.72 0 0 0.72 0 0)" fill="none">
  <g id="group159" fill="none">
   <path id="shape108" transform="translate(743.909249182636, 264.275)" fill="#161616" stroke="#000000" stroke-opacity="0" stroke-width="0" stroke-linecap="square" stroke-linejoin="bevel" d="M116.891 116.125C132.691 108.625 143.291 92.925 140.691 75.125C139.191 64.325 130.491 45.725 116.591 52.325C110.391 55.325 105.291 60.825 99.5908 64.725C91.6908 70.125 82.5908 74.325 73.4908 77.225C61.8908 80.925 48.9908 81.725 37.7908 76.125C29.5908 72.025 23.1908 65.325 18.2908 57.725C7.49075 41.025 1.89075 21.325 3.19075 1.425C3.29075 -0.475 0.290751 -0.475 0.190751 1.425C-0.909249 18.225 2.79075 34.225 10.1908 49.225C16.6908 62.625 26.1908 75.225 40.5908 80.625C58.0908 87.125 77.1908 80.525 92.9908 72.225C100.091 68.425 106.191 63.525 112.591 58.625C118.391 54.125 124.191 51.925 130.091 57.925C137.391 65.325 139.591 78.225 137.391 88.025C134.691 99.725 125.991 108.525 115.391 113.525C113.691 114.325 115.191 116.925 116.891 116.125Z"/>
  </g>
 </g><g id="group160" transform="matrix(0.72 0 0 0.72 0 0)" fill="none">
  <g id="group161" fill="none">
   <path id="shape109" transform="translate(743.394729058177, 224.495611450453)" fill="#161616" stroke="#000000" stroke-opacity="0" stroke-width="0" stroke-linecap="square" stroke-linejoin="bevel" d="M3.50527 42.5044C2.20527 37.0044 6.10527 35.6044 9.70527 33.0044C11.8053 31.5044 13.4053 29.4044 14.9053 27.3044C18.7053 21.8044 21.7053 15.4044 22.5053 8.70439C22.9053 5.40439 23.6053 0.204389 19.1053 0.00438855C13.8053 -0.195611 11.6053 6.50439 6.60527 7.00439C4.70527 7.20439 4.70527 10.2044 6.60527 10.0044C10.4053 9.60439 12.3053 7.20439 15.2053 5.00439C16.9053 3.70439 18.8053 2.20439 19.7053 5.10439C20.2053 6.70439 19.4053 9.70439 19.0053 11.3044C18.3053 14.7044 16.8053 18.0044 15.2053 21.1044C13.7053 23.9044 12.0053 26.8044 9.70527 29.1044C7.60527 31.3044 4.70527 31.8044 2.40527 33.6044C-0.694729 36.0044 -0.194729 40.1044 0.605271 43.4044C1.10527 45.2044 4.00527 44.4044 3.50527 42.5044Z"/>
  </g>
 </g><g id="group162" transform="matrix(0.72 0 0 0.72 0 0)" fill="none">
  <g id="group163" fill="none">
   <path id="shape110" transform="translate(707.24048047183, 181.174725258123)" fill="#161616" stroke="#000000" stroke-opacity="0" stroke-width="0" stroke-linecap="square" stroke-linejoin="bevel" d="M4.75952 70.0253C2.75952 57.1253 2.55952 43.9253 4.55952 31.0253C5.35952 25.8253 6.35952 20.5253 8.15952 15.5253C9.25952 12.4253 10.7595 8.82527 12.9595 6.32527C15.9595 3.02527 21.8595 1.32527 23.4595 6.92527C23.9595 8.82527 26.8595 8.02527 26.3595 6.12527C24.9595 1.32527 20.3595 -1.27473 15.5595 0.625275C9.45952 3.12527 6.55952 10.6253 4.65952 16.3253C-0.94048 33.6253 -0.94048 53.0253 1.75952 70.8253C2.15952 72.7253 5.05952 71.9253 4.75952 70.0253Z"/>
  </g>
 </g><g id="group164" transform="matrix(0.72 0 0 0.72 0 0)" fill="none">
  <g id="group165" fill="none">
   <path id="shape111" transform="translate(723.491839933144, 184.487903225806)" fill="#161616" stroke="#000000" stroke-opacity="0" stroke-width="0" stroke-linecap="square" stroke-linejoin="bevel" d="M3.00816 15.1121C5.40816 9.2121 12.2082 -2.6879 19.6082 5.4121C20.9082 6.8121 23.0082 4.7121 21.7082 3.3121C18.3082 -0.387903 13.4082 -0.987903 9.10816 1.5121C4.30816 4.2121 2.10816 9.5121 0.10816 14.4121C-0.59184 16.1121 2.30816 16.9121 3.00816 15.1121Z"/>
  </g>
 </g><g id="group166" transform="matrix(0.72 0 0 0.72 0 0)" fill="none">
  <g id="group167" fill="none">
   <path id="shape112" transform="translate(736.097554861239, 188.529094102565)" fill="#161616" stroke="#000000" stroke-opacity="0" stroke-width="0" stroke-linecap="square" stroke-linejoin="bevel" d="M3.00245 13.5709C3.10245 9.77091 4.60245 5.57091 8.30245 3.77091C11.4024 2.27091 15.1024 2.97091 17.2024 5.67091C18.4024 7.17091 20.5024 5.07091 19.3024 3.57091C16.4024 -0.0290941 11.2024 -0.929094 7.10245 0.970906C2.30245 3.27091 0.102445 8.47091 0.00244514 13.5709C-0.0975549 15.4709 2.90245 15.4709 3.00245 13.5709Z"/>
  </g>
 </g><g id="group168" transform="matrix(0.72 0 0 0.72 0 0)" fill="none">
  <g id="group169" fill="none">
   <path id="shape113" transform="translate(744.84229831776, 190.758221435102)" fill="#161616" stroke="#000000" stroke-opacity="0" stroke-width="0" stroke-linecap="square" stroke-linejoin="bevel" d="M2.9577 12.3418C4.7577 5.64178 12.2577 -0.458221 18.7577 4.94178C20.2577 6.14178 22.3577 4.04178 20.8577 2.84178C12.5577 -3.95822 2.5577 2.44178 0.0577017 11.5418C-0.442298 13.4418 2.4577 14.2418 2.9577 12.3418Z"/>
  </g>
 </g><g id="group170" transform="matrix(0.72 0 0 0.72 0 0)" fill="none">
  <g id="group171" fill="none">
   <path id="shape114" transform="translate(748.29043334155, 192.944607289519)" fill="#161616" stroke="#000000" stroke-opacity="0" stroke-width="0" stroke-linecap="square" stroke-linejoin="bevel" d="M14.7096 2.25539C17.9096 6.75539 10.8096 9.55539 8.30957 11.6554C6.20957 13.3554 5.00957 15.5554 4.10957 18.0554C1.70957 24.9554 0.609567 32.4554 0.00956666 39.6554C-0.190433 41.5554 2.80957 41.5554 3.00957 39.6554C3.50957 34.3554 4.30957 29.0554 5.60957 23.8554C6.00957 22.1554 6.40957 20.4554 7.00957 18.7554C8.30957 15.2554 10.2096 13.9554 13.1096 11.8554C16.7096 9.25539 20.5096 5.05539 17.3096 0.555393C16.2096 -0.844607 13.6096 0.655393 14.7096 2.25539Z"/>
  </g>
 </g><g id="group172" transform="matrix(0.72 0 0 0.72 0 0)" fill="none">
  <g id="group173" fill="none">
   <path id="shape115" transform="translate(708.262229493313, 246.313594176221)" fill="#161616" stroke="#000000" stroke-opacity="0" stroke-width="0" stroke-linecap="square" stroke-linejoin="bevel" d="M0.0377705 1.88641C1.63777 8.68641 3.63777 15.3864 6.13777 21.9864C6.83777 23.7864 9.73777 22.9864 9.03777 21.1864C6.53777 14.5864 4.53777 7.88641 2.93777 1.08641C2.53777 -0.813594 -0.362229 -0.0135942 0.0377705 1.88641Z"/>
  </g>
 </g><g id="group174" transform="matrix(0.72 0 0 0.72 0 0)" fill="none">
  <g id="group175" fill="none">
   <path id="shape116" transform="translate(713.890429992932, 268.787259589037)" fill="#161616" stroke="#000000" stroke-opacity="0" stroke-width="0" stroke-linecap="square" stroke-linejoin="bevel" d="M0.00957001 1.41274C3.80957 35.8127 12.3096 71.1127 35.4096 97.9127C53.8096 119.213 83.0096 135.413 111.81 130.113C125.41 127.613 137.81 120.813 147.71 111.313C149.11 110.013 147.01 107.813 145.61 109.213C125.81 128.213 97.6096 133.213 72.5096 121.913C45.5096 109.613 26.6096 86.5127 15.9096 59.2127C8.70957 40.7127 5.10957 21.1127 2.90957 1.51274C2.80957 -0.48726 -0.19043 -0.48726 0.00957001 1.41274Z"/>
  </g>
 </g>
</svg>
