<?xml version="1.0" encoding="UTF-8" standalone="no"?>
<!DOCTYPE svg PUBLIC "-//W3C//DTD SVG 1.1//EN" "http://www.w3.org/Graphics/SVG/1.1/DTD/svg11.dtd">
<svg width="100%" height="100%" viewBox="0 0 1096 862" version="1.1" xmlns="http://www.w3.org/2000/svg" xmlns:xlink="http://www.w3.org/1999/xlink" xml:space="preserve" xmlns:serif="http://www.serif.com/" style="fill-rule:evenodd;clip-rule:evenodd;stroke-miterlimit:10;">
    <g id="shape0" transform="matrix(0.953728,0,0,0.953728,498.294,435.544)">
        <ellipse cx="174.3" cy="178.7" rx="174.3" ry="178.7" style="fill:none;stroke:rgb(22,22,22);stroke-width:3px;"/>
    </g>
    <g id="shape318" transform="matrix(0.953728,0,0,0.953728,867.23,535.743)">
        <path d="M0.663,1.44C0.563,17.64 0.363,33.94 0.263,50.14C0.263,54.14 0.163,58.14 0.163,62.04C0.163,64.74 -0.437,68.14 0.663,70.74C2.363,75.14 8.063,73.94 10.163,77.64C10.363,76.94 10.563,76.24 10.663,75.54C3.363,79.14 1.463,87.24 0.863,94.74C0.363,101.94 0.063,113.54 9.463,114.94C9.363,114.04 9.263,113.14 9.063,112.24C-5.137,118.74 0.563,144.14 6.563,154.34C10.963,161.84 17.463,167.94 24.163,173.34C27.963,176.44 31.763,179.34 35.663,182.34C37.963,184.14 40.263,185.84 42.463,187.64C43.663,188.54 48.763,191.34 48.963,193.04C49.363,192.54 49.663,192.04 50.063,191.64L50.263,191.64C50.463,192.34 50.663,193.04 50.763,193.74C50.863,193.64 50.863,193.54 50.963,193.44C51.763,191.74 49.263,190.24 48.363,191.94C48.263,192.04 48.263,192.14 48.163,192.24C47.763,193.04 47.963,193.74 48.663,194.34C49.363,194.94 49.863,194.94 50.763,194.64C51.363,194.44 51.963,193.84 51.863,193.24C51.463,190.14 48.363,188.74 45.963,186.94C42.463,184.14 38.863,181.44 35.363,178.64C28.763,173.54 22.063,168.44 16.363,162.44C9.963,155.74 5.563,147.94 4.263,138.64C3.163,131.04 2.163,118.84 10.563,114.94C11.663,114.44 11.463,112.34 10.163,112.24C2.163,111.04 3.263,99.64 3.863,93.54C4.463,87.54 6.163,81.24 12.063,78.34C12.763,77.94 12.963,76.94 12.563,76.24C10.463,72.64 5.363,73.34 3.463,70.14C1.963,67.74 2.963,62.14 3.063,59.24C3.063,55.24 3.163,51.24 3.163,47.34C3.263,32.14 3.363,16.84 3.563,1.64C3.663,-0.46 0.663,-0.56 0.663,1.44Z" style="fill:rgb(127,199,179);fill-rule:nonzero;"/>
    </g>
    <g id="shape319" transform="matrix(0.953728,0,0,0.953728,868.042,534.922)">
        <path d="M1.413,3.1C15.413,3.8 25.213,14.5 33.613,24.5C37.613,29.3 41.813,33.8 45.913,38.3C50.113,42.8 55.613,51.9 48.013,56.3C46.713,57.1 47.313,59.1 48.813,59.1C60.413,59.4 65.513,73.5 69.113,82.4C73.413,93.2 76.813,104.3 79.313,115.6C84.413,138.8 85.413,162.7 82.513,186.2C82.313,188.1 85.313,188.1 85.513,186.2C88.613,160 87.013,133.4 80.513,107.9C77.513,95.9 73.513,83.8 68.113,72.6C64.313,64.6 58.413,56.3 48.813,56.1C49.113,57 49.313,58 49.613,58.9C64.213,50.5 46.113,34.5 40.213,27.6C29.713,15.4 19.113,0.9 1.513,0C-0.487,0 -0.487,3 1.413,3.1Z" style="fill:rgb(127,199,179);fill-rule:nonzero;"/>
    </g>
    <g id="shape320" transform="matrix(0.953728,0,0,0.953728,914.559,449.203)">
        <path d="M2.839,128.978C9.839,104.178 19.639,80.278 32.239,57.779C31.539,57.978 30.839,58.179 30.139,58.279C32.839,59.879 35.639,61.478 38.339,63.079C39.739,63.879 41.039,62.279 40.439,60.978C33.239,46.579 54.839,37.379 62.139,28.779C61.539,28.879 60.939,28.979 60.339,28.979C61.739,29.779 63.239,30.578 64.638,31.379C65.338,31.779 66.239,31.578 66.739,30.879C74.739,17.279 88.839,9.678 102.439,2.678C101.739,2.078 100.939,1.578 100.239,0.978C95.939,15.079 102.739,30.479 104.039,44.579C104.739,52.179 104.839,59.879 104.239,67.579C103.939,71.379 104.239,77.079 102.739,80.479C102.739,82.979 101.339,84.379 98.439,84.879C97.539,84.979 96.739,85.079 95.839,85.179C93.839,85.379 91.739,85.579 89.739,85.778C88.939,85.879 88.138,86.379 88.239,87.278C88.339,89.278 88.939,89.879 90.439,91.179C92.339,92.778 93.839,92.979 94.739,95.778C95.239,97.278 95.239,98.979 95.239,100.478C95.138,108.578 93.939,116.878 92.539,124.878C91.138,132.678 89.138,140.378 86.739,147.878C84.638,154.178 81.839,163.578 74.039,164.578C73.039,164.678 72.039,165.778 72.739,166.878C78.539,175.778 69.939,186.578 65.739,194.278C61.139,202.478 56.939,210.878 53.039,219.378C45.239,236.278 38.839,253.778 33.639,271.678C33.139,273.578 36.039,274.378 36.539,272.478C42.439,251.878 50.139,231.878 59.539,212.678C63.938,203.578 69.239,194.978 73.839,185.978C77.138,179.478 79.739,171.878 75.439,165.278C75.039,166.078 74.539,166.778 74.138,167.578C80.039,166.878 83.839,162.678 86.439,157.578C90.339,149.778 92.439,140.778 94.339,132.278C96.439,122.878 97.839,113.278 98.339,103.678C98.539,100.478 98.839,96.879 97.439,93.879C96.638,91.879 91.539,88.778 91.439,87.379C90.939,87.879 90.439,88.379 89.939,88.879C95.539,88.278 103.539,89.679 105.439,83.278C107.939,75.278 107.839,65.379 107.739,57.179C107.739,48.379 106.839,39.679 105.239,31.078C103.439,21.379 100.239,11.679 103.239,1.878C103.639,0.578 102.139,-0.422 101.039,0.178C86.939,7.478 72.439,15.379 64.239,29.479C64.939,29.279 65.638,29.078 66.339,28.979C64.939,28.179 63.438,27.379 62.039,26.578C61.539,26.279 60.639,26.279 60.239,26.779C51.839,36.679 29.738,46.079 38.039,62.579C38.739,61.879 39.439,61.179 40.139,60.478C37.439,58.879 34.639,57.279 31.939,55.679C31.238,55.279 30.238,55.478 29.839,56.179C17.238,78.979 7.239,103.078 0.139,128.078C-0.661,130.078 2.239,130.878 2.839,128.978Z" style="fill:rgb(127,199,179);fill-rule:nonzero;"/>
    </g>
    <g id="shape321" transform="matrix(0.953728,0,0,0.953728,824.556,418.516)">
        <path d="M26.508,58.955C9.708,60.155 0.808,40.455 3.608,26.255C6.308,12.355 19.908,2.554 33.808,2.954C52.108,3.354 61.508,21.255 58.208,37.955C55.308,52.855 40.308,63.855 25.308,57.955C23.508,57.255 22.708,60.155 24.508,60.855C36.508,65.555 50.508,60.054 57.108,49.155C64.108,37.555 63.308,20.955 55.208,10.155C47.008,-0.846 31.308,-2.346 19.408,2.954C7.508,8.154 -0.292,19.855 0.008,32.855C0.308,47.054 10.808,63.054 26.408,61.955C28.408,61.855 28.508,58.855 26.508,58.955Z" style="fill:rgb(255,179,80);fill-rule:nonzero;"/>
    </g>
    <g id="shape322" transform="matrix(0.953728,0,0,0.953728,976.723,264.495)">
        <path d="M20.458,0.748C14.658,11.548 7.958,21.748 0.358,31.348C-0.842,32.848 1.258,34.948 2.458,33.448C10.258,23.648 17.158,13.248 23.058,2.248C23.958,0.548 21.358,-0.952 20.458,0.748Z" style="fill:rgb(153,153,153);fill-rule:nonzero;"/>
    </g>
    <g id="shape323" transform="matrix(0.953728,0,0,0.953728,996.036,265.767)">
        <path d="M0.108,1.815C3.708,11.315 7.508,20.815 11.408,30.215C12.108,32.015 15.008,31.215 14.308,29.415C10.408,20.015 6.608,10.515 3.008,1.015C2.308,-0.785 -0.592,0.015 0.108,1.815Z" style="fill:rgb(153,153,153);fill-rule:nonzero;"/>
    </g>
    <g id="shape324" transform="matrix(0.953728,0,0,0.953728,981.683,267.402)">
        <path d="M14.458,1.5C13.758,38.7 8.958,75.7 0.058,111.8C-0.442,113.7 2.458,114.5 2.958,112.6C11.958,76.2 16.758,39 17.458,1.5C17.558,-0.5 14.558,-0.5 14.458,1.5Z" style="fill:rgb(153,153,153);fill-rule:nonzero;"/>
    </g>
    <g id="shape325" transform="matrix(0.953728,0,0,0.953728,1010.14,325.746)">
        <path d="M1.922,1.425C4.522,22.825 3.922,44.425 0.022,65.625C-0.278,67.525 2.522,68.325 2.922,66.425C6.822,44.925 7.522,23.125 4.922,1.425C4.622,-0.475 1.622,-0.475 1.922,1.425Z" style="fill:rgb(153,153,153);fill-rule:nonzero;"/>
    </g>
    <g id="shape326" transform="matrix(0.953728,0,0,0.953728,1000.86,364.604)">
        <path d="M0.151,2.282C3.651,10.282 9.751,17.582 10.151,26.582C10.251,28.082 12.151,28.682 12.951,27.382C16.451,21.282 20.051,15.182 23.551,9.082C24.551,7.382 21.951,5.882 20.951,7.582C17.451,13.682 13.851,19.782 10.351,25.882C11.251,26.182 12.251,26.382 13.151,26.682C12.751,16.982 6.451,9.482 2.751,0.882C1.951,-1.018 -0.649,0.482 0.151,2.282Z" style="fill:rgb(153,153,153);fill-rule:nonzero;"/>
    </g>
    <g id="shape327" transform="matrix(0.953728,0,0,0.953728,348.916,831.174)">
        <path d="M1.425,19.375C61.725,13.775 122.125,6.475 182.625,3.975C243.625,1.475 304.925,3.075 365.925,4.675C400.925,5.575 435.925,7.275 470.725,10.575C472.625,10.775 472.625,7.775 470.725,7.575C409.525,1.775 348.125,1.075 286.725,0.375C255.925,-0.025 225.125,-0.325 194.425,0.675C164.525,1.575 134.725,4.075 104.925,6.775C70.425,9.975 35.925,13.175 1.425,16.375C-0.475,16.475 -0.475,19.475 1.425,19.375Z" style="fill:rgb(153,153,153);fill-rule:nonzero;"/>
    </g>
    <g id="shape328" transform="matrix(0.953728,0,0,0.953728,648.519,791.95)">
        <path d="M1.086,16.302C26.186,21.002 50.986,20.802 76.286,18.502C102.286,16.102 128.186,14.602 154.286,13.402C206.686,11.102 259.086,9.002 311.386,6.802C341.286,5.502 371.186,4.302 401.086,3.002C402.986,2.902 402.986,-0.098 401.086,0.002C348.586,2.202 296.186,4.402 243.686,6.602C192.086,8.802 140.186,9.902 88.686,14.302C74.686,15.502 60.686,17.102 46.686,17.302C31.686,17.502 16.686,16.102 1.886,13.302C-0.014,13.102 -0.814,16.002 1.086,16.302Z" style="fill:rgb(153,153,153);fill-rule:nonzero;"/>
    </g>
    <g id="shape329" transform="matrix(0.953728,0,0,0.953728,-0.792003,783.843)">
        <path d="M1.5,3.602C48.1,4.902 94.7,4.702 141.3,3.002C143.2,2.902 143.2,-0.098 141.3,0.002C94.7,1.702 48.1,1.902 1.5,0.602C-0.5,0.502 -0.5,3.502 1.5,3.602Z" style="fill:rgb(153,153,153);fill-rule:nonzero;"/>
    </g>
    <g id="shape330" transform="matrix(0.953728,0,0,0.953728,47.4734,820.91)">
        <path d="M1.793,4.937C18.793,1.337 36.793,3.637 53.993,4.437C71.293,5.337 88.493,6.137 105.793,7.037C140.993,8.837 176.093,10.637 211.293,12.337C213.193,12.437 213.193,9.437 211.293,9.337C175.493,7.537 139.593,5.737 103.793,3.937C85.893,3.037 67.993,2.137 50.093,1.237C33.793,0.437 17.193,-1.463 1.093,2.037C-0.807,2.437 -0.007,5.337 1.793,4.937Z" style="fill:rgb(153,153,153);fill-rule:nonzero;"/>
    </g>
    <g id="shape331" transform="matrix(0.953728,0,0,0.953728,304.949,739.018)">
        <path d="M1.425,14.602C63.225,18.802 124.025,2.802 185.725,3.002C187.625,3.002 187.625,0.002 185.725,0.002C124.025,-0.198 63.225,15.702 1.425,11.602C-0.475,11.402 -0.475,14.502 1.425,14.602Z" style="fill:rgb(153,153,153);fill-rule:nonzero;"/>
    </g>
    <g id="shape332" transform="matrix(0.953728,0,0,0.953728,259.235,430.463)">
        <path d="M3.058,27.327C3.558,25.627 4.058,23.927 4.858,22.327C5.358,21.627 5.758,21.027 6.258,20.327C8.358,20.127 10.558,19.827 12.658,19.627C13.258,20.027 13.758,21.227 14.158,21.827C15.658,23.927 17.258,25.727 19.558,27.127C23.958,29.727 29.258,30.327 33.958,28.527C46.258,24.027 50.858,7.727 65.858,9.327C69.858,9.727 73.658,11.327 76.558,14.127C78.758,16.227 80.458,18.827 82.758,20.827C86.858,24.227 91.958,24.727 96.858,22.927C102.858,20.827 107.458,16.327 111.958,12.027C118.058,6.327 126.958,-0.573 135.058,5.527C140.358,9.427 143.458,15.427 150.058,17.527C156.258,19.527 162.858,18.327 168.058,14.427C169.558,13.327 168.058,10.627 166.558,11.827C159.358,17.227 150.358,16.327 144.058,10.027C139.858,5.927 136.258,0.827 130.058,0.127C115.458,-1.673 107.858,16.127 95.458,20.227C86.058,23.327 82.958,14.927 76.758,10.327C72.158,6.927 66.358,5.527 60.658,6.427C54.658,7.327 50.058,10.927 45.858,15.027C40.958,19.927 35.758,26.627 28.158,26.627C23.058,26.627 19.158,23.827 16.358,19.827C14.758,17.627 13.458,15.827 10.558,15.527C4.258,14.927 1.558,21.527 0.058,26.427C-0.442,28.327 2.458,29.127 3.058,27.327Z" style="fill:rgb(153,153,153);fill-rule:nonzero;"/>
    </g>
    <g id="shape333" transform="matrix(0.953728,0,0,0.953728,406.442,396.313)">
        <path d="M2.908,11.434C6.508,0.934 19.108,9.834 23.908,13.734C28.108,17.134 33.008,20.634 38.708,20.434C48.108,20.034 53.108,10.434 60.808,6.434C71.508,0.934 78.008,15.234 88.408,13.834C93.008,13.234 95.408,9.534 98.308,6.334C101.408,2.934 104.608,2.934 109.008,3.934C113.108,4.934 117.308,5.934 121.408,6.934C123.308,7.434 124.108,4.534 122.208,4.034C118.108,3.034 113.908,2.034 109.808,1.034C107.008,0.334 104.208,-0.466 101.408,0.334C95.908,2.034 94.308,9.334 88.808,10.634C82.908,12.034 77.108,5.434 72.008,3.334C67.708,1.534 63.508,1.534 59.408,3.734C55.008,6.034 51.708,9.934 47.808,13.034C45.208,15.134 42.308,17.034 38.908,17.234C33.708,17.534 29.408,13.934 25.608,10.934C21.008,7.334 16.108,3.034 9.808,3.534C5.308,3.834 1.608,6.234 0.108,10.534C-0.592,12.434 2.308,13.234 2.908,11.434Z" style="fill:rgb(153,153,153);fill-rule:nonzero;"/>
    </g>
    <g id="shape334" transform="matrix(0.953728,0,0,0.953728,838.774,127.562)">
        <path d="M1.7,1.425C0.8,20.125 0.2,38.925 0,57.725C0,59.625 3,59.625 3,57.725C3.2,38.925 3.8,20.225 4.7,1.425C4.8,-0.475 1.8,-0.475 1.7,1.425Z" style="fill:rgb(153,153,153);fill-rule:nonzero;"/>
    </g>
    <g id="shape335" transform="matrix(0.953728,0,0,0.953728,840.504,123.72)">
        <path d="M1.886,6.853C24.986,3.653 48.486,0.553 71.486,5.953C73.386,6.353 74.186,3.553 72.286,3.053C48.786,-2.547 24.686,0.653 1.086,3.953C-0.814,4.153 -0.014,7.053 1.886,6.853Z" style="fill:rgb(153,153,153);fill-rule:nonzero;"/>
    </g>
    <g id="shape336" transform="matrix(0.953728,0,0,0.953728,904.77,128.992)">
        <path d="M2.202,1.425C2.702,39.425 2.002,77.525 0.002,115.525C-0.098,117.425 2.902,117.425 3.002,115.525C5.002,77.525 5.702,39.525 5.202,1.425C5.202,-0.475 2.202,-0.475 2.202,1.425Z" style="fill:rgb(153,153,153);fill-rule:nonzero;"/>
    </g>
    <g id="shape337" transform="matrix(0.953728,0,0,0.953728,841.15,228.096)">
        <path d="M0.01,1.413C0.51,6.213 0.71,11.213 1.61,15.913C2.11,18.213 2.91,19.813 4.91,21.213C11.21,25.313 21.41,22.913 28.31,22.513C38.11,21.913 48.01,21.313 57.81,20.713C62.21,20.413 69.21,19.213 66.51,13.113C65.71,11.313 63.11,12.913 63.91,14.613C64.41,15.713 58.81,17.513 57.81,17.713C56.21,18.013 54.51,17.913 52.91,18.013C50.01,18.213 47.01,18.413 44.11,18.513C38.21,18.913 32.31,19.213 26.41,19.613C21.01,19.913 15.01,21.013 9.61,19.813C2.81,18.213 3.71,7.213 3.01,1.513C2.81,-0.487 -0.19,-0.487 0.01,1.413Z" style="fill:rgb(153,153,153);fill-rule:nonzero;"/>
    </g>
    <g id="shape338" transform="matrix(0.953728,0,0,0.953728,797.74,225.257)">
        <path d="M27.325,0.69C18.525,13.59 9.425,26.29 0.225,38.89C-0.075,39.29 -0.075,39.99 0.225,40.39C1.825,42.89 4.525,43.89 7.425,42.99C11.725,41.69 13.825,36.79 16.025,33.39C19.625,27.79 23.725,22.49 28.125,17.39C30.025,15.29 31.925,13.19 33.925,11.19C36.225,8.89 40.125,3.99 43.425,3.49C45.325,3.19 44.525,0.29 42.625,0.59C39.625,1.09 37.625,3.49 35.425,5.49C32.525,8.19 29.725,10.99 27.025,13.99C21.825,19.79 17.025,25.99 12.825,32.49C11.625,34.29 10.625,36.49 9.125,38.09C7.525,40.39 5.825,40.59 3.825,38.69C4.425,37.89 5.025,37.09 5.525,36.29C8.225,32.59 10.925,28.89 13.525,25.19C19.025,17.49 24.425,9.79 29.725,1.99C31.025,0.59 28.425,-0.91 27.325,0.69Z" style="fill:rgb(153,153,153);fill-rule:nonzero;"/>
    </g>
    <g id="shape339" transform="matrix(0.953728,0,0,0.953728,818.618,179.178)">
        <path d="M21.034,52.704C33.434,53.004 45.334,45.504 50.234,34.104C54.634,23.804 52.234,10.404 42.934,3.604C32.234,-4.096 18.534,1.704 10.234,10.104C5.334,15.104 1.234,21.404 0.234,28.404C-0.166,31.204 -0.066,34.004 0.634,36.704C1.034,38.304 1.634,39.804 2.434,41.204C2.634,41.604 7.234,48.104 5.234,48.004C3.334,47.804 3.334,50.804 5.234,51.004C8.334,51.304 9.934,48.504 9.034,45.704C8.334,43.404 6.134,41.804 4.934,39.704C3.134,36.404 2.734,32.604 3.234,28.904C4.934,16.104 18.534,2.704 31.734,2.904C44.734,3.004 51.534,17.504 48.834,28.904C45.834,41.304 33.634,50.004 21.034,49.604C19.034,49.704 19.034,52.704 21.034,52.704Z" style="fill:rgb(153,153,153);fill-rule:nonzero;"/>
    </g>
    <g id="shape340" transform="matrix(0.953728,0,0,0.953728,849.634,136.048)">
        <path d="M2.713,4.527L2.613,4.427L2.613,6.527C3.913,5.027 12.913,5.127 15.313,4.827C19.113,4.427 23.013,4.127 26.813,3.927C30.613,3.727 34.513,3.527 38.413,3.427C40.113,3.427 49.013,4.227 49.613,2.627C48.913,4.427 51.813,5.227 52.513,3.427C52.613,3.227 52.613,3.127 52.713,2.927C52.913,2.427 52.713,1.827 52.313,1.427C50.113,-0.773 46.113,0.227 43.213,0.227C37.713,0.227 32.313,0.427 26.813,0.827C21.713,1.127 16.613,1.627 11.413,2.127C8.813,2.427 2.313,2.027 0.413,4.227C-0.087,4.827 -0.187,5.727 0.413,6.327L0.513,6.427C2.013,8.027 4.113,5.827 2.713,4.527Z" style="fill:rgb(153,153,153);fill-rule:nonzero;"/>
    </g>
    <g id="shape341" transform="matrix(0.953728,0,0,0.953728,849.851,151.514)">
        <path d="M1.086,2.91C11.186,4.31 20.986,3.91 31.086,3.51C32.986,3.41 32.986,0.41 31.086,0.51C21.186,0.91 11.686,1.31 1.886,0.01C-0.014,-0.19 -0.814,2.71 1.086,2.91Z" style="fill:rgb(153,153,153);fill-rule:nonzero;"/>
    </g>
    <g id="shape342" transform="matrix(0.953728,0,0,0.953728,843.136,163.341)">
        <path d="M1.326,1.81C1.026,2.11 0.726,2.51 0.426,2.81C-0.474,3.81 0.126,5.31 1.526,5.41C18.926,5.71 36.326,4.91 53.626,3.01C55.526,2.81 55.526,-0.19 53.626,0.01C36.326,1.91 18.926,2.71 1.526,2.41C1.926,3.31 2.226,4.11 2.626,5.01C2.926,4.71 3.226,4.31 3.526,4.01C4.726,2.51 2.626,0.41 1.326,1.81Z" style="fill:rgb(153,153,153);fill-rule:nonzero;"/>
    </g>
    <g id="shape343" transform="matrix(0.953728,0,0,0.953728,863.476,176.777)">
        <path d="M1.5,4.122C10.6,4.822 19.7,4.422 28.7,2.922C30.6,2.622 29.8,-0.278 27.9,0.022C19.1,1.422 10.3,1.822 1.5,1.122C-0.5,1.022 -0.5,4.022 1.5,4.122Z" style="fill:rgb(153,153,153);fill-rule:nonzero;"/>
    </g>
    <g id="shape344" transform="matrix(0.953728,0,0,0.953728,826.441,188.283)">
        <path d="M15.932,32.558C7.832,32.958 0.932,25.858 3.532,17.658C5.532,11.158 13.032,4.258 19.832,3.158C23.132,2.658 26.732,3.458 29.232,5.758C32.932,9.158 31.932,14.158 30.232,18.258C27.332,25.458 22.032,31.958 13.932,32.858C12.032,33.058 12.032,36.058 13.932,35.858C24.332,34.758 31.732,25.858 34.232,16.058C36.632,6.858 29.832,-0.742 20.332,0.058C11.532,0.858 1.832,9.758 0.232,18.458C-1.468,28.158 6.432,36.058 15.932,35.558C17.832,35.458 17.832,32.458 15.932,32.558Z" style="fill:rgb(153,153,153);fill-rule:nonzero;"/>
    </g>
    <g id="shape345" transform="matrix(0.953728,0,0,0.953728,832.663,191.759)">
        <path d="M11.108,0.813C7.108,9.413 3.408,18.113 0.108,26.913C-0.592,28.713 2.308,29.513 3.008,27.713C6.308,19.113 9.808,10.613 13.708,2.313C14.508,0.513 12.008,-0.987 11.108,0.813Z" style="fill:rgb(153,153,153);fill-rule:nonzero;"/>
    </g>
    <g id="shape346" transform="matrix(0.953728,0,0,0.953728,840.156,199.981)">
        <path d="M7.851,0.792C5.251,6.192 2.751,11.592 0.151,16.992C-0.649,18.692 1.951,20.292 2.751,18.492C5.351,13.092 7.851,7.692 10.451,2.292C11.251,0.592 8.751,-1.008 7.851,0.792Z" style="fill:rgb(153,153,153);fill-rule:nonzero;"/>
    </g>
    <g id="shape347" transform="matrix(0.953728,0,0,0.953728,138.643,43.6335)">
        <path d="M0,1.425L0,28.825C0,30.725 3,30.725 3,28.825L3,1.425C3,-0.475 0,-0.475 0,1.425Z" style="fill:rgb(153,153,153);fill-rule:nonzero;"/>
    </g>
    <g id="shape348" transform="matrix(0.953728,0,0,0.953728,139.096,69.5034)">
        <path d="M1.425,3L26.825,3C28.725,3 28.725,0 26.825,0L1.425,0C-0.475,0 -0.475,3 1.425,3Z" style="fill:rgb(153,153,153);fill-rule:nonzero;"/>
    </g>
    <g id="shape349" transform="matrix(0.953728,0,0,0.953728,163.535,39.5325)">
        <path d="M3,31.225L3,1.425C3,-0.475 0,-0.475 0,1.425L0,31.225C0,33.125 3,33.125 3,31.225Z" style="fill:rgb(153,153,153);fill-rule:nonzero;"/>
    </g>
    <g id="shape350" transform="matrix(0.953728,0,0,0.953728,139.191,39.0794)">
        <path d="M27.425,0L1.425,0C-0.475,0 -0.475,3 1.425,3L27.425,3C29.325,3 29.325,0 27.425,0Z" style="fill:rgb(153,153,153);fill-rule:nonzero;"/>
    </g>
    <g id="shape351" transform="matrix(0.953728,0,0,0.953728,150.755,72.5314)">
        <path d="M0,1.425L0,31.925C0,33.825 3,33.825 3,31.925L3,1.425C3,-0.475 0,-0.475 0,1.425Z" style="fill:rgb(153,153,153);fill-rule:nonzero;"/>
    </g>
    <g id="shape352" transform="matrix(0.953728,0,0,0.953728,114.741,71.1645)">
        <path d="M2.562,32.958C13.662,22.358 25.262,12.158 37.262,2.458C38.762,1.258 36.662,-0.842 35.162,0.358C23.162,10.058 11.662,20.158 0.462,30.858C-0.938,32.158 1.162,34.258 2.562,32.958Z" style="fill:rgb(153,153,153);fill-rule:nonzero;"/>
    </g>
    <g id="shape353" transform="matrix(0.953728,0,0,0.953728,153.215,71.6884)">
        <path d="M0.621,2.909C12.621,12.009 24.621,21.109 36.621,30.209C38.121,31.409 39.621,28.809 38.121,27.609C26.121,18.509 14.121,9.409 2.121,0.309C0.621,-0.891 -0.879,1.709 0.621,2.909Z" style="fill:rgb(153,153,153);fill-rule:nonzero;"/>
    </g>
    <g id="shape354" transform="matrix(0.953728,0,0,0.953728,104.762,103.17)">
        <path d="M1.425,3L21.325,3C23.225,3 23.225,0 21.325,0L1.425,0C-0.475,0 -0.475,3 1.425,3Z" style="fill:rgb(153,153,153);fill-rule:nonzero;"/>
    </g>
    <g id="shape355" transform="matrix(0.953728,0,0,0.953728,123.383,105.173)">
        <path d="M0,1.5L0,24.1C0,26 3,26 3,24.1L3,1.5C3,-0.5 0,-0.5 0,1.5Z" style="fill:rgb(153,153,153);fill-rule:nonzero;"/>
    </g>
    <g id="shape356" transform="matrix(0.953728,0,0,0.953728,104.023,103.838)">
        <path d="M0,1.5L0,27.9C0,29.8 3,29.8 3,27.9L3,1.5C3,-0.5 0,-0.5 0,1.5Z" style="fill:rgb(153,153,153);fill-rule:nonzero;"/>
    </g>
    <g id="shape357" transform="matrix(0.953728,0,0,0.953728,103.808,129.302)">
        <path d="M1.425,3L19.925,3C21.825,3 21.825,0 19.925,0L1.425,0C-0.475,0 -0.475,3 1.425,3Z" style="fill:rgb(153,153,153);fill-rule:nonzero;"/>
    </g>
    <g id="shape358" transform="matrix(0.953728,0,0,0.953728,141.981,104.505)">
        <path d="M0,1.5L0,27.5C0,29.4 3,29.4 3,27.5L3,1.5C3,-0.5 0,-0.5 0,1.5Z" style="fill:rgb(153,153,153);fill-rule:nonzero;"/>
    </g>
    <g id="shape359" transform="matrix(0.953728,0,0,0.953728,142.053,128.634)">
        <path d="M1.425,3L19.625,3C21.525,3 21.525,0 19.625,0L1.425,0C-0.475,0 -0.475,3 1.425,3Z" style="fill:rgb(153,153,153);fill-rule:nonzero;"/>
    </g>
    <g id="shape360" transform="matrix(0.953728,0,0,0.953728,143.006,104.505)">
        <path d="M1.425,3L17.525,3C19.425,3 19.425,0 17.525,0L1.425,0C-0.475,0 -0.475,3 1.425,3Z" style="fill:rgb(153,153,153);fill-rule:nonzero;"/>
    </g>
    <g id="shape361" transform="matrix(0.953728,0,0,0.953728,158.671,104.195)">
        <path d="M0,1.425L0,26.125C0,28.025 3,28.025 3,26.125L3,1.425C3,-0.475 0,-0.475 0,1.425Z" style="fill:rgb(153,153,153);fill-rule:nonzero;"/>
    </g>
    <g id="shape362" transform="matrix(0.953728,0,0,0.953728,181.942,104.195)">
        <path d="M0.5,1.425C0.2,7.925 0,14.425 0,20.925C0,22.825 3,22.825 3,20.925C3,14.425 3.2,7.925 3.5,1.425C3.6,-0.475 0.6,-0.475 0.5,1.425Z" style="fill:rgb(153,153,153);fill-rule:nonzero;"/>
    </g>
    <g id="shape363" transform="matrix(0.953728,0,0,0.953728,182.264,101.253)">
        <path d="M1.463,5.21C8.063,4.51 14.663,3.71 21.263,3.01C23.163,2.81 23.163,-0.19 21.263,0.01C14.663,0.71 8.063,1.51 1.463,2.21C-0.437,2.41 -0.537,5.41 1.463,5.21Z" style="fill:rgb(153,153,153);fill-rule:nonzero;"/>
    </g>
    <g id="shape364" transform="matrix(0.953728,0,0,0.953728,201.205,101.906)">
        <path d="M0.403,1.425C-0.297,8.125 -0.097,14.725 1.103,21.325C1.403,23.225 4.303,22.425 4.003,20.525C2.903,14.125 2.703,7.825 3.403,1.425C3.603,-0.475 0.603,-0.475 0.403,1.425Z" style="fill:rgb(153,153,153);fill-rule:nonzero;"/>
    </g>
    <g id="shape365" transform="matrix(0.953728,0,0,0.953728,182.814,120.984)">
        <path d="M1.886,5.922C8.486,4.922 15.086,3.922 21.686,2.922C23.586,2.622 22.786,-0.278 20.886,0.022C14.286,1.022 7.686,2.022 1.086,3.022C-0.814,3.322 -0.014,6.122 1.886,5.922Z" style="fill:rgb(153,153,153);fill-rule:nonzero;"/>
    </g>
    <g id="shape366" transform="matrix(0.953728,0,0,0.953728,140.883,131.702)">
        <path d="M9.951,0.684C6.251,6.284 3.051,12.184 0.151,18.184C-0.649,19.884 1.951,21.484 2.751,19.684C5.651,13.584 8.951,7.784 12.551,2.184C13.551,0.584 10.951,-0.916 9.951,0.684Z" style="fill:rgb(153,153,153);fill-rule:nonzero;"/>
    </g>
    <g id="shape367" transform="matrix(0.953728,0,0,0.953728,150.979,131.415)">
        <path d="M0.266,2.184C3.966,7.184 7.166,12.384 9.866,17.884C10.766,19.584 13.366,18.084 12.466,16.384C9.666,10.884 6.466,5.584 2.866,0.684C1.766,-0.916 -0.834,0.584 0.266,2.184Z" style="fill:rgb(153,153,153);fill-rule:nonzero;"/>
    </g>
    <g id="shape368" transform="matrix(0.953728,0,0,0.953728,134.518,149.996)">
        <path d="M1.425,2.902C3.525,2.902 5.625,2.902 7.825,3.002C8.825,3.002 9.725,3.102 10.725,3.202C12.525,3.302 12.325,2.702 12.625,4.302C13.325,8.102 12.525,13.002 12.225,16.902C12.025,18.802 15.025,18.802 15.225,16.902C15.425,13.902 15.625,10.802 15.625,7.802C15.625,6.102 16.125,3.302 15.225,1.702C14.325,0.202 12.225,0.402 10.725,0.302C7.625,0.102 4.525,0.002 1.425,0.002C-0.475,-0.098 -0.475,2.902 1.425,2.902Z" style="fill:rgb(153,153,153);fill-rule:nonzero;"/>
    </g>
    <g id="shape369" transform="matrix(0.953728,0,0,0.953728,133.961,151.273)">
        <path d="M0.01,1.463C0.31,4.963 0.61,8.363 0.91,11.863C1.11,14.663 0.71,18.763 1.81,21.463C2.21,22.563 2.71,22.963 3.81,23.163C6.41,23.663 10.31,22.363 12.91,21.963C14.81,21.663 14.01,18.863 12.11,19.063C10.31,19.263 7.51,20.363 5.81,19.963C3.91,19.463 4.31,16.863 4.21,14.863C3.81,10.363 3.41,5.963 3.01,1.463C2.81,-0.437 -0.19,-0.537 0.01,1.463Z" style="fill:rgb(153,153,153);fill-rule:nonzero;"/>
    </g>
    <g id="shape370" transform="matrix(0.953728,0,0,0.953728,155.142,150.852)">
        <path d="M0.4,1.504C0.2,4.404 0.1,7.404 0.2,10.304C0.2,11.004 1.1,17.604 0.8,17.804C1.3,17.704 1.8,17.504 2.3,17.404C2.2,17.404 2.1,17.304 1.9,17.304C2.3,17.804 2.6,18.304 3,18.704L3,18.304C2.6,18.804 2.3,19.304 1.9,19.704C2,19.704 2.1,19.704 2.2,19.604C4.1,19.204 3.3,16.304 1.4,16.704C1.3,16.704 1.2,16.704 1.1,16.804C0.4,16.904 0,17.604 0,18.204L0,18.604C0,19.204 0.5,19.904 1.1,20.004C3.7,20.504 3.7,18.104 3.6,16.204C3.2,11.204 3,6.304 3.4,1.204C3.5,-0.496 0.5,-0.396 0.4,1.504Z" style="fill:rgb(153,153,153);fill-rule:nonzero;"/>
    </g>
    <g id="shape371" transform="matrix(0.953728,0,0,0.953728,154.379,149.293)">
        <path d="M3,3.839C3,3.139 9.4,2.939 10.3,3.039C12.8,3.439 12.3,3.639 12.7,5.439C13,6.639 12.6,8.339 12.5,9.539C12.4,12.039 12.4,14.439 12.5,16.939C12.5,18.339 13.5,22.539 12.8,23.539C13.5,23.339 14.2,23.139 14.9,23.039C14.8,23.039 14.7,22.939 14.6,22.939C14.8,23.539 15.1,24.039 15.3,24.639C15.3,24.539 15.4,24.439 15.4,24.339C15.9,22.439 13,21.639 12.5,23.539C12.5,23.639 12.4,23.739 12.4,23.839C12.2,24.439 12.5,25.239 13.1,25.539C13.2,25.539 13.3,25.639 13.4,25.639C14.2,25.939 15,25.839 15.5,25.139C16.2,24.139 15.9,23.139 15.8,21.939C15.7,19.239 15.5,16.439 15.5,13.739C15.5,11.039 15.6,8.239 15.7,5.539C15.8,4.339 16.1,2.739 15.3,1.639C13.6,-0.661 8.2,0.039 6,0.339C3.5,0.639 0.2,0.939 0,3.939C-0,5.739 3,5.739 3,3.839Z" style="fill:rgb(153,153,153);fill-rule:nonzero;"/>
    </g>
    <g id="shape372" transform="matrix(0.953728,0,0,0.953728,156.096,169.302)">
        <path d="M1.5,3.159C4.5,2.959 7.5,3.259 10.4,3.959C12.3,4.459 13.1,1.559 11.2,1.059C8,0.159 4.8,-0.141 1.5,0.059C-0.5,0.259 -0.5,3.259 1.5,3.159Z" style="fill:rgb(153,153,153);fill-rule:nonzero;"/>
    </g>
    <g id="shape373" transform="matrix(0.953728,0,0,0.953728,187.206,126.429)">
        <path d="M6.481,0.813C4.081,6.113 1.981,11.613 0.081,17.113C-0.519,18.913 2.381,19.713 2.981,17.913C4.781,12.613 6.781,7.413 9.081,2.313C9.881,0.513 7.281,-0.987 6.481,0.813Z" style="fill:rgb(153,153,153);fill-rule:nonzero;"/>
    </g>
    <g id="shape374" transform="matrix(0.953728,0,0,0.953728,176.996,145.102)">
        <path d="M1.886,4.933C6.886,3.533 11.986,2.833 17.286,3.033C19.186,3.133 19.186,0.133 17.286,0.033C11.786,-0.167 6.386,0.533 1.086,2.033C-0.814,2.533 -0.014,5.433 1.886,4.933Z" style="fill:rgb(153,153,153);fill-rule:nonzero;"/>
    </g>
    <g id="shape375" transform="matrix(0.953728,0,0,0.953728,178.277,145.396)">
        <path d="M0.443,3.225C-0.457,6.025 0.243,8.625 0.543,11.425C0.843,14.825 0.843,18.125 0.743,21.525C0.543,25.925 1.643,26.425 6.043,26.025C9.043,25.725 13.143,26.525 14.243,23.225C15.243,20.025 14.943,15.725 15.243,12.325C15.543,8.725 15.943,5.025 16.243,1.425C16.443,-0.475 13.443,-0.475 13.243,1.425C12.843,5.625 12.443,9.925 12.043,14.125C11.843,15.825 11.943,17.925 11.543,19.625C10.943,22.425 10.643,22.625 7.743,22.925C6.843,23.025 6.043,23.125 5.143,23.225C3.443,23.825 2.943,23.325 3.643,21.625C3.243,20.225 3.843,18.025 3.743,16.525C3.643,12.725 2.143,7.625 3.243,4.025C3.943,2.125 1.043,1.325 0.443,3.225Z" style="fill:rgb(153,153,153);fill-rule:nonzero;"/>
    </g>
    <g id="shape376" transform="matrix(0.953728,0,0,0.953728,197.139,127.73)">
        <path d="M0.266,2.248C2.566,5.748 4.566,9.448 6.466,13.248C7.266,14.948 9.866,13.448 9.066,11.748C7.266,7.948 5.166,4.348 2.866,0.748C1.766,-0.952 -0.834,0.548 0.266,2.248Z" style="fill:rgb(153,153,153);fill-rule:nonzero;"/>
    </g>
    <g id="shape377" transform="matrix(0.953728,0,0,0.953728,199.205,141.701)">
        <path d="M1.5,3L16.5,3C18.4,3 18.4,0 16.5,0L15.6,0C13.7,0 13.7,3 15.6,3L16.5,3C18.4,3 18.4,0 16.5,0L1.5,0C-0.5,0 -0.5,3 1.5,3Z" style="fill:rgb(153,153,153);fill-rule:nonzero;"/>
    </g>
    <g id="shape378" transform="matrix(0.953728,0,0,0.953728,199.196,142.821)">
        <path d="M0.01,1.725C0.41,5.525 0.71,9.325 0.81,13.125C0.91,15.825 0.01,20.425 1.21,22.925C1.91,24.425 2.81,24.625 4.41,24.625C8.11,24.525 12.11,23.625 15.81,23.125C16.41,23.025 16.91,22.225 16.91,21.725C16.81,14.925 16.71,8.225 16.61,1.425C16.61,-0.475 13.61,-0.475 13.61,1.425C13.71,8.225 13.81,14.925 13.91,21.725C14.31,21.225 14.61,20.725 15.01,20.325C12.61,20.625 10.21,20.925 7.81,21.325C7.01,21.425 4.71,22.125 4.01,21.525C3.51,21.125 4.01,18.025 4.01,17.425C3.91,12.225 3.61,7.025 3.11,1.925C2.81,-0.175 -0.19,-0.175 0.01,1.725Z" style="fill:rgb(153,153,153);fill-rule:nonzero;"/>
    </g>
    <g id="shape379" transform="matrix(0.953728,0,0,0.953728,90.8977,136.774)">
        <path d="M2.562,16.266C7.762,11.466 13.062,6.966 18.762,2.866C20.262,1.766 18.762,-0.834 17.262,0.266C11.362,4.566 5.762,9.166 0.462,14.166C-0.938,15.466 1.162,17.566 2.562,16.266Z" style="fill:rgb(153,153,153);fill-rule:nonzero;"/>
    </g>
    <g id="shape380" transform="matrix(0.953728,0,0,0.953728,107.679,136.184)">
        <path d="M0.266,2.184C3.266,6.484 5.766,10.984 7.766,15.684C8.566,17.484 11.166,15.884 10.366,14.184C8.266,9.384 5.766,4.884 2.866,0.684C1.766,-0.916 -0.834,0.584 0.266,2.184Z" style="fill:rgb(153,153,153);fill-rule:nonzero;"/>
    </g>
    <g id="shape381" transform="matrix(0.953728,0,0,0.953728,79.309,153.625)">
        <path d="M1.413,4.097C4.113,3.897 6.713,3.697 9.413,3.497C10.613,3.397 11.913,3.097 13.013,3.197C14.413,2.697 14.813,2.797 14.213,3.597C13.813,4.197 13.613,4.797 13.713,5.497C12.613,10.397 12.413,15.597 12.213,20.597C13.113,20.197 13.913,19.897 14.813,19.497C14.713,19.397 14.613,19.297 14.513,19.097C13.213,17.697 11.113,19.797 12.413,21.197C12.513,21.297 12.613,21.397 12.713,21.597C13.613,22.597 15.213,21.797 15.313,20.497C15.413,16.197 15.813,11.897 16.413,7.697C16.713,5.897 18.013,2.897 16.913,1.097C16.013,-0.303 14.513,-0.003 13.113,0.097C9.213,0.397 5.413,0.697 1.513,0.997C-0.487,1.297 -0.487,4.297 1.413,4.097Z" style="fill:rgb(153,153,153);fill-rule:nonzero;"/>
    </g>
    <g id="shape382" transform="matrix(0.953728,0,0,0.953728,77.0145,154.767)">
        <path d="M5.819,0L5.419,0C4.919,0 4.419,0.3 4.119,0.7C2.519,3.4 2.619,8.1 2.119,11.2C1.419,15.6 0.719,20 0.019,24.4C-0.081,25.2 0.219,26.1 1.019,26.2C5.719,27.2 10.119,27 14.619,25.3C16.419,24.6 15.619,21.7 13.819,22.4C9.819,23.9 6.019,24.2 1.819,23.3C2.119,23.9 2.519,24.5 2.819,25.1C3.119,23.1 6.619,3 5.619,2.9C7.719,3.2 7.719,0.2 5.819,0Z" style="fill:rgb(153,153,153);fill-rule:nonzero;"/>
    </g>
    <g id="shape383" transform="matrix(0.953728,0,0,0.953728,107.882,153.041)">
        <path d="M0.653,1.309L0.553,1.409L2.653,1.409C2.553,1.409 2.553,1.309 2.453,1.309L2.453,3.409C2.553,3.309 4.353,3.309 4.753,3.309C5.853,3.209 7.053,3.109 8.153,3.109C10.253,3.009 12.353,3.109 14.453,3.309C14.053,2.409 13.753,1.609 13.353,0.709C13.153,0.809 12.953,1.009 12.853,1.109C10.953,1.309 10.953,4.309 12.853,4.109C13.953,4.009 14.753,3.709 15.553,2.809C16.453,1.809 15.853,0.309 14.453,0.209C11.553,0.009 8.653,-0.091 5.753,0.109C4.353,0.209 1.453,-0.091 0.453,1.209C-0.047,1.809 -0.247,2.809 0.453,3.309C0.553,3.309 0.553,3.409 0.653,3.409C1.253,3.909 2.253,4.109 2.753,3.409L2.853,3.309C4.053,2.009 1.953,-0.091 0.653,1.309Z" style="fill:rgb(153,153,153);fill-rule:nonzero;"/>
    </g>
    <g id="shape384" transform="matrix(0.953728,0,0,0.953728,105.983,153.55)">
        <path d="M1.445,1.476C1.145,5.576 0.845,9.676 0.645,13.776C0.545,16.076 -0.755,21.976 0.645,24.076C1.345,25.076 2.045,25.476 3.345,25.376C4.645,25.376 6.045,24.476 7.245,24.176C9.645,23.476 12.145,23.276 14.645,23.276C16.545,23.276 16.545,20.276 14.645,20.276C12.445,20.276 10.245,20.476 8.045,20.976C7.045,21.176 5.145,22.276 4.245,22.076C3.545,22.576 3.245,22.476 3.445,21.676C3.345,20.876 3.345,20.076 3.445,19.176C3.545,13.376 4.045,7.476 4.445,1.676C4.645,-0.524 1.645,-0.524 1.445,1.476Z" style="fill:rgb(153,153,153);fill-rule:nonzero;"/>
    </g>
    <g id="shape385" transform="matrix(0.953728,0,0,0.953728,118.6,153.884)">
        <path d="M1.115,1.425C0.315,8.125 -0.085,14.825 0.015,21.625C0.015,23.525 3.015,23.525 3.015,21.625C2.915,14.825 3.315,8.125 4.115,1.425C4.415,-0.475 1.415,-0.475 1.115,1.425Z" style="fill:rgb(153,153,153);fill-rule:nonzero;"/>
    </g>
    <g id="shape386" transform="matrix(0.953728,0,0,0.953728,881.357,553.188)">
        <path d="M0.151,2.248C23.751,54.148 40.251,108.948 49.351,165.248C49.651,167.148 52.551,166.348 52.251,164.448C43.051,107.948 26.451,52.848 2.751,0.748C1.951,-0.952 -0.649,0.548 0.151,2.248Z" style="fill:rgb(127,199,179);fill-rule:nonzero;"/>
    </g>
    <g id="shape387" transform="matrix(0.953728,0,0,0.953728,930.897,470.942)">
        <path d="M72.708,0.684C43.508,45.284 18.108,92.284 0.108,142.584C-0.592,144.384 2.308,145.184 3.008,143.384C20.908,93.284 46.208,46.584 75.308,2.184C76.308,0.584 73.708,-0.916 72.708,0.684Z" style="fill:rgb(127,199,179);fill-rule:nonzero;"/>
    </g>
    <g id="shape388" transform="matrix(0.953728,0,0,0.953728,870.737,604.776)">
        <path d="M1.086,2.958C17.286,7.358 31.186,17.358 40.486,31.358C41.586,32.958 44.186,31.458 43.086,29.858C33.386,15.258 18.886,4.658 1.886,0.058C-0.014,-0.442 -0.814,2.458 1.086,2.958Z" style="fill:rgb(127,199,179);fill-rule:nonzero;"/>
    </g>
    <g id="shape389" transform="matrix(0.953728,0,0,0.953728,898.743,567.364)">
        <path d="M10.722,0.684C5.222,9.784 1.522,19.684 0.022,30.284C-0.278,32.184 2.622,32.984 2.922,31.084C4.422,20.784 7.922,11.084 13.322,2.184C14.322,0.584 11.722,-0.916 10.722,0.684Z" style="fill:rgb(127,199,179);fill-rule:nonzero;"/>
    </g>
    <g id="shape390" transform="matrix(0.953728,0,0,0.953728,938.238,511.88)">
        <path d="M0.41,2.66C5.31,8.06 8.71,14.26 11.31,20.96C12.51,23.96 13.51,27.06 14.41,30.06C15.31,32.96 17.41,37.26 16.21,40.16C15.51,41.96 18.41,42.76 19.11,40.96C20.31,38.06 19.11,35.16 18.21,32.36C17.01,28.26 15.71,24.16 14.11,20.16C11.31,12.96 7.61,6.26 2.41,0.46C1.21,-0.94 -0.89,1.16 0.41,2.66Z" style="fill:rgb(127,199,179);fill-rule:nonzero;"/>
    </g>
    <g id="shape391" transform="matrix(0.953728,0,0,0.953728,968.616,494.334)">
        <path d="M2.458,32.558C14.958,18.158 31.158,7.958 49.558,2.958C51.458,2.458 50.658,-0.442 48.758,0.058C29.958,5.158 13.158,15.658 0.358,30.358C-0.842,31.858 1.258,34.058 2.458,32.558Z" style="fill:rgb(127,199,179);fill-rule:nonzero;"/>
    </g>
    <g id="shape392" transform="matrix(0.953728,0,0,0.953728,934.893,573.29)">
        <path d="M2.517,30.071C11.518,22.071 22.118,16.471 33.318,12.271C38.417,10.371 43.518,8.87 48.718,7.37C51.618,6.57 54.417,5.87 57.318,5.07C58.718,4.77 64.618,2.37 65.718,2.97C65.518,2.27 65.317,1.57 65.218,0.87C65.118,0.97 65.118,1.07 65.018,1.17C65.718,0.97 66.418,0.77 67.118,0.67C67.018,0.67 66.918,0.57 66.818,0.57C65.118,-0.33 63.618,2.27 65.317,3.17C65.418,3.17 65.518,3.27 65.618,3.27C66.318,3.67 67.218,3.47 67.718,2.77C67.818,2.67 67.818,2.57 67.918,2.47C68.318,1.77 68.118,0.87 67.418,0.37C66.018,-0.43 64.518,0.27 63.018,0.57C59.618,1.37 56.218,2.17 52.818,3.07C46.318,4.77 39.818,6.67 33.417,8.87C21.418,13.171 10.018,19.071 0.517,27.671C-0.983,29.171 1.117,31.371 2.517,30.071Z" style="fill:rgb(127,199,179);fill-rule:nonzero;"/>
    </g>
    <g id="shape393" transform="matrix(0.953728,0,0,0.953728,887.687,711.934)">
        <path d="M1.015,8.1C23.715,13.6 46.815,9.5 69.515,6.8C94.115,3.9 118.815,3.4 143.515,3C145.415,3 145.415,0 143.515,0C119.415,0.4 95.315,0.9 71.415,3.6C48.315,6.3 24.815,10.8 1.815,5.2C0.015,4.7 -0.785,7.6 1.015,8.1Z" style="fill:rgb(127,199,179);fill-rule:nonzero;"/>
    </g>
    <g id="shape394" transform="matrix(0.953728,0,0,0.953728,955.582,702.585)">
        <path d="M1.425,9.402C41.825,7.302 82.225,5.102 122.625,3.002C124.525,2.902 124.525,-0.098 122.625,0.002C82.225,2.102 41.825,4.302 1.425,6.402C-0.475,6.502 -0.475,9.502 1.425,9.402Z" style="fill:rgb(127,199,179);fill-rule:nonzero;"/>
    </g>
    <g id="shape395" transform="matrix(0.953728,0,0,0.953728,823.131,400.833)">
        <path d="M24.602,37.096C14.702,38.996 2.602,29.496 2.902,18.996C3.302,7.095 18.202,3.095 27.702,2.995C38.202,2.995 45.602,11.096 43.102,21.696C42.002,26.296 39.102,30.096 35.502,32.996C33.402,34.696 24.902,40.896 22.502,37.896C21.302,36.396 19.202,38.496 20.402,39.996C23.602,43.996 30.202,39.896 33.602,37.996C38.802,34.896 43.502,30.196 45.502,24.395C49.502,12.695 42.402,0.995 30.102,0.095C18.402,-0.805 0.302,4.595 0.002,18.996C-0.198,31.596 13.602,42.196 25.502,39.996C27.302,39.696 26.502,36.795 24.602,37.096Z" style="fill:rgb(255,179,80);fill-rule:nonzero;"/>
    </g>
    <g id="shape396" transform="matrix(0.953728,0,0,0.953728,105.18,480.652)">
        <path d="M9.787,0.503C6.087,4.703 2.887,9.303 0.187,14.303C-0.713,16.003 1.887,17.503 2.787,15.803C5.387,11.103 8.387,6.703 11.987,2.603C13.187,1.203 11.087,-0.997 9.787,0.503Z" style="fill:rgb(22,22,22);fill-rule:nonzero;"/>
    </g>
    <g id="shape397" transform="matrix(0.953728,0,0,0.953728,114.124,480.194)">
        <path d="M0.309,2.184C3.309,6.384 6.309,10.484 9.309,14.684C10.409,16.284 13.009,14.784 11.909,13.184C8.909,8.984 5.909,4.884 2.909,0.684C1.709,-0.916 -0.891,0.584 0.309,2.184Z" style="fill:rgb(22,22,22);fill-rule:nonzero;"/>
    </g>
    <g id="shape398" transform="matrix(0.953728,0,0,0.953728,114.225,486.509)">
        <path d="M0.002,1.463C0.902,36.763 1.702,72.063 2.602,107.463C2.602,109.363 5.602,109.363 5.602,107.463C4.702,72.163 3.902,36.863 3.002,1.463C2.902,-0.437 -0.098,-0.537 0.002,1.463Z" style="fill:rgb(22,22,22);fill-rule:nonzero;"/>
    </g>
    <g id="shape399" transform="matrix(0.953728,0,0,0.953728,118.495,588.808)">
        <path d="M1.425,3L134.625,3C136.525,3 136.525,0 134.625,0L1.425,0C-0.475,0 -0.475,3 1.425,3Z" style="fill:rgb(22,22,22);fill-rule:nonzero;"/>
    </g>
    <g id="shape400" transform="matrix(0.953728,0,0,0.953728,239.919,584.537)">
        <path d="M1.51,4.478C4.61,5.678 7.61,6.878 10.71,8.078C10.31,6.978 9.81,5.878 9.41,4.778C7.91,7.478 5.81,9.578 3.21,11.179C0.71,12.679 3.01,16.578 5.51,15.079C8.81,13.179 11.51,10.379 13.41,7.078C14.21,5.678 13.41,4.278 12.11,3.778C9.01,2.578 6.01,1.378 2.91,0.178C0.01,-0.922 -1.19,3.378 1.51,4.478Z" style="fill:rgb(22,22,22);fill-rule:nonzero;"/>
    </g>
    <g id="shape401" transform="matrix(0.953728,0,0,0.953728,969.841,60.925)">
        <path d="M4.174,13.395C0.174,8.095 5.874,-0.005 12.074,3.995C14.874,5.795 16.174,9.495 14.174,12.395C12.374,14.995 8.674,16.095 5.874,14.695C4.174,13.795 2.674,16.395 4.374,17.295C8.474,19.295 13.474,18.095 16.374,14.495C19.474,10.595 18.374,5.095 14.574,2.095C10.874,-0.805 5.674,-0.805 2.474,2.795C-0.426,6.095 -0.926,11.395 1.774,14.995C2.674,16.395 5.274,14.895 4.174,13.395Z" style="fill:rgb(127,199,179);fill-rule:nonzero;"/>
    </g>
    <g id="shape402" transform="matrix(0.953728,0,0,0.953728,1050.21,403.837)">
        <path d="M3.108,34.145C2.908,29.445 6.408,26.245 11.008,26.245C12.908,26.245 14.408,26.745 16.208,25.945C19.608,24.445 20.908,20.545 22.008,17.245C23.608,12.445 24.808,10.145 30.808,11.645C32.408,12.045 33.408,12.845 35.108,12.245C40.108,10.345 37.108,1.745 44.708,3.145C46.608,3.545 47.408,0.645 45.508,0.245C43.108,-0.255 40.808,-0.055 38.708,1.445C36.808,2.845 36.608,4.545 35.508,6.345C35.408,8.245 34.108,9.045 31.708,8.745C31.208,8.445 30.608,8.145 30.108,7.945C29.008,7.845 28.408,7.245 27.208,7.345C25.008,7.445 23.308,8.845 22.008,10.445C20.108,12.745 19.608,15.545 18.508,18.345C17.408,21.145 16.308,23.145 12.908,23.445C11.408,23.545 10.008,23.045 8.508,23.245C3.208,24.045 -0.192,28.945 0.008,34.145C0.208,36.145 3.208,36.145 3.108,34.145Z" style="fill:rgb(127,199,179);fill-rule:nonzero;"/>
    </g>
    <g id="shape403" transform="matrix(0.953728,0,0,0.953728,145.052,471.786)">
        <path d="M2.725,120C16.825,91.7 19.025,59.8 27.325,29.7C29.425,22 31.525,13 37.325,7.2C45.825,-1.3 56.625,4.7 60.125,14.7C62.725,22.3 62.825,31.1 63.325,39.1C63.825,47.7 64.225,56.3 64.725,64.9C65.825,83.3 67.725,101.8 73.925,119.3C74.525,121.1 77.425,120.3 76.825,118.5C70.325,100.1 68.525,80.6 67.525,61.2C67.025,51.7 66.625,42.1 65.925,32.6C65.325,25 65.025,16.7 61.425,9.8C58.625,4.4 53.225,0 46.925,0C40.425,0 35.025,4.5 31.725,9.7C27.425,16.6 25.425,25.3 23.425,33.1C21.225,41.8 19.425,50.6 17.625,59.4C13.625,79.6 9.525,99.9 0.225,118.5C-0.775,120.2 1.825,121.7 2.725,120Z" style="fill:rgb(115,200,169);fill-rule:nonzero;"/>
    </g>
    <g id="shape404" transform="matrix(0.953728,0,0,0.953728,158.149,460.52)">
        <path d="M3.448,7.812C1.448,4.912 5.548,1.012 7.948,4.212C10.248,7.212 5.948,10.213 3.548,7.912C2.148,6.612 0.048,8.712 1.448,10.012C3.548,12.012 6.948,12.213 9.348,10.512C12.048,8.612 12.348,5.012 10.348,2.412C8.348,-0.188 4.648,-0.888 2.148,1.312C-0.052,3.312 -0.752,6.812 0.948,9.312C1.948,10.913 4.548,9.412 3.448,7.812Z" style="fill:rgb(115,200,169);fill-rule:nonzero;"/>
    </g>
    <g id="shape405" transform="matrix(0.953728,0,0,0.953728,178.933,449.312)">
        <path d="M3.756,6.264C2.156,3.964 5.656,1.864 7.156,4.264C8.756,6.864 4.256,9.764 2.756,6.864C1.856,5.164 -0.644,6.664 0.156,8.364C1.456,11.064 4.956,11.764 7.456,10.264C10.056,8.764 11.256,5.364 9.656,2.664C8.256,0.364 4.956,-0.836 2.556,0.664C0.256,2.164 -0.544,5.364 0.956,7.664C2.256,9.364 4.856,7.864 3.756,6.264Z" style="fill:rgb(115,200,169);fill-rule:nonzero;"/>
    </g>
    <g id="shape406" transform="matrix(0.953728,0,0,0.953728,171.132,428.143)">
        <path d="M3.234,6.46C2.434,4.16 4.934,1.76 6.934,3.66C8.934,5.56 6.634,8.26 4.334,7.46C2.534,6.86 1.734,9.76 3.534,10.36C8.734,12.06 13.134,5.46 9.034,1.56C7.234,-0.24 4.434,-0.54 2.334,0.96C0.434,2.36 -0.566,4.96 0.334,7.26C1.034,9.06 3.934,8.36 3.234,6.46Z" style="fill:rgb(115,200,169);fill-rule:nonzero;"/>
    </g>
    <g id="shape407" transform="matrix(0.953728,0,0,0.953728,208.06,457.688)">
        <path d="M2.715,2.182C2.415,1.982 2.815,2.282 2.915,2.482L2.915,2.782C2.915,2.882 2.915,2.882 2.915,2.682L2.915,2.782C3.115,2.682 2.915,2.782 2.915,2.782C2.815,2.782 3.215,2.782 3.315,2.782C3.615,2.782 3.915,2.882 4.215,2.982C3.815,2.482 3.515,1.982 3.115,1.582L3.115,3.982C3.515,3.482 3.815,2.982 4.215,2.582C3.415,2.882 2.615,2.982 1.815,2.782C0.015,2.182 -0.785,5.082 1.015,5.682C2.315,6.082 3.815,6.082 5.015,5.482C5.615,5.182 6.115,4.782 6.115,4.082L6.115,1.682C6.115,0.982 5.615,0.382 5.015,0.282C3.415,-0.118 1.515,-0.318 0.515,1.282C-0.285,2.482 -0.185,4.382 1.315,4.982C2.015,5.382 2.915,5.182 3.415,4.482C3.715,3.582 3.515,2.582 2.715,2.182Z" style="fill:rgb(115,200,169);fill-rule:nonzero;"/>
    </g>
    <g id="shape408" transform="matrix(0.953728,0,0,0.953728,369.206,77.5998)">
        <path d="M0.751,2.611C1.251,2.811 0.151,7.811 0.651,9.011C1.351,10.511 2.951,11.411 4.551,11.611C6.751,12.011 8.651,11.011 10.451,9.911C12.251,8.811 16.551,5.011 17.851,9.211C18.151,10.111 17.151,12.311 17.451,13.511C18.351,17.511 22.151,17.311 24.851,15.211C25.851,14.411 26.451,13.411 27.251,12.511C28.251,10.111 29.751,9.611 31.651,11.011C31.651,11.611 31.751,12.211 31.951,12.711C32.951,14.211 33.451,15.211 35.451,15.111C37.351,15.011 37.351,12.011 35.451,12.111C35.551,12.111 33.351,7.611 32.151,7.111C30.751,6.511 29.151,7.011 27.851,7.811C26.951,8.311 26.251,9.111 25.551,9.811C24.051,11.311 24.151,13.511 21.751,12.011C19.451,10.611 21.351,8.411 19.751,6.411C17.151,3.111 12.751,4.911 9.951,6.711C8.351,7.711 4.351,11.311 3.351,6.011C3.251,5.311 3.851,4.211 3.851,3.511C3.851,1.911 3.551,1.011 2.151,0.311C0.551,-0.889 -0.949,1.711 0.751,2.611Z" style="fill:rgb(127,199,179);fill-rule:nonzero;"/>
    </g>
    <g id="shape409" transform="matrix(0.953728,0,0,0.953728,270.153,301.772)">
        <path d="M0.01,1.463C1.21,15.463 2.41,29.463 3.71,43.463C3.91,45.363 6.51,45.363 6.71,43.463C6.71,43.163 6.81,42.763 6.81,42.463C7.01,40.563 4.01,40.563 3.81,42.463C3.81,42.763 3.71,43.163 3.71,43.463L6.71,43.463C5.51,29.463 4.31,15.463 3.01,1.463C2.81,-0.437 -0.19,-0.537 0.01,1.463Z" style="fill:rgb(255,179,80);fill-rule:nonzero;"/>
    </g>
    <g id="shape410" transform="matrix(0.953728,0,0,0.953728,270.556,300.395)">
        <path d="M1.886,4.006C6.086,3.106 13.386,1.806 16.586,5.306C19.486,8.406 18.786,14.506 19.186,18.706C19.886,27.106 20.586,35.506 21.286,43.806C21.486,45.706 24.486,45.706 24.286,43.806C23.286,31.806 23.186,19.206 21.186,7.306C19.686,-1.994 8.086,-0.294 1.086,1.106C-0.814,1.506 -0.014,4.406 1.886,4.006Z" style="fill:rgb(255,179,80);fill-rule:nonzero;"/>
    </g>
    <g id="shape411" transform="matrix(0.953728,0,0,0.953728,296.762,249.03)">
        <path d="M0.01,1.463C3.21,33.463 4.31,65.563 3.31,97.763C3.21,99.663 6.21,99.663 6.31,97.763C7.31,65.663 6.21,33.463 3.01,1.463C2.81,-0.437 -0.19,-0.537 0.01,1.463Z" style="fill:rgb(255,179,80);fill-rule:nonzero;"/>
    </g>
    <g id="shape412" transform="matrix(0.953728,0,0,0.953728,299.168,247.562)">
        <path d="M1.086,3.003C5.186,3.603 10.186,3.603 13.986,5.003C19.086,6.803 18.286,16.003 18.786,20.703C19.686,29.803 20.286,38.903 20.886,48.003C21.986,66.903 22.386,85.803 22.786,104.703C22.786,106.603 25.786,106.603 25.786,104.703C25.286,82.903 24.786,61.003 23.286,39.203C22.586,29.003 22.086,18.703 20.486,8.603C19.086,0.003 8.786,1.103 1.886,0.003C-0.014,-0.097 -0.814,2.703 1.086,3.003Z" style="fill:rgb(255,179,80);fill-rule:nonzero;"/>
    </g>
    <g id="shape413" transform="matrix(0.953728,0,0,0.953728,324.427,231.136)">
        <path d="M0.002,1.425C3.402,39.425 6.902,77.325 10.302,115.325C10.502,117.225 13.502,117.225 13.302,115.325C9.902,77.325 6.402,39.425 3.002,1.425C2.902,-0.475 -0.098,-0.475 0.002,1.425Z" style="fill:rgb(255,179,80);fill-rule:nonzero;"/>
    </g>
    <g id="shape414" transform="matrix(0.953728,0,0,0.953728,324.442,230.113)">
        <path d="M1.886,3.998C6.686,3.098 11.586,2.798 16.486,3.298C20.586,3.698 23.486,4.498 23.686,8.898C23.786,10.399 23.786,11.999 23.786,13.499C24.086,20.999 24.386,28.499 24.786,35.999C26.086,64.698 27.586,93.299 29.086,121.998C29.186,123.898 32.186,123.898 32.086,121.998C30.486,90.999 28.886,60.099 27.486,29.099C27.186,22.599 26.886,16.198 26.686,9.698C26.586,6.798 26.586,3.898 23.886,1.998C21.386,0.298 17.486,0.198 14.586,0.098C10.086,-0.202 5.586,0.198 1.086,1.098C-0.814,1.498 -0.014,4.398 1.886,3.998Z" style="fill:rgb(255,179,80);fill-rule:nonzero;"/>
    </g>
    <g id="shape415" transform="matrix(0.953728,0,0,0.953728,240.132,222.584)">
        <path d="M9.987,0.792C6.687,7.292 3.487,13.792 0.187,20.292C-0.713,21.992 1.887,23.492 2.787,21.792C6.087,15.292 9.287,8.792 12.587,2.292C13.387,0.592 10.787,-1.008 9.987,0.792Z" style="fill:rgb(22,22,22);fill-rule:nonzero;"/>
    </g>
    <g id="shape416" transform="matrix(0.953728,0,0,0.953728,249.983,224.422)">
        <path d="M0.058,1.865C1.458,7.665 4.558,12.765 9.158,16.565C10.658,17.765 12.758,15.665 11.258,14.465C7.058,10.965 4.258,6.465 2.958,1.165C2.458,-0.835 -0.442,-0.035 0.058,1.865Z" style="fill:rgb(22,22,22);fill-rule:nonzero;"/>
    </g>
    <g id="shape417" transform="matrix(0.953728,0,0,0.953728,247.995,226.177)">
        <path d="M0.043,1.425C-0.557,45.225 5.143,88.925 17.043,131.125C17.543,133.025 20.443,132.225 19.943,130.325C8.143,88.425 2.443,45.025 3.043,1.425C3.043,-0.475 0.043,-0.475 0.043,1.425Z" style="fill:rgb(22,22,22);fill-rule:nonzero;"/>
    </g>
    <g id="shape418" transform="matrix(0.953728,0,0,0.953728,266.323,347.493)">
        <path d="M1.425,6.523C24.825,4.323 48.325,3.123 71.825,3.023C93.725,2.923 117.425,2.023 137.625,11.924C139.325,12.724 140.825,10.224 139.125,9.323C119.525,-0.277 97.125,-0.077 75.725,0.023C50.925,0.023 26.125,1.223 1.425,3.523C-0.475,3.723 -0.475,6.723 1.425,6.523Z" style="fill:rgb(22,22,22);fill-rule:nonzero;"/>
    </g>
    <g id="shape419" transform="matrix(0.953728,0,0,0.953728,385.136,346.378)">
        <path d="M0.748,2.792C6.148,6.092 11.348,9.692 16.148,13.692C16.248,12.892 16.348,12.092 16.448,11.292C12.348,14.392 8.348,17.492 4.248,20.592C2.748,21.792 4.248,24.392 5.748,23.192C9.848,20.092 13.848,16.992 17.948,13.892C18.648,13.392 19.048,12.192 18.248,11.492C13.148,7.292 7.848,3.492 2.248,0.192C0.548,-0.708 -0.952,1.792 0.748,2.792Z" style="fill:rgb(22,22,22);fill-rule:nonzero;"/>
    </g>
    <g id="shape420" transform="matrix(0.953728,0,0,0.953728,256.515,148.584)">
        <path d="M0.409,133.482C1.909,135.282 3.409,137.082 4.909,138.882C5.509,139.582 6.809,139.382 7.309,138.582C15.309,122.882 23.209,107.082 31.309,91.382C33.409,87.382 36.309,90.682 39.309,91.782C41.209,92.482 43.209,92.282 45.109,91.582C49.909,89.782 53.109,84.782 55.309,80.382C58.909,72.882 62.109,65.082 65.609,57.482C66.509,55.382 67.509,53.282 68.409,51.282C68.909,50.082 69.509,47.582 70.509,46.682C73.609,43.882 81.209,50.282 83.809,51.882C88.109,54.482 94.309,60.282 99.909,58.782C104.109,57.682 106.109,53.082 107.309,49.282C113.109,32.182 120.509,16.682 131.909,2.582C132.809,1.482 132.009,-0.418 130.409,0.082C125.209,1.782 120.509,4.382 116.209,7.682C114.809,8.782 116.609,10.782 118.009,10.082C121.909,8.182 125.909,6.182 129.809,4.282C129.109,3.982 128.309,3.682 127.609,3.382C128.809,9.382 130.009,15.382 131.109,21.382C131.509,23.282 134.409,22.482 134.009,20.582C132.809,14.582 131.609,8.582 130.509,2.582C130.309,1.582 129.109,1.282 128.309,1.682C124.409,3.582 120.409,5.582 116.509,7.482C117.109,8.282 117.709,9.082 118.309,9.882C122.209,6.782 126.409,4.582 131.209,2.982C130.709,2.182 130.209,1.282 129.709,0.482C121.009,11.282 113.809,23.182 108.609,36.082C107.209,39.482 106.009,42.982 104.909,46.482C104.009,49.282 102.609,55.282 98.909,55.882C94.709,56.582 89.309,51.782 85.909,49.682C82.509,47.582 79.209,45.282 75.709,43.382C71.709,41.282 69.209,42.082 67.209,45.982C63.409,53.482 60.309,61.482 56.809,69.182C54.209,74.982 50.909,86.682 43.809,88.582C39.009,89.882 34.609,82.682 30.309,86.882C27.809,89.282 26.509,93.782 25.009,96.782C22.709,101.282 20.509,105.682 18.209,110.182C13.709,119.082 9.109,127.982 4.609,136.882C5.409,136.782 6.209,136.682 7.009,136.582C5.509,134.782 4.009,132.982 2.509,131.182C1.209,129.882 -0.891,131.982 0.409,133.482Z" style="fill:rgb(22,22,22);fill-rule:nonzero;"/>
    </g>
    <g id="shape421" transform="matrix(0.953728,0,0,0.953728,659.153,2.84217e-14)">
        <path d="M13.536,40.776C3.736,35.376 -0.464,21.676 5.736,11.976C12.036,2.075 27.336,0.275 36.236,7.575C45.336,15.176 45.436,30.776 36.736,38.676C27.736,46.975 12.636,44.776 5.236,35.576C4.036,34.076 1.936,36.176 3.136,37.676C10.036,46.076 22.336,49.076 32.436,44.876C42.236,40.776 47.336,30.176 46.036,19.876C44.736,9.275 36.836,1.375 26.236,0.175C16.136,-1.025 5.336,3.975 1.536,13.775C-2.664,24.576 2.036,37.676 12.136,43.176C13.736,44.276 15.236,41.676 13.536,40.776Z" style="fill:rgb(255,106,90);fill-rule:nonzero;stroke:black;stroke-opacity:0;stroke-width:1.05px;stroke-linejoin:round;stroke-miterlimit:2;"/>
    </g>
    <g id="shape422" transform="matrix(0.953728,0,0,0.953728,709.639,42.5842)">
        <path d="M4,14.525C-0.2,6.725 10.6,-1.875 16,6.525C20.8,13.925 9,19.525 5.2,12.625C4.3,10.925 1.7,12.425 2.6,14.125C5,18.525 10.6,19.725 15,17.825C20.2,15.625 21.5,9.625 18.6,5.025C15.6,0.225 9.4,-1.675 4.6,1.725C0.1,4.925 -1.3,11.225 1.3,16.125C2.4,17.725 5,16.225 4,14.525Z" style="fill:rgb(255,106,90);fill-rule:nonzero;stroke:black;stroke-opacity:0;stroke-width:1.05px;stroke-linejoin:round;stroke-miterlimit:2;"/>
    </g>
    <g id="shape423" transform="matrix(0.953728,0,0,0.953728,661.858,774.976)">
        <path d="M1.5,3L237.5,3C239.4,3 239.4,0 237.5,0L1.5,0C-0.5,0 -0.5,3 1.5,3Z" style="fill:rgb(22,22,22);fill-rule:nonzero;"/>
    </g>
    <g id="shape424" transform="matrix(0.953728,0,0,0.953728,934.123,774.976)">
        <path d="M1.425,3L46.425,3C48.325,3 48.325,0 46.425,0L1.425,0C-0.475,0 -0.475,3 1.425,3Z" style="fill:rgb(22,22,22);fill-rule:nonzero;"/>
    </g>
    <g id="shape425" transform="matrix(0.953728,0,0,0.953728,445.719,818.275)">
        <path d="M1.425,3L158.425,3C160.325,3 160.325,0 158.425,0L1.425,0C-0.475,0 -0.475,3 1.425,3Z" style="fill:rgb(22,22,22);fill-rule:nonzero;"/>
    </g>
    <g id="shape426" transform="matrix(0.953728,0,0,0.953728,593.547,806.83)">
        <path d="M1.425,3L137.425,3C139.325,3 139.325,0 137.425,0L1.425,0C-0.475,0 -0.475,3 1.425,3Z" style="fill:rgb(22,22,22);fill-rule:nonzero;"/>
    </g>
    <g id="shape427" transform="matrix(0.953728,0,0,0.953728,244.244,797.579)">
        <path d="M2.175,4.5L43.175,4.5C46.075,4.5 46.075,0 43.175,0L2.175,0C-0.725,0 -0.725,4.5 2.175,4.5Z" style="fill:rgb(22,22,22);fill-rule:nonzero;"/>
    </g>
    <g id="shape428" transform="matrix(0.953728,0,0,0.953728,296.699,797.579)">
        <path d="M2.175,4.5L16.175,4.5C19.075,4.5 19.075,0 16.175,0L2.175,0C-0.725,0 -0.725,4.5 2.175,4.5Z" style="fill:rgb(22,22,22);fill-rule:nonzero;"/>
    </g>
    <g id="cat" transform="matrix(0.953728,0,0,0.953728,-179.997,-132.115)">
        <g id="shape430" transform="matrix(1,0,0,1,340.714,797.672)">
            <path d="M48.086,0.028C49.986,0.328 52.586,2.728 54.586,14.128C60.486,14.528 66.386,14.928 72.286,15.328C77.186,11.228 82.086,7.128 86.986,2.928C87.686,6.928 88.586,12.828 89.386,20.028C91.186,36.728 90.086,40.728 91.186,50.028C91.686,54.128 93.986,71.428 104.686,88.228C112.886,101.128 118.286,101.528 124.686,114.128C129.686,124.028 131.186,133.328 131.786,139.428C132.786,139.328 145.486,138.328 153.586,148.228C157.286,152.828 161.386,161.428 158.286,168.228C155.286,174.828 148.386,173.828 135.886,184.728C131.486,188.528 127.286,192.328 128.286,195.328C129.286,198.428 134.686,197.828 144.186,202.928C149.186,205.628 151.586,207.028 152.386,209.428C155.386,218.128 136.386,231.528 133.586,233.528C124.386,239.928 113.186,244.928 111.786,242.928C109.686,239.928 132.286,223.428 128.886,217.028C126.386,212.228 112.186,218.228 108.886,212.928C105.286,207.128 117.986,192.628 124.786,184.728C137.886,169.528 146.186,165.728 144.786,160.628C143.286,155.228 131.886,151.628 125.986,155.328C120.986,158.428 121.986,165.428 120.086,170.028C116.486,178.828 99.286,186.028 40.086,179.428C40.886,177.828 42.086,175.928 43.586,174.128C48.686,168.228 55.086,166.128 58.286,165.328C57.386,163.828 52.186,154.928 55.386,144.128C57.786,135.928 63.486,131.428 65.386,130.028C61.386,122.128 57.386,113.528 53.586,104.128C51.186,98.028 48.986,92.128 47.086,86.428C41.486,86.428 34.986,85.428 29.986,81.128C22.486,74.528 25.486,66.428 17.686,60.528C10.386,54.928 1.686,57.428 0.186,52.628C-0.514,50.328 0.886,47.628 2.386,46.228C6.186,42.628 12.986,44.428 20.386,46.428C25.486,47.828 32.786,50.428 40.886,55.328C38.186,51.428 33.286,43.228 32.986,32.328C32.286,15.928 42.286,-0.772 48.086,0.028Z" style="fill:rgb(22,22,22);fill-rule:nonzero;"/>
        </g>
        <g id="shape431" transform="matrix(1,0,0,1,379.842,869.124)">
            <path d="M5.458,0.376C-1.442,3.376 1.158,23.676 3.658,42.176C5.258,53.876 7.958,69.376 13.058,87.476C-0.942,98.276 -0.242,101.376 0.158,102.176C1.458,104.876 10.758,103.276 13.658,102.776C16.758,102.276 21.158,101.476 23.658,99.876C30.758,95.176 27.058,80.876 24.858,58.076C21.658,25.076 25.458,11.276 14.858,3.376C13.458,2.276 8.858,-1.124 5.458,0.376Z" style="fill:rgb(22,22,22);fill-rule:nonzero;"/>
        </g>
        <g transform="matrix(1,0,0,1,314.684,906.337)">
            <g id="group560">
                <g id="group561">
                    <path id="shape432" d="M2.216,4.563C2.516,4.463 5.116,3.163 5.016,3.063C4.816,2.963 4.816,4.563 4.816,4.963C4.716,6.263 4.316,7.863 4.516,9.263C4.916,11.263 6.416,12.263 8.416,12.063C9.516,11.963 10.316,11.463 11.216,10.763C11.416,10.563 12.816,9.363 12.916,9.363C13.116,9.463 13.116,11.663 13.216,11.863C13.616,13.763 15.016,15.363 17.116,15.163C19.016,14.963 19.016,11.963 17.116,12.163C16.116,12.263 15.816,6.863 14.116,6.263C13.416,5.963 12.616,6.163 12.016,6.463C10.516,7.163 8.316,10.363 7.616,7.563C7.116,5.463 9.216,2.463 7.316,0.663C5.516,-1.037 2.516,0.963 0.816,1.863C-0.984,2.863 0.516,5.463 2.216,4.563Z" style="fill:white;fill-rule:nonzero;"/>
                </g>
            </g>
        </g>
        <g transform="matrix(1,0,0,1,383.783,827.153)">
            <g id="group562">
                <g id="group563">
                    <path id="shape433" d="M1.917,3.147C3.617,1.547 6.517,1.947 7.717,3.947C8.517,5.147 10.417,4.047 9.617,2.847C7.617,-0.353 3.017,-0.953 0.317,1.547C-0.683,2.547 0.917,4.147 1.917,3.147Z" style="fill:white;fill-rule:nonzero;"/>
                </g>
            </g>
        </g>
        <g transform="matrix(1,0,0,1,405.183,825.911)">
            <g id="group564">
                <g id="group565">
                    <path id="shape434" d="M1.917,3.689C3.717,1.889 6.717,1.789 8.617,3.489C9.717,4.489 11.317,2.889 10.217,1.889C7.417,-0.711 3.017,-0.611 0.317,2.089C-0.683,3.089 0.917,4.689 1.917,3.689Z" style="fill:white;fill-rule:nonzero;"/>
                </g>
            </g>
        </g>
        <g transform="matrix(1,0,0,1,386.57,839.885)">
            <g id="group566">
                <g id="group567">
                    <path id="shape435" d="M3.03,1.415C1.93,3.615 -2.77,11.215 2.33,11.815C4.43,12.015 6.43,10.115 7.63,8.715C9.33,6.715 10.33,4.215 11.23,1.815C11.93,0.015 9.03,-0.785 8.33,1.015C7.23,3.815 6.03,6.415 3.63,8.415C3.13,8.815 2.83,9.515 3.03,8.615C3.13,8.015 3.43,7.415 3.73,6.915C4.33,5.615 4.93,4.315 5.63,3.015C6.43,1.115 3.83,-0.385 3.03,1.415Z" style="fill:rgb(236,97,91);fill-rule:nonzero;"/>
                </g>
            </g>
        </g>
        <g transform="matrix(1,0,0,1,388.713,838.084)">
            <g id="group568">
                <g id="group569">
                    <path id="shape436" d="M3.587,4.816C4.887,4.216 5.887,3.416 7.087,2.616C6.687,2.716 6.287,2.716 5.887,2.816C5.987,2.816 6.087,2.916 6.187,2.916C5.887,2.716 5.587,2.416 5.287,2.216C5.287,1.616 5.187,1.616 4.787,2.316C4.487,2.616 4.287,2.916 3.987,3.316C3.487,3.916 3.087,4.516 2.687,5.116C1.787,6.516 0.987,7.916 0.187,9.416C-0.713,11.116 1.887,12.616 2.787,10.916C3.687,9.316 4.587,7.616 5.587,6.116C6.387,4.916 8.087,3.616 8.187,2.116C8.287,1.016 7.387,0.016 6.387,0.016C5.687,-0.084 5.187,0.316 4.687,0.716C3.787,1.416 2.987,1.916 1.887,2.416C0.387,2.916 1.887,5.516 3.587,4.816Z" style="fill:rgb(255,106,90);fill-rule:nonzero;"/>
                </g>
            </g>
        </g>
        <g transform="matrix(1,0,0,1,388.175,834.203)">
            <g id="group570">
                <g id="group571">
                    <path id="shape437" d="M1.125,6.997C4.425,7.097 7.525,4.697 8.125,1.397C8.325,-0.003 6.225,-0.603 5.925,0.797C5.525,3.197 3.525,4.897 1.125,4.797C-0.375,4.697 -0.375,6.897 1.125,6.997Z" style="fill:white;fill-rule:nonzero;"/>
                </g>
            </g>
        </g>
        <g transform="matrix(1,0,0,1,394.397,833.85)">
            <g id="group572">
                <g id="group573">
                    <path id="shape438" d="M0.003,1.05C0.403,5.05 3.903,8.25 8.003,7.95C9.403,7.85 9.403,5.55 8.003,5.65C5.203,5.85 2.503,3.95 2.203,1.05C2.103,-0.35 -0.097,-0.35 0.003,1.05Z" style="fill:white;fill-rule:nonzero;"/>
                </g>
            </g>
        </g>
    </g>
    <g id="shape439" transform="matrix(0.953728,0,0,0.953728,681.123,484.375)">
        <path d="M99.2,0C66.1,40.1 33.1,80.1 0,120.2C51.9,133.1 103.8,146 155.7,158.9C157.4,137.4 157.8,93.5 133.9,47.6C123.1,26.8 110.2,11.2 99.2,0Z" style="fill:rgb(255,179,80);fill-rule:nonzero;"/>
    </g>
    <g id="shape440" transform="matrix(0.953728,0,0,0.953728,671.872,606.738)">
        <path d="M0,0C52.4,13.2 104.9,26.3 157.3,39.5C156.7,47.9 155,59.6 150,72.6C144.1,88.2 135.8,99.5 129.8,106.5C86.6,71 43.3,35.5 0,0Z" style="fill:rgb(115,200,169);fill-rule:nonzero;"/>
    </g>
    <g transform="matrix(0.953728,0,0,0.953728,664.172,599.141)">
        <g id="group574">
            <g id="group575">
                <path id="shape441" d="M2.574,3.365C2.974,2.965 3.974,3.265 4.174,3.765C4.274,3.365 4.274,2.965 4.374,2.565C4.274,2.765 3.974,2.665 3.874,2.565C3.074,2.265 2.274,2.865 2.074,3.565C1.874,4.365 2.374,5.165 3.074,5.365C4.274,5.765 5.674,5.465 6.474,4.565C7.474,3.565 7.174,2.165 6.274,1.265C4.674,-0.335 2.174,-0.435 0.574,1.065C-1.026,2.465 1.074,4.665 2.574,3.365Z" style="fill:rgb(22,22,22);fill-rule:nonzero;"/>
            </g>
        </g>
    </g>
    <g id="shape442" transform="matrix(0.953728,0,0,0.953728,668.86,472.373)">
        <path d="M103.058,0.684C71.158,47.084 36.858,91.884 0.358,134.784C-0.842,136.284 1.258,138.384 2.458,136.884C39.158,93.784 73.558,48.884 105.658,2.184C106.758,0.584 104.158,-0.916 103.058,0.684Z" style="fill:rgb(22,22,22);fill-rule:nonzero;"/>
    </g>
    <g id="shape443" transform="matrix(0.953728,0,0,0.953728,666.735,601.376)">
        <path d="M1.086,2.922C57.486,13.022 113.486,24.922 169.086,38.722C170.986,39.222 171.786,36.322 169.886,35.822C114.286,22.122 58.286,10.122 1.886,0.022C-0.014,-0.278 -0.814,2.622 1.086,2.922Z" style="fill:rgb(22,22,22);fill-rule:nonzero;"/>
    </g>
    <g id="shape444" transform="matrix(0.953728,0,0,0.953728,667.101,601.293)">
        <path d="M0.503,2.509C43.203,41.609 87.203,79.209 132.503,115.409C134.003,116.609 136.103,114.509 134.603,113.309C89.403,77.209 45.303,39.509 2.603,0.409C1.203,-0.891 -0.997,1.209 0.503,2.509Z" style="fill:rgb(22,22,22);fill-rule:nonzero;"/>
    </g>
    <g id="shape445" transform="matrix(0.953728,0,0,0.953728,497.817,435.855)">
        <path d="M174.9,0.074C178.6,16.574 181.1,40.074 172,64.074C151.3,118.874 91.2,121.574 68.4,166.274C56,190.574 52.9,230.774 92.1,300.774L92.1,336.074C80.5,329.574 67.7,320.774 55.4,308.774C8.7,263.074 1.5,203.374 0,180.674C0.1,164.274 2.4,110.974 41.7,63.374C50.6,52.574 82.2,15.574 136,3.674C151.7,0.274 165.3,-0.226 174.9,0.074Z" style="fill:rgb(109,108,108);fill-opacity:0.21;fill-rule:nonzero;"/>
    </g>
    <g id="shape446" transform="matrix(0.953728,0,0,0.953728,369.121,685.707)">
        <path d="M13.84,18.5C20.74,35.9 27.64,53.2 34.44,70.6C30.34,79.6 24.04,92.9 15.34,108.8C3.94,129.6 -1.46,136.6 0.34,138.7C2.94,141.7 19.84,134.2 85.44,85.1C81.34,73.7 77.14,62.2 73.04,50.5C67.04,33.5 61.24,16.7 55.54,0C41.74,6.2 27.84,12.4 13.84,18.5Z" style="fill:rgb(22,22,22);fill-rule:nonzero;"/>
    </g>
    <g id="shape447" transform="matrix(0.953728,0,0,0.953728,354.358,374.315)">
        <path d="M213.719,40.2C224.819,59.1 216.919,88.4 215.819,92.3C209.719,115 195.919,117.2 145.319,165.1C113.619,195.2 104.519,207.4 97.819,220.8C88.719,239.2 85.419,256.3 84.119,267.9C88.219,291.9 92.319,315.8 96.418,339.8C85.919,346.6 71.219,354.7 52.419,360.4C39.219,364.4 27.219,366.4 17.319,367.3C8.119,344 -5.081,301 2.019,248.7C10.618,185 44.319,143.3 72.319,108.7C114.919,56.1 164.219,22 206.419,0C205.019,7.5 204.219,18.3 208.419,29.7C210.419,35.1 212.619,38.3 213.719,40.2Z" style="fill:rgb(255,106,90);fill-rule:nonzero;"/>
    </g>
    <g id="shape448" transform="matrix(0.953728,0,0,0.953728,393.486,386.808)">
        <path d="M156.092,0C143.592,33.8 128.592,60 114.992,79.7C74.492,138.6 44.592,143.4 20.692,198.1C5.392,233.1 2.092,266.5 1.092,278.5C-1.408,306.4 0.792,330.1 3.592,347.5C9.192,347.3 16.192,346.5 23.892,344.3C38.792,340 49.392,332.5 55.492,327.2C53.792,319.1 51.292,307.1 48.492,292.4C44.692,272 42.792,261.7 42.792,254.4C42.792,232.9 51.892,216.7 59.292,203.8C62.792,197.7 72.992,180.8 108.692,148.1C146.392,113.6 162.092,107.6 171.992,82.3C177.892,67.2 177.792,55.2 177.692,51.3C176.792,25 161.992,6.6 156.092,0Z" style="fill:rgb(109,108,108);fill-opacity:0.2;fill-rule:nonzero;"/>
    </g>
    <g id="shape449" transform="matrix(0.953728,0,0,0.953728,407.108,443.555)">
        <path d="M163.31,0C142.81,17.2 113.51,42.9 79.81,75.9C30.91,123.9 22.21,137.9 18.41,144.9C7.81,164.4 -10.39,208.8 7.61,282.9C13.51,280.5 19.61,277.8 26.01,274.7C31.11,272.2 36.01,269.6 40.61,267.1C36.61,243.7 32.61,220.3 28.61,196.8C28.91,188 30.31,174.8 36.21,160.1C37.61,156.6 41.71,146.9 52.01,132.9C60.21,121.7 68.11,114.1 83.61,99.4C96.01,87.6 108.01,75.2 120.91,64C144.11,43.9 154.51,38.4 160.11,22.9C163.41,13.8 163.61,5.5 163.31,0Z" style="fill:rgb(109,108,108);fill-opacity:0.27;fill-rule:nonzero;"/>
    </g>
    <g id="shape450" transform="matrix(0.953728,0,0,0.953728,487.326,670.924)">
        <path d="M0,31.8C15.2,43.5 30.4,55.2 45.6,66.9C25.4,118.1 25.4,131.4 29.5,133.7C36.3,137.6 58.6,113.5 71.3,95.8C82.6,79.9 89.2,65 93,54.6C86.8,46.7 79.7,38.5 71.8,30.1C60.9,18.5 50.2,8.6 40.1,0C26.8,10.7 13.4,21.2 0,31.8Z" style="fill:rgb(22,22,22);fill-rule:nonzero;"/>
    </g>
    <g id="shape451" transform="matrix(0.953728,0,0,0.953728,434.313,386.658)">
        <path d="M211.585,27.258C220.485,50.858 215.085,73.658 213.685,79.358C203.485,121.758 165.585,156.758 152.185,168.958C129.285,189.958 110.285,200.458 99.685,228.458C95.985,238.058 94.485,246.558 93.885,252.358C101.185,269.058 108.485,285.758 115.785,302.358C110.985,312.658 100.485,331.658 79.285,346.158C70.285,352.358 61.485,356.158 54.285,358.658C39.085,343.158 -2.115,297.158 0.085,235.658C1.785,188.458 28.485,150.458 49.085,120.958C69.785,91.458 75.085,95.058 101.185,57.358C123.785,24.658 128.085,9.758 147.085,3.158C166.185,-3.542 194.185,0.158 206.485,16.758C208.885,20.258 209.985,23.158 211.585,27.258Z" style="fill:rgb(255,106,90);fill-rule:nonzero;"/>
    </g>
    <g id="shape452" transform="matrix(0.953728,0,0,0.953728,479.727,405.692)">
        <path d="M117.467,2.8C118.567,12 119.367,27.8 114.767,46C98.767,107.9 40.167,113.3 11.967,180.3C6.467,193.4 -6.333,225.1 3.767,261.8C11.567,290.4 29.767,309 40.067,318C44.067,315.9 50.667,311.7 56.467,304.3C63.667,295.1 65.967,285.7 66.767,281C59.667,263.9 52.567,246.7 45.567,229.6C46.867,222 49.567,211.1 55.867,199.4C64.467,183.2 74.867,175 88.267,162.9C112.867,140.8 128.567,126.8 142.167,107.5C150.767,95.2 163.267,77.1 167.367,50.6C170.767,29 167.167,10.9 164.067,0C148.567,1 132.967,1.9 117.467,2.8Z" style="fill:rgb(109,108,108);fill-opacity:0.24;fill-rule:nonzero;"/>
    </g>
    <g id="shape453" transform="matrix(0.953728,0,0,0.953728,507.081,438.977)">
        <path d="M139.687,0C131.787,14.5 118.187,37.1 97.187,61.3C56.787,107.8 29.387,117.5 10.587,153.3C2.487,168.7 -4.913,194.1 4.187,234.9C15.687,239.5 27.287,244.1 38.787,248.8C31.487,231.6 24.287,214.5 16.987,197.3C17.687,188.8 19.787,176.2 26.887,163.2C33.187,151.6 40.187,145.5 55.587,131.5C81.087,108.3 93.887,96.7 99.087,90.9C110.987,77.8 123.987,63.1 132.187,40.4C138.187,24.3 139.487,9.8 139.687,0Z" style="fill:rgb(109,108,108);fill-opacity:0.25;fill-rule:nonzero;"/>
    </g>
    <g id="shape454" transform="matrix(0.953728,0,0,0.953728,365.597,244.079)">
        <path d="M44.634,37.355C41.934,31.355 37.234,22.655 28.634,14.755C17.834,4.855 2.734,-2.245 0.334,0.655C-0.666,1.855 -0.566,6.055 17.634,26.155" style="fill:rgb(142,106,73);fill-rule:nonzero;stroke:rgb(22,22,22);stroke-width:2px;"/>
    </g>
    <g id="shape455" transform="matrix(0.953728,0,0,0.953728,356.322,264.064)">
        <path d="M16.849,0C12.949,2.4 6.049,7.5 2.349,16.3C0.949,19.7 -0.851,24.1 0.449,29.2C2.749,38 13.349,41.7 14.249,42.1C18.549,43.6 19.649,42.5 22.749,44.3C27.749,47.2 27.549,51.1 31.249,54.7C38.849,62 54.249,59.1 54.949,56C55.349,54.3 50.949,52.7 51.349,49.6C51.549,47.7 53.449,46.9 54.749,45.7C61.749,39.3 55.049,20.6 53.849,17.5C52.749,14.6 51.049,10.4 48.049,5.7" style="fill:rgb(142,106,73);fill-rule:nonzero;stroke:rgb(22,22,22);stroke-width:2px;"/>
    </g>
    <g transform="matrix(0.953728,0,0,0.953728,354.845,288.915)">
        <g id="group576">
            <g id="group577">
                <path id="shape456" d="M0.108,1.843C2.408,7.843 6.808,13.143 12.908,15.543C19.108,18.043 23.708,14.743 23.808,8.143C23.808,6.243 20.808,6.243 20.808,8.143C20.708,15.843 13.108,13.043 9.308,9.943C6.408,7.643 4.308,4.543 3.008,1.043C2.308,-0.757 -0.592,-0.057 0.108,1.843Z" style="fill:rgb(22,22,22);fill-rule:nonzero;"/>
            </g>
        </g>
    </g>
    <g transform="matrix(0.953728,0,0,0.953728,361.923,280.708)">
        <g id="group578">
            <g id="group579">
                <path id="shape457" d="M0.187,2.248C3.187,7.848 7.187,14.048 13.387,16.348C18.987,18.448 22.287,15.048 22.887,9.748C23.087,7.848 20.087,7.848 19.887,9.748C18.987,17.648 11.287,12.148 8.587,9.348C6.187,6.848 4.387,3.848 2.787,0.748C1.887,-0.952 -0.713,0.548 0.187,2.248Z" style="fill:rgb(22,22,22);fill-rule:nonzero;"/>
            </g>
        </g>
    </g>
    <g transform="matrix(0.953728,0,0,0.953728,370.541,267.771)">
        <g id="group580">
            <g id="group581">
                <path id="shape458" d="M0.151,2.313C1.951,6.313 3.751,10.413 6.251,14.013C7.951,16.513 10.351,20.113 13.651,20.713C21.451,22.213 18.951,11.113 17.451,7.313C16.751,5.513 13.851,6.313 14.551,8.113C15.251,9.813 16.751,13.313 16.151,15.213C14.451,20.713 9.851,13.913 8.851,12.513C6.351,8.913 4.551,4.813 2.751,0.813C1.951,-0.987 -0.649,0.513 0.151,2.313Z" style="fill:rgb(22,22,22);fill-rule:nonzero;"/>
            </g>
        </g>
    </g>
    <g transform="matrix(0.953728,0,0,0.953728,369.972,262.362)">
        <g id="group582">
            <g id="group583">
                <path id="shape459" d="M2.248,3.484C5.248,1.984 8.948,4.684 11.048,6.684C13.148,8.684 14.548,11.284 15.648,13.884C16.348,15.684 19.248,14.884 18.548,13.084C16.048,6.884 8.648,-3.016 0.748,0.884C-0.952,1.684 0.548,4.284 2.248,3.484Z" style="fill:rgb(22,22,22);fill-rule:nonzero;"/>
            </g>
        </g>
    </g>
    <g id="shape460" transform="matrix(0.953728,0,0,0.953728,386.729,221.05)">
        <path d="M201.577,16.101C204.777,25.601 199.877,33.701 186.177,58.101C163.177,98.701 161.777,102.301 156.477,108.701C143.977,123.701 136.877,132.201 123.777,137.701C99.877,147.701 73.377,138.901 58.877,133.401C45.377,128.201 35.377,121.501 28.877,116.501C24.477,112.901 21.077,110.101 18.877,108.401C14.277,104.701 12.177,103.101 10.377,99.901C10.277,99.801 8.577,96.701 8.177,93.201C6.677,82.501 17.277,73.501 18.077,72.801C5.377,75.801 0.977,75.201 0.177,73.401C-1.723,69.401 12.077,54.701 21.777,58.001C26.377,59.501 28.677,64.701 30.377,68.501C33.677,75.701 33.277,82.401 32.877,85.801C38.977,90.001 47.677,94.901 58.777,98.201C80.677,104.601 99.477,101.201 108.777,98.801C113.877,90.601 122.177,77.201 132.277,60.501C159.877,14.701 167.177,0.201 179.877,0.001C189.377,-0.099 198.777,7.801 201.577,16.101Z" style="fill:rgb(142,106,73);fill-rule:nonzero;stroke:rgb(22,22,22);stroke-width:2px;"/>
    </g>
    <g id="group584">
    </g>
    <g id="shape462" transform="matrix(0.953728,0,0,0.953728,355.765,224.961)">
        <path d="M218.743,0C212.443,16.9 202.243,41 186.143,68.3C169.743,96.2 161.143,110.2 146.343,117.6C115.943,132.7 69.043,122.5 53.243,93.6C48.443,84.8 47.343,75.9 47.343,69.2C45.388,69.869 41.304,63.508 37.023,56.874C34.487,52.942 31.88,48.915 29.607,46.199C28.261,44.59 27.032,43.442 26.003,43.044C13.203,37.944 17.943,45.5 11.143,45.7C6.643,45.9 3.343,54.4 2.143,57.5C1.043,60.3 -0.757,64.9 0.343,69.7C1.943,76.8 9.443,82.4 18.843,84.2C23.743,86.6 26.843,89.3 28.743,91.4C32.043,95 32.943,97.8 36.443,99.5C39.543,101 42.843,100.8 45.043,100.4C49.743,104.2 57.143,109.9 66.743,115.8C87.343,128.4 112.243,143.6 140.443,138.4C153.743,136 162.843,129.9 168.443,126.2C177.543,120.1 187.343,110.9 205.943,77.4C213.643,63.5 223.143,45 232.643,22.2C233.043,21.2 235.243,15.3 232.143,9.1C228.343,0.9 219.243,0 218.743,0Z" style="fill:rgb(109,108,108);fill-opacity:0.21;fill-rule:nonzero;"/>
    </g>
    <g id="shape463" transform="matrix(0.953728,0,0,0.953728,373.638,290.878)">
        <path d="M10.804,0.385C9.404,1.385 10.004,3.385 8.304,4.885C7.104,5.885 5.504,5.885 4.504,5.885C4.504,7.285 4.304,9.085 3.204,10.685C1.804,12.685 -0.096,13.085 0.004,13.885C0.204,14.785 3.004,14.285 5.704,15.785C7.604,16.885 8.804,18.585 9.504,19.885C16.104,13.585 22.704,7.385 29.304,1.085C24.304,2.985 20.604,2.685 18.104,2.085C14.904,1.085 12.504,-0.815 10.804,0.385Z" style="fill:rgb(109,108,108);fill-opacity:0.22;fill-rule:nonzero;"/>
    </g>
    <g id="shape464" transform="matrix(0.953728,0,0,0.953728,525.761,191.676)">
        <path d="M55,27.3C48.3,34 44.8,41.6 38,56.8C32.6,68.7 23.9,88.6 21,115.1C17.8,144.7 25.3,151.4 19.3,173.4C14.8,190 6.3,202.2 0,209.6C8.1,217.7 22.8,230.2 44.7,237.9C81.8,250.9 114.4,241.1 125.1,237.3C134,213.3 142.8,189.3 151.7,165.4C151.8,145.1 152.6,127.8 153.4,114.4C155.4,82.4 158.7,57.9 160.8,43C163.2,25.5 165.7,10.8 167.6,0C145.1,1.2 126.5,3.8 113.2,6.2C69.6,14.2 59.3,23 55,27.3Z" style="fill:rgb(173,77,111);fill-rule:nonzero;stroke:rgb(22,22,22);stroke-width:2px;"/>
    </g>
    <g id="shape465" transform="matrix(0.953728,0,0,0.953728,561.335,192.248)">
        <path d="M70.7,6.3C75.2,17 81,34.3 82.3,56C85.4,107.6 60.5,148 41.6,178.6C33,192.5 19.7,211.8 0,232.7C7.6,236.7 18.5,241.2 32.2,243.4C57,247.4 77.2,241.4 87.2,237.6C95.6,213.4 103.9,189.3 112.3,165.1C112.8,148.6 113.7,131.5 115,114.1C118,73.5 122.9,35.4 128.9,0C109.5,2.1 90.1,4.2 70.7,6.3Z" style="fill:rgb(109,108,108);fill-opacity:0.19;fill-rule:nonzero;"/>
    </g>
    <g id="shape466" transform="matrix(0.953728,0,0,0.953728,573.352,192.725)">
        <path d="M76,2.7C83.2,21.3 90.7,48.4 89,81C84.2,171.7 12.4,226.6 0,235.8C7.6,238.5 17.9,241.3 30.4,242.1C49,243.3 64.1,239.5 73.4,236.3C82.6,212.1 91.9,188 101.1,163.8C101.1,141.7 101.9,118.1 103.8,93.1C106.4,59.4 110.7,28.2 115.9,0C102.6,0.9 89.3,1.8 76,2.7Z" style="fill:rgb(109,108,108);fill-opacity:0.11;fill-rule:nonzero;"/>
    </g>
    <g id="shape467" transform="matrix(0.953728,0,0,0.953728,669.995,190.436)">
        <path d="M12.668,0C20.768,3 32.668,8.8 41.268,20.5C50.868,33.6 52.968,49.4 47.468,99.5C42.368,146.1 37.968,156.1 36.268,184.1C34.368,214.9 37.268,240.1 39.968,256.2C51.368,253.5 62.768,250.8 74.168,248.1C86.568,251.4 94.068,257.5 97.768,261.2C101.468,264.8 109.268,272.4 107.068,278.6C105.668,282.6 100.568,284.6 98.368,285.4C94.068,287.1 90.468,286.9 86.568,286.6C78.268,286.1 69.968,285.8 61.668,285.4C57.368,285.2 51.168,285 43.668,285.4C53.768,294.1 58.068,299.7 56.768,302.2C54.968,305.5 42.968,303.2 20.668,295.4C19.668,287.3 18.068,275 15.668,260C9.468,220.8 4.968,206.8 1.968,186C-1.132,164.5 -0.132,145.1 1.968,106.4C3.568,79 6.468,42.8 12.668,0Z" style="fill:rgb(142,106,73);fill-rule:nonzero;stroke:rgb(22,22,22);stroke-width:2px;"/>
    </g>
    <g transform="matrix(0.953728,0,0,0.953728,724.645,445.541)">
        <g id="group586">
            <g id="group587">
                <path id="shape468" d="M1.767,4.618C9.467,1.418 17.467,3.218 24.867,6.518C31.167,9.218 37.367,12.518 42.267,17.318C43.667,18.618 45.767,16.518 44.367,15.218C38.667,9.718 31.567,6.018 24.267,3.118C16.767,0.018 8.667,-1.382 0.867,1.818C-0.733,2.418 0.067,5.318 1.767,4.618Z" style="fill:rgb(22,22,22);fill-rule:nonzero;"/>
            </g>
        </g>
    </g>
    <g transform="matrix(0.953728,0,0,0.953728,733.877,437.948)">
        <g id="group588">
            <g id="group589">
                <path id="shape469" d="M1.886,3.379C15.186,0.779 30.986,8.679 38.286,19.979C39.386,21.579 41.986,20.079 40.886,18.479C32.686,5.979 15.886,-2.321 1.086,0.579C-0.814,0.879 -0.014,3.779 1.886,3.379Z" style="fill:rgb(22,22,22);fill-rule:nonzero;"/>
            </g>
        </g>
    </g>
    <g transform="matrix(0.953728,0,0,0.953728,745.285,431.727)">
        <g id="group590">
            <g id="group591">
                <path id="shape470" d="M1.425,3.002C6.725,3.202 11.325,5.502 15.925,8.002C17.625,8.902 19.125,6.302 17.425,5.402C12.325,2.702 7.225,0.202 1.425,0.002C-0.475,-0.098 -0.475,2.902 1.425,3.002Z" style="fill:rgb(22,22,22);fill-rule:nonzero;"/>
            </g>
        </g>
    </g>
    <g id="shape471" transform="matrix(0.953728,0,0,0.953728,683.412,192.725)">
        <path d="M0,0C5,11.3 12.1,29.7 15.7,53.3C24.4,111.1 3,141.2 6.8,203.7C7.7,219.2 10.6,242.3 19.8,270.4C27.8,267.8 40,265.2 54.3,266.8C64.4,268 69.4,268.6 74.4,272.2C79.4,275.8 82.3,280.6 87.4,280.3C89.4,280.2 92.1,279.3 93.2,277.2C95.9,272.3 88.5,263.9 86,261.1C82.4,257 75,250 61.4,245.9C49.6,248.3 37.8,250.7 26,253.1C23.7,242.9 20.5,225.9 20.2,204.8C19.9,186.8 23.1,165 29.6,122C30.8,114 32.3,97.9 35.4,65.6C36.4,55 37.2,45.5 33.6,33.8C31.8,27.9 27.4,14.5 14.4,6.1C8.9,2.3 3.6,0.8 0,0Z" style="fill:rgb(109,108,108);fill-opacity:0.16;fill-rule:nonzero;"/>
    </g>
    <g id="shape472" transform="matrix(0.953728,0,0,0.953728,704.299,462.058)">
        <path d="M0,0C1.3,3.2 4.1,8.7 9.8,13C13.3,15.6 19.4,18.8 20.5,17.5C21.9,15.9 16.6,7.1 8.4,2.7C5.3,1 2.2,0.3 0,0Z" style="fill:rgb(109,108,108);fill-opacity:0.22;fill-rule:nonzero;"/>
    </g>
    <g id="shape473" transform="matrix(0.953728,0,0,0.953728,698.283,271.217)">
        <path d="M17.507,0C8.407,25 -2.493,65.1 0.507,114.6C2.007,139.9 6.907,161.7 12.107,179C6.907,159.2 5.407,142.8 4.907,131.6C3.707,101.7 9.107,84.9 14.707,30C16.107,17.3 17.007,6.8 17.507,0Z" style="fill:rgb(109,108,108);fill-opacity:0.4;fill-rule:nonzero;"/>
    </g>
    <g id="shape474" transform="matrix(0.953728,0,0,0.953728,734.243,434.984)">
        <path d="M0.003,4.188C-0.197,2.988 9.803,-1.612 19.703,0.588C33.003,3.588 39.203,17.588 40.303,20.288C35.603,14.988 28.003,8.088 17.003,5.488C7.703,3.388 0.103,5.188 0.003,4.188Z" style="fill:rgb(109,108,108);fill-opacity:0.22;fill-rule:nonzero;"/>
    </g>
    <g id="shape475" transform="matrix(0.953728,0,0,0.953728,535.129,165.763)">
        <path d="M8.378,5.37C4.178,9.27 3.278,17.47 1.578,33.57C-0.322,52.07 -1.122,61.47 2.778,66.17C9.878,74.77 25.178,75.27 35.778,70.57C48.278,64.97 52.578,52.87 53.678,49.87C58.578,35.97 56.978,14.97 42.178,5.37C32.178,-1.23 16.678,-2.33 8.378,5.37Z" style="fill:rgb(127,199,179);fill-rule:nonzero;"/>
    </g>
    <g id="shape476" transform="matrix(0.953728,0,0,0.953728,563.479,153.712)">
        <path d="M0.252,32.605C1.752,39.805 9.752,40.405 16.552,51.905C21.452,60.205 22.452,68.705 22.552,74.805C28.652,74.705 39.952,73.505 52.152,67.205C61.652,62.205 68.052,55.905 71.752,51.605C69.252,47.505 65.552,41.505 61.152,34.305C42.152,3.805 39.352,1.405 35.552,0.405C20.152,-3.295 -2.648,19.205 0.252,32.605Z" style="fill:rgb(142,106,73);fill-rule:nonzero;stroke:rgb(22,22,22);stroke-width:2px;"/>
    </g>
    <g transform="matrix(0.953728,0,0,0.953728,575.961,172.559)">
        <g id="group592">
            <g id="group593">
                <path id="shape477" d="M18.264,0.745C13.664,10.445 8.964,20.045 2.564,28.745C3.364,28.645 4.164,28.545 4.964,28.445C4.364,27.745 3.764,26.945 3.264,26.245C3.164,26.845 3.064,27.445 3.064,28.045C5.664,25.845 7.664,23.445 9.464,20.545C8.564,20.045 7.764,19.545 6.864,19.045C5.464,22.045 3.664,23.845 0.764,25.145C1.364,25.945 1.964,26.745 2.564,27.545C7.764,22.645 12.464,17.245 16.664,11.445C17.764,9.845 15.164,8.345 14.064,9.945C10.064,15.545 5.464,20.745 0.464,25.445C-0.836,26.645 0.864,28.445 2.264,27.845C5.564,26.345 7.964,23.945 9.464,20.645C10.264,18.945 7.964,17.445 6.864,19.145C5.164,21.745 3.264,23.945 0.964,26.045C0.464,26.445 0.364,27.345 0.764,27.845C1.664,29.245 1.764,29.445 2.964,30.645C3.664,31.445 4.764,31.045 5.364,30.345C11.764,21.745 16.464,12.045 21.064,2.345C21.664,0.545 19.064,-0.955 18.264,0.745Z" style="fill:rgb(22,22,22);fill-rule:nonzero;"/>
            </g>
        </g>
    </g>
    <g id="shape478" transform="matrix(0.953728,0,0,0.953728,497.912,80.3609)">
        <path d="M3.201,20.616C-1.399,29.116 -0.299,37.716 1.901,54.516C4.501,73.516 7.901,89.416 12.001,99.916C12.601,101.516 14.201,102.416 15.901,102.216C18.101,102.016 21.401,100.316 23.301,99.716C25.701,104.016 29.701,109.816 35.901,115.216C48.201,125.816 61.701,128.316 67.701,129.016C73.601,126.816 88.201,120.316 97.901,104.716C104.301,94.316 105.601,84.716 105.901,82.516C107.601,68.116 102.801,56.916 100.501,52.316C102.601,51.016 105.801,48.716 108.001,44.816C112.601,36.716 112.401,23.316 105.101,19.716C99.601,17.016 90.901,20.016 85.001,27.716C83.101,24.416 80.201,20.016 75.801,15.616C74.701,14.516 66.601,6.316 57.401,2.616C39.401,-4.484 12.601,3.316 3.201,20.616Z" style="fill:rgb(142,106,73);fill-rule:nonzero;stroke:rgb(22,22,22);stroke-width:2px;"/>
    </g>
    <g transform="matrix(0.953728,0,0,0.953728,524.343,169.469)">
        <g id="group594">
            <g id="group595">
                <path id="shape479" d="M1.886,15.484C8.786,13.684 12.786,7.884 16.286,2.184C17.286,0.584 14.686,-0.916 13.686,0.684C10.586,5.684 7.086,10.984 1.086,12.684C-0.814,13.084 -0.014,15.984 1.886,15.484Z" style="fill:rgb(22,22,22);fill-rule:nonzero;"/>
            </g>
        </g>
    </g>
    <g transform="matrix(0.953728,0,0,0.953728,533.391,168.5)">
        <g id="group596">
            <g id="group597">
                <path id="shape480" d="M1.5,3C3.5,3.1 5.1,3.9 6.4,5.4C7.7,6.9 9.8,4.7 8.5,3.3C6.7,1.2 4.2,0.1 1.5,0C-0.5,0 -0.5,3 1.5,3Z" style="fill:rgb(22,22,22);fill-rule:nonzero;"/>
            </g>
        </g>
    </g>
    <g transform="matrix(0.953728,0,0,0.953728,524.712,153.908)">
        <g id="group598">
            <g id="group599">
                <path id="shape481" d="M3,1.8L3,1.5C3,0.7 2.3,0 1.5,0C0.7,0 0,0.7 0,1.5L0,1.8C0,2.6 0.7,3.3 1.5,3.3C2.3,3.2 3,2.6 3,1.8Z" style="fill:rgb(22,22,22);fill-rule:nonzero;"/>
            </g>
        </g>
    </g>
    <g transform="matrix(0.953728,0,0,0.953728,532.604,145.134)">
        <g id="group600">
            <g id="group601">
                <path id="shape482" d="M1.425,3C3.325,3 3.325,0 1.425,0C-0.475,0 -0.475,3 1.425,3Z" style="fill:rgb(22,22,22);fill-rule:nonzero;"/>
            </g>
        </g>
    </g>
    <g transform="matrix(0.953728,0,0,0.953728,531.746,152.382)">
        <g id="group602">
            <g id="group603">
                <path id="shape483" d="M1.425,3C3.325,3 3.325,0 1.425,0C-0.475,0 -0.475,3 1.425,3Z" style="fill:rgb(22,22,22);fill-rule:nonzero;"/>
            </g>
        </g>
    </g>
    <g id="shape484" transform="matrix(0.953728,0,0,0.953728,480.801,44.9431)">
        <path d="M16.842,91.852C13.642,90.752 6.842,87.852 2.942,81.152C-3.158,70.752 1.742,58.652 4.142,52.952C5.442,49.752 9.042,41.852 26.442,26.352C39.642,14.452 46.342,8.552 53.842,5.252C80.642,-6.448 108.042,4.752 113.042,6.852C120.442,9.852 125.842,13.552 136.542,20.752C149.542,29.552 157.842,35.252 164.342,45.052C172.242,57.052 167.442,60.152 174.242,73.652C185.042,95.052 199.942,92.452 208.842,112.252C210.342,115.552 218.642,133.952 209.242,150.052C201.542,163.152 185.842,167.852 174.242,167.552C152.742,166.952 139.242,148.552 132.142,138.952C118.642,120.652 116.042,101.252 115.442,90.852C123.942,86.552 127.242,77.352 124.142,70.952C121.742,65.852 114.742,61.552 108.642,64.152C104.442,65.952 101.742,70.752 101.842,76.052C97.842,76.752 85.542,78.252 72.842,71.252C63.442,66.152 58.342,58.952 56.142,55.352C50.542,57.552 41.542,61.752 32.642,70.052C24.142,78.052 19.342,86.452 16.842,91.852Z" style="fill:rgb(127,199,179);fill-rule:nonzero;"/>
    </g>
    <g id="shape485" transform="matrix(0.953728,0,0,0.953728,534.631,98.592)">
        <path d="M25.6,41.4C36.7,51.8 42.1,63.3 43.8,67.2C50.8,83.2 50.4,97.9 49.7,105.4C53.3,99.3 56.8,93.2 60.4,87C66.2,100 71.9,113 77.7,125.9C80.8,125.2 86.9,123.4 92.8,118.2C97.3,114.2 99.7,109.9 100.9,107.2C92.5,101.2 76,87.6 66.4,64.2C61.8,53 60,42.6 59.4,34.8C67.5,30.4 70.9,21.6 68.2,15C66.3,10.2 60.4,4.8 53.9,6.6C48.4,8.1 44.6,14 45.5,20.6C41.3,21.1 31.3,21.8 20.2,16.9C8.7,11.8 2.4,3.5 0,0C2.7,17.7 9.5,27.3 15.2,32.8C18.8,36.5 20.3,36.5 25.6,41.4Z" style="fill:rgb(109,108,108);fill-opacity:0.24;fill-rule:nonzero;"/>
    </g>
    <g id="shape486" transform="matrix(0.953728,0,0,0.953728,582.698,142.654)">
        <path d="M9.2,0C8.5,0 8.9,10.3 7.9,19.8C6.6,32 3,41.7 0,48.2C2.7,46.5 6.7,43.3 10.2,38.3C15.2,31 16.1,23.8 16.4,20.3C15.5,18.9 14.3,16.9 13.2,14.4C9.7,6.4 9.8,0 9.2,0Z" style="fill:rgb(109,108,108);fill-opacity:0.24;fill-rule:nonzero;"/>
    </g>
    <g id="shape487" transform="matrix(0.953728,0,0,0.953728,594.811,164.478)">
        <path d="M0,11.818C2.4,14.318 5.8,17.618 10.2,21.218C23.5,32.318 36.4,38.618 36.8,37.918C37.2,37.218 24.6,32.118 15,18.318C9,9.718 5.5,-0.482 4,0.018C3.3,0.218 3.9,2.618 2.7,6.518C1.9,8.818 0.8,10.618 0,11.818Z" style="fill:rgb(109,108,108);fill-opacity:0.19;fill-rule:nonzero;"/>
    </g>
    <g id="shape488" transform="matrix(0.953728,0,0,0.953728,605.397,61.2059)">
        <path d="M0,0C11.8,20.4 20.2,38.2 25.9,51.4C41.8,88.5 40.5,98.7 38.3,105.3C33.4,120.2 19.8,128.6 11.7,132.6C13.7,135.4 22,146.5 37.2,149.6C40.1,150.2 57.6,153.5 70.9,141.4C80.8,132.5 82.3,120.7 82.6,117.6C84.4,100.8 74.4,88.2 71.2,84.6C67,79.9 66.1,81 56.3,71.5C48.7,64.2 45,60.5 42.8,55.9C39.3,48.4 41.6,45.2 37.5,35.7C35.3,30.5 32.7,27 30.8,24.3C21.1,11.2 7.1,3.5 0,0Z" style="fill:rgb(88,150,127);fill-opacity:0.74;fill-rule:nonzero;"/>
    </g>
    <g id="shape489" transform="matrix(0.953728,0,0,0.953728,534.997,198.352)">
        <path d="M2.716,4.7C3.616,16.3 14.216,24.7 25.316,23.1C36.016,21.5 43.716,11.1 41.816,0C43.816,2.3 46.616,6.1 48.616,11.3C50.216,15.4 50.816,19.1 51.016,21.8C49.516,24.3 41.716,36.7 27.116,39.1C24.616,39.5 10.416,41.6 3.716,33.1C0.516,28.9 0.216,23.8 0.016,19.7C-0.184,13 1.516,7.7 2.716,4.7Z" style="fill:rgb(98,163,141);fill-opacity:0.52;fill-rule:nonzero;"/>
    </g>
    <g id="shape490" transform="matrix(0.953728,0,0,0.953728,514.51,136.946)">
        <path d="M5.397,3.085C6.397,5.085 6.397,7.985 5.097,8.585C3.797,9.285 1.297,7.385 0.397,5.185C-0.303,3.285 -0.103,0.585 1.197,0.085C2.597,-0.415 4.597,1.385 5.397,3.085Z" style="fill:rgb(22,22,22);fill-rule:nonzero;"/>
    </g>
    <g transform="matrix(0.953728,0,0,0.953728,510.504,133.009)">
        <g id="group604">
            <g id="group605">
                <path id="shape491" d="M1.397,4.913C4.897,3.713 8.497,2.813 12.197,2.213C13.597,2.013 12.997,-0.187 11.597,0.013C7.897,0.613 4.297,1.513 0.797,2.713C-0.603,3.213 -0.003,5.313 1.397,4.913Z" style="fill:rgb(22,22,22);fill-rule:nonzero;"/>
            </g>
        </g>
    </g>
</svg>
